<?xml version="1.0" encoding="utf-8"?>
<!-- Generator: Adobe Illustrator 20.1.0, SVG Export Plug-In . SVG Version: 6.00 Build 0)  -->
<svg version="1.1" xmlns="http://www.w3.org/2000/svg" xmlns:xlink="http://www.w3.org/1999/xlink" x="0px" y="0px"
	 viewBox="0 0 2800 2800" style="enable-background:new 0 0 2800 2800;" xml:space="preserve">
<g id="Layer_5">
	<g id="Layer_5_2_">
		<rect x="-103" y="-71.5" style="fill:#FFFFFF;" width="3006" height="2943"/>
	</g>
</g>
<g id="Capa_3">
	<circle style="fill:#1B8F5B;" cx="162" cy="225" r="162"/>
	<g>
		<circle style="fill:#89BF46;" cx="391.7" cy="695" r="288"/>
		<circle style="fill:#1B8F5B;" cx="391.7" cy="695" r="219.5"/>
		<circle style="fill:#88CDCE;" cx="391.7" cy="695" r="117"/>
	</g>
	<path style="fill:#57BCB5;" d="M600.8,0c-89.5,0-162,72.5-162,162s72.5,162,162,162c89.5,0,162-72.5,162-162S690.3,0,600.8,0z
		 M600.8,288c-69.6,0-126-56.4-126-126s56.4-126,126-126s126,56.4,126,126S670.4,288,600.8,288z"/>
	<g>
		<path style="fill:#89BF46;" d="M-72,443c-67,0-121.3,54.3-121.3,121.3S-139,685.7-72,685.7S49.3,631.4,49.3,564.3S-5,443-72,443z
			 M-72,658.7c-52.1,0-94.4-42.3-94.4-94.4S-124.1,470-72,470s94.4,42.3,94.4,94.4S-19.9,658.7-72,658.7z"/>
	</g>
	<g>
		<path style="fill:#81C191;" d="M976.7,209c-154.1,0-279,124.9-279,279s124.9,279,279,279s279-124.9,279-279S1130.7,209,976.7,209z
			 M976.7,695c-114.3,0-207-92.7-207-207s92.7-207,207-207s207,92.7,207,207S1091,695,976.7,695z"/>
		<path style="fill:#5C996A;" d="M976.7,308c-99.4,0-180,80.6-180,180s80.6,180,180,180s180-80.6,180-180S1076.1,308,976.7,308z
			 M976.7,596c-59.6,0-108-48.4-108-108c0-59.6,48.4-108,108-108s108,48.4,108,108C1084.7,547.6,1036.3,596,976.7,596z"/>
		<circle style="fill:#488854;" cx="976.7" cy="488" r="72"/>
	</g>
	<circle style="fill:#57BCB5;" cx="-4.3" cy="920" r="90"/>
	<g>
		<circle style="fill:#89BF46;" cx="960.7" cy="-9" r="160"/>
		<circle style="fill:#1B8F5B;" cx="960.7" cy="-9" r="81.6"/>
	</g>
	<g>
		<circle style="fill:#57BCB5;" cx="792.2" cy="893" r="97"/>
		<circle style="fill:#88CDCE;" cx="792.2" cy="893" r="49.5"/>
	</g>
	<g>
		<path style="fill:#88CDCE;" d="M171,1027.8c-94.4,0-171,76.6-171,171c0,94.4,76.6,171,171,171s171-76.6,171-171
			C342,1104.3,265.4,1027.8,171,1027.8z M171,1325.7c-70.1,0-126.9-56.8-126.9-126.9c0-70.1,56.8-126.9,126.9-126.9
			s126.9,56.8,126.9,126.9C297.9,1268.9,241.1,1325.7,171,1325.7z"/>
		<path style="fill:#57BCB5;" d="M171,1088.5c-60.9,0-110.3,49.4-110.3,110.3c0,60.9,49.4,110.3,110.3,110.3s110.3-49.4,110.3-110.3
			C281.3,1137.9,231.9,1088.5,171,1088.5z M171,1265c-36.6,0-66.2-29.6-66.2-66.2c0-36.6,29.6-66.2,66.2-66.2s66.2,29.6,66.2,66.2
			C237.2,1235.3,207.6,1265,171,1265z"/>
		<circle style="fill:#419991;" cx="171" cy="1198.8" r="44.1"/>
	</g>
	<circle style="fill:#5C996A;" cx="580.7" cy="1226" r="162"/>
	<g>
		<circle style="fill:#57BCB5;" cx="1435.7" cy="128" r="216"/>
		<circle style="fill:#89BF46;" cx="1435.7" cy="128" r="164.6"/>
		<circle style="fill:#419991;" cx="1435.7" cy="128" r="87.8"/>
	</g>
	<circle style="fill:#89BF46;" cx="1408.7" cy="524" r="90"/>
	<path style="fill:#1B8F5B;" d="M985.7,1019c-89.5,0-162,72.5-162,162c0,89.5,72.5,162,162,162s162-72.5,162-162
		C1147.7,1091.5,1075.1,1019,985.7,1019z M985.7,1307c-69.6,0-126-56.4-126-126s56.4-126,126-126s126,56.4,126,126
		S1055.2,1307,985.7,1307z"/>
	<g>
		<circle style="fill:#88CDCE;" cx="1352.7" cy="891" r="160"/>
		<circle style="fill:#57BCB5;" cx="1352.7" cy="891" r="81.6"/>
	</g>
	<g>
		<path style="fill:#57BCB5;" d="M1701,344c-67,0-121.3,54.3-121.3,121.3S1634,586.7,1701,586.7s121.3-54.3,121.3-121.3
			S1768,344,1701,344z M1701,559.7c-52.1,0-94.4-42.3-94.4-94.4s42.3-94.4,94.4-94.4s94.4,42.3,94.4,94.4S1753.1,559.7,1701,559.7z"
			/>
		<circle style="fill:#57BCB5;" cx="1701" cy="465.3" r="33.7"/>
	</g>
	<g>
		<path style="fill:#88CDCE;" d="M355.7,1419.7c-67,0-121.3,54.3-121.3,121.3s54.3,121.3,121.3,121.3S477,1608,477,1541
			S422.7,1419.7,355.7,1419.7z M355.7,1635.4c-52.1,0-94.4-42.3-94.4-94.4s42.3-94.4,94.4-94.4s94.4,42.3,94.4,94.4
			S407.8,1635.4,355.7,1635.4z"/>
		<circle style="fill:#419991;" cx="355.7" cy="1541" r="33.7"/>
	</g>
	<circle style="fill:#1B8F5B;" cx="-35.7" cy="1971" r="162"/>
	<g>
		<circle style="fill:#89BF46;" cx="194" cy="2441" r="288"/>
		<circle style="fill:#1B8F5B;" cx="194" cy="2441" r="219.5"/>
		<circle style="fill:#88CDCE;" cx="194" cy="2441" r="117"/>
	</g>
	<path style="fill:#57BCB5;" d="M403.1,1746c-89.5,0-162,72.5-162,162c0,89.5,72.5,162,162,162s162-72.5,162-162
		C565.1,1818.5,492.6,1746,403.1,1746z M403.1,2034c-69.6,0-126-56.4-126-126s56.4-126,126-126s126,56.4,126,126
		S472.7,2034,403.1,2034z"/>
	<g>
		<path style="fill:#81C191;" d="M779,1955c-154.1,0-279,124.9-279,279s124.9,279,279,279s279-124.9,279-279S933.1,1955,779,1955z
			 M779,2441c-114.3,0-207-92.7-207-207s92.7-207,207-207s207,92.7,207,207S893.3,2441,779,2441z"/>
		<path style="fill:#5C996A;" d="M779,2054c-99.4,0-180,80.6-180,180s80.6,180,180,180s180-80.6,180-180S878.4,2054,779,2054z
			 M779,2342c-59.6,0-108-48.4-108-108s48.4-108,108-108s108,48.4,108,108S838.6,2342,779,2342z"/>
		<circle style="fill:#488854;" cx="779" cy="2234" r="72"/>
	</g>
	<g>
		<circle style="fill:#89BF46;" cx="763" cy="1737" r="160"/>
		<circle style="fill:#1B8F5B;" cx="763" cy="1737" r="81.6"/>
	</g>
	<g>
		<circle style="fill:#57BCB5;" cx="594.5" cy="2639" r="97"/>
		<circle style="fill:#88CDCE;" cx="594.5" cy="2639" r="49.5"/>
	</g>
	<g>
		<path style="fill:#88CDCE;" d="M-26.7,2773.8c-94.4,0-171,76.6-171,171s76.6,171,171,171s171-76.6,171-171
			S67.8,2773.8-26.7,2773.8z M-26.7,3071.7c-70.1,0-126.9-56.8-126.9-126.9s56.8-126.9,126.9-126.9s126.9,56.8,126.9,126.9
			S43.4,3071.7-26.7,3071.7z"/>
	</g>
	<g>
		<circle style="fill:#57BCB5;" cx="1238" cy="1874" r="216"/>
		<circle style="fill:#89BF46;" cx="1238" cy="1874" r="164.6"/>
		<circle style="fill:#419991;" cx="1238" cy="1874" r="87.8"/>
	</g>
	<circle style="fill:#89BF46;" cx="1211" cy="2270" r="90"/>
	<path style="fill:#1B8F5B;" d="M788,2765c-89.5,0-162,72.5-162,162s72.5,162,162,162s162-72.5,162-162S877.5,2765,788,2765z
		 M788,3053c-69.6,0-126-56.4-126-126s56.4-126,126-126s126,56.4,126,126S857.6,3053,788,3053z"/>
	<g>
		<circle style="fill:#88CDCE;" cx="1096" cy="2655" r="160"/>
		<circle style="fill:#57BCB5;" cx="1096" cy="2655" r="81.6"/>
	</g>
	<g>
		<path style="fill:#57BCB5;" d="M1503.3,2090c-67,0-121.3,54.3-121.3,121.3c0,67,54.3,121.3,121.3,121.3s121.3-54.3,121.3-121.3
			C1624.7,2144.3,1570.3,2090,1503.3,2090z M1503.3,2305.7c-52.1,0-94.4-42.3-94.4-94.4s42.3-94.4,94.4-94.4
			c52.1,0,94.4,42.3,94.4,94.4S1555.4,2305.7,1503.3,2305.7z"/>
		<circle style="fill:#57BCB5;" cx="1503.3" cy="2211.3" r="33.7"/>
	</g>
	<g>
		<path style="fill:#88CDCE;" d="M1269.3,1289c-67,0-121.3,54.3-121.3,121.3s54.3,121.3,121.3,121.3s121.3-54.3,121.3-121.3
			S1336.3,1289,1269.3,1289z M1269.3,1504.7c-52.1,0-94.4-42.3-94.4-94.4s42.3-94.4,94.4-94.4c52.1,0,94.4,42.3,94.4,94.4
			S1321.4,1504.7,1269.3,1504.7z"/>
		<circle style="fill:#419991;" cx="1269.3" cy="1410.3" r="33.7"/>
	</g>
	<circle style="fill:#89BF46;" cx="31.7" cy="1559" r="90"/>
	<circle style="fill:#57BCB5;" cx="628.7" cy="1493" r="57"/>
	<circle style="fill:#88CDCE;" cx="1054.7" cy="896" r="57"/>
	<circle style="fill:#488854;" cx="347.7" cy="0" r="57"/>
	<circle style="fill:#89BF46;" cx="-10.3" cy="-1" r="57"/>
	<g>
		<circle style="fill:#5C996A;" cx="965.7" cy="1476" r="97"/>
		<circle style="fill:#89BF46;" cx="965.7" cy="1476" r="49.5"/>
	</g>
	<circle style="fill:#1B8F5B;" cx="2047.7" cy="479" r="162"/>
	<g>
		<circle style="fill:#89BF46;" cx="2277.3" cy="949" r="288"/>
		<circle style="fill:#1B8F5B;" cx="2277.3" cy="949" r="219.5"/>
		<circle style="fill:#88CDCE;" cx="2277.3" cy="949" r="117"/>
	</g>
	<path style="fill:#57BCB5;" d="M2486.5,254c-89.5,0-162,72.5-162,162s72.5,162,162,162c89.5,0,162-72.5,162-162
		S2576,254,2486.5,254z M2486.5,542c-69.6,0-126-56.4-126-126s56.4-126,126-126s126,56.4,126,126S2556.1,542,2486.5,542z"/>
	<g>
		<path style="fill:#89BF46;" d="M1764,713c-67,0-121.3,54.3-121.3,121.3S1697,955.7,1764,955.7s121.3-54.3,121.3-121.3
			S1831,713,1764,713z M1764,928.7c-52.1,0-94.4-42.3-94.4-94.4s42.3-94.4,94.4-94.4s94.4,42.3,94.4,94.4S1816.1,928.7,1764,928.7z"
			/>
		<circle style="fill:#89BF46;" cx="1764" cy="834.3" r="33.7"/>
	</g>
	<g>
		<path style="fill:#81C191;" d="M2862.3,463c-154.1,0-279,124.9-279,279s124.9,279,279,279s279-124.9,279-279
			S3016.4,463,2862.3,463z M2862.3,949c-114.3,0-207-92.7-207-207s92.7-207,207-207s207,92.7,207,207S2976.6,949,2862.3,949z"/>
		<path style="fill:#5C996A;" d="M2862.3,562c-99.4,0-180,80.6-180,180s80.6,180,180,180c99.4,0,180-80.6,180-180
			S2961.7,562,2862.3,562z M2862.3,850c-59.6,0-108-48.4-108-108c0-59.6,48.4-108,108-108s108,48.4,108,108
			C2970.3,801.6,2922,850,2862.3,850z"/>
		<circle style="fill:#488854;" cx="2862.3" cy="742" r="72"/>
	</g>
	<circle style="fill:#57BCB5;" cx="1881.3" cy="1174" r="90"/>
	<g>
		<circle style="fill:#89BF46;" cx="2846.3" cy="245" r="160"/>
		<circle style="fill:#1B8F5B;" cx="2846.3" cy="245" r="81.6"/>
	</g>
	<g>
		<circle style="fill:#57BCB5;" cx="2677.9" cy="1147" r="97"/>
		<circle style="fill:#88CDCE;" cx="2677.9" cy="1147" r="49.5"/>
	</g>
	<g>
		<path style="fill:#88CDCE;" d="M1588.7,1370c-94.4,0-171,76.6-171,171s76.6,171,171,171s171-76.6,171-171S1683.1,1370,1588.7,1370
			z M1588.7,1667.9c-70.1,0-126.9-56.8-126.9-126.9s56.8-126.9,126.9-126.9s126.9,56.8,126.9,126.9S1658.7,1667.9,1588.7,1667.9z"/>
		<path style="fill:#57BCB5;" d="M1588.7,1430.7c-60.9,0-110.3,49.4-110.3,110.3s49.4,110.3,110.3,110.3S1699,1601.9,1699,1541
			S1649.6,1430.7,1588.7,1430.7z M1588.7,1607.2c-36.6,0-66.2-29.6-66.2-66.2c0-36.6,29.6-66.2,66.2-66.2
			c36.6,0,66.2,29.6,66.2,66.2C1654.9,1577.6,1625.2,1607.2,1588.7,1607.2z"/>
		<circle style="fill:#419991;" cx="1588.7" cy="1541" r="44.1"/>
	</g>
	<circle style="fill:#5C996A;" cx="2466.3" cy="1480" r="162"/>
	
		<ellipse transform="matrix(6.205821e-02 -0.9981 0.9981 6.205821e-02 321.4198 2650.0198)" style="fill:#89BF46;" cx="1570.7" cy="1154" rx="90" ry="90"/>
	<path style="fill:#1B8F5B;" d="M2871.3,1273c-89.5,0-162,72.5-162,162s72.5,162,162,162s162-72.5,162-162S2960.8,1273,2871.3,1273z
		 M2871.3,1561c-69.6,0-126-56.4-126-126s56.4-126,126-126s126,56.4,126,126S2940.9,1561,2871.3,1561z"/>
	<g>
		<circle style="fill:#88CDCE;" cx="2126.7" cy="18" r="160"/>
		<circle style="fill:#57BCB5;" cx="2126.7" cy="18" r="81.6"/>
	</g>
	<g>
		<path style="fill:#57BCB5;" d="M2502.3-78.7c-67,0-121.3,54.3-121.3,121.3S2435.3,164,2502.3,164s121.3-54.3,121.3-121.3
			S2569.3-78.7,2502.3-78.7z M2502.3,137c-52.1,0-94.4-42.3-94.4-94.4s42.3-94.4,94.4-94.4s94.4,42.3,94.4,94.4
			S2554.4,137,2502.3,137z"/>
		<circle style="fill:#57BCB5;" cx="2502.3" cy="42.7" r="33.7"/>
	</g>
	<g>
		<path style="fill:#88CDCE;" d="M2272.7,1779.7c-67,0-121.3,54.3-121.3,121.3s54.3,121.3,121.3,121.3c67,0,121.3-54.3,121.3-121.3
			S2339.7,1779.7,2272.7,1779.7z M2272.7,1995.4c-52.1,0-94.4-42.3-94.4-94.4s42.3-94.4,94.4-94.4s94.4,42.3,94.4,94.4
			S2324.8,1995.4,2272.7,1995.4z"/>
		<circle style="fill:#419991;" cx="2272.7" cy="1901" r="33.7"/>
	</g>
	<circle style="fill:#1B8F5B;" cx="1850" cy="2225" r="162"/>
	<g>
		<circle style="fill:#89BF46;" cx="2079.6" cy="2695" r="288"/>
		<circle style="fill:#1B8F5B;" cx="2079.6" cy="2695" r="219.5"/>
		<circle style="fill:#88CDCE;" cx="2079.6" cy="2695" r="117"/>
	</g>
	<path style="fill:#57BCB5;" d="M2263.7,2063c-89.5,0-162,72.5-162,162s72.5,162,162,162s162-72.5,162-162S2353.1,2063,2263.7,2063z
		 M2263.7,2351c-69.6,0-126-56.4-126-126s56.4-126,126-126s126,56.4,126,126S2333.2,2351,2263.7,2351z"/>
	<g>
		<path style="fill:#89BF46;" d="M1651.7,2409.7c-67,0-121.3,54.3-121.3,121.3c0,67,54.3,121.3,121.3,121.3S1773,2598,1773,2531
			C1773,2464,1718.7,2409.7,1651.7,2409.7z M1651.7,2625.4c-52.1,0-94.4-42.3-94.4-94.4s42.3-94.4,94.4-94.4s94.4,42.3,94.4,94.4
			S1703.8,2625.4,1651.7,2625.4z"/>
		<circle style="fill:#89BF46;" cx="1651.7" cy="2531" r="33.7"/>
	</g>
	<g>
		<path style="fill:#81C191;" d="M2664.6,2209c-154.1,0-279,124.9-279,279s124.9,279,279,279s279-124.9,279-279
			S2818.7,2209,2664.6,2209z M2664.6,2695c-114.3,0-207-92.7-207-207s92.7-207,207-207s207,92.7,207,207S2779,2695,2664.6,2695z"/>
		<path style="fill:#5C996A;" d="M2664.6,2308c-99.4,0-180,80.6-180,180s80.6,180,180,180c99.4,0,180-80.6,180-180
			S2764.1,2308,2664.6,2308z M2664.6,2596c-59.6,0-108-48.4-108-108s48.4-108,108-108s108,48.4,108,108S2724.3,2596,2664.6,2596z"/>
		<circle style="fill:#488854;" cx="2664.6" cy="2488" r="72"/>
	</g>
	<circle style="fill:#57BCB5;" cx="1390.7" cy="2549" r="90"/>
	<g>
		<circle style="fill:#89BF46;" cx="2648.6" cy="1991" r="160"/>
		<circle style="fill:#1B8F5B;" cx="2648.6" cy="1991" r="81.6"/>
	</g>
	<g>
		<circle style="fill:#57BCB5;" cx="2480.2" cy="2893" r="97"/>
	</g>
	<g>
		<path style="fill:#88CDCE;" d="M1516.7,2693c-94.4,0-171,76.6-171,171s76.6,171,171,171s171-76.6,171-171S1611.1,2693,1516.7,2693
			z M1516.7,2990.9c-70.1,0-126.9-56.8-126.9-126.9s56.8-126.9,126.9-126.9s126.9,56.8,126.9,126.9S1586.7,2990.9,1516.7,2990.9z"/>
		<path style="fill:#57BCB5;" d="M1516.7,2753.7c-60.9,0-110.3,49.4-110.3,110.3s49.4,110.3,110.3,110.3S1627,2924.9,1627,2864
			S1577.6,2753.7,1516.7,2753.7z M1516.7,2930.2c-36.6,0-66.2-29.6-66.2-66.2s29.6-66.2,66.2-66.2c36.6,0,66.2,29.6,66.2,66.2
			S1553.2,2930.2,1516.7,2930.2z"/>
	</g>
	<g>
		<circle style="fill:#57BCB5;" cx="2029.7" cy="1568" r="216"/>
		<circle style="fill:#89BF46;" cx="2029.7" cy="1568" r="164.6"/>
		<circle style="fill:#419991;" cx="2029.7" cy="1568" r="87.8"/>
	</g>
	<g>
		<path style="fill:#88CDCE;" d="M1782.3-141.7c-67,0-121.3,54.3-121.3,121.3S1715.3,101,1782.3,101s121.3-54.3,121.3-121.3
			S1849.3-141.7,1782.3-141.7z M1782.3,74c-52.1,0-94.4-42.3-94.4-94.4s42.3-94.4,94.4-94.4c52.1,0,94.4,42.3,94.4,94.4
			S1834.4,74,1782.3,74z"/>
		<circle style="fill:#419991;" cx="1782.3" cy="-20.3" r="33.7"/>
	</g>
	<circle style="fill:#89BF46;" cx="1642.7" cy="1919" r="90"/>
	<circle style="fill:#57BCB5;" cx="2514.3" cy="1747" r="57"/>
	<circle style="fill:#488854;" cx="2233.3" cy="254" r="57"/>
	<circle style="fill:#89BF46;" cx="1875.3" cy="253" r="57"/>
	<g>
		<circle style="fill:#5C996A;" cx="2851.3" cy="1730" r="97"/>
	</g>
	<circle style="fill:#419991;" cx="1960.7" cy="1958" r="57"/>
	<circle style="fill:#57BCB5;" cx="1315.7" cy="1178" r="57"/>
</g>
</svg>
