<?xml version="1.0" encoding="utf-8"?>
<!-- Generator: Adobe Illustrator 18.0.0, SVG Export Plug-In . SVG Version: 6.00 Build 0)  -->
<!DOCTYPE svg PUBLIC "-//W3C//DTD SVG 1.1//EN" "http://www.w3.org/Graphics/SVG/1.1/DTD/svg11.dtd">
<svg version="1.1" xmlns="http://www.w3.org/2000/svg" xmlns:xlink="http://www.w3.org/1999/xlink" x="0px" y="0px"
	 viewBox="0 0 2272 1872" enable-background="new 0 0 2272 1872" xml:space="preserve">
<g id="Background">
	<rect fill="#E1E473" width="2272" height="1872"/>
</g>
<g id="Object">
	<path fill="#BFCC5C" d="M2003.9,1251.5c37.9-24.5,63-67.4,73.7-110.9c12.1-49.3-1.5-125.4-46.4-156.1
		c-80.9-55.4-217,17.8-205.8,115.7c-65.7-90.3-219.2-86.3-269.2,20c-40.7,86.6,44.3,211.2,134.2,206.2
		c-58.6,51.2-75.6,143-23.5,208.8c26.5,33.5,86.3,50.8,125.6,32.2c41.1-19.4,62.7-55.9,79.8-95.5c5.7,80,2.4,160.7-6.4,243.5
		c-0.8,7.3,10.9,8.6,12.6,1.7c19.4-81.3,22.2-166.7,12.7-250.8c25.9,28.8,60.8,45.7,102.2,37.7c50.4-9.8,102.6-27.3,123.2-78
		C2149.2,1345.3,2084.2,1254.9,2003.9,1251.5z"/>
	<path fill="#BFCC5C" d="M1361.6,1214.5c-58.8-8.1-56.7-52.4-45-92.6c12.7-43.2,34.3-79.6,11.8-123.4c-13.6-26.6-54-40.8-82-37
		c-43.2,5.9-74.3,31.8-101.5,64.4c-16.7,20.1-30.4,42.9-45.1,64.5c-14.1,20.6-39.7,46.8-64.6,21.6c-3.6-3.7-8.5-6.9-13.4-8.5
		c-87.6-28.6-104.6,77.1-87.8,137.4c3,9.7,6.3,19.3,9.7,28.8c0.7,2.1,24.4,63.6-9.7,47.9c-16.4-7.5-26.8-9.4-44.5-4.8
		c-31.2,8.1-44.1,51.5-36.8,78.9c22.6,84.8,94.9,149.8,173.2,184.9c-13.6,24.3-27.3,48.6-40.5,73.2c-4.8,9,7.4,15.4,13.2,7.7
		c18.6-24.3,35.8-49.9,52-76.3c94.4,9.2,211.2-5.7,285.2-68.1c19.9-16.8,20.6-39.9,4.8-58.4c-17.6-20.7-29.6-22.7-22.1-54.5
		c4.3-18.3,19.6-31.6,32.8-43.5c15.8-14.2,36.1-26.6,47.4-45.1c15.6-25.7,20.6-54.5,2.9-80.2
		C1393,1218.8,1375.2,1216.3,1361.6,1214.5z"/>
	<path fill="#BFCC5C" d="M738.2,1360c-81.3-31.6-69.3-114.4-75.6-186.4c0-0.3-0.1-0.5-0.2-0.7c0.6-2.3,1.1-4.6,1.4-6.7
		c1.2-7-7.2-10.7-11.3-4.8c-11,15.6-16.9,34.4-27.2,50.5c-5.2,8.1-12,15.2-19.9,20.8c-12.5,8.9-34.3,5.4-36.2-11.5
		c0.3-1.2,0.7-2.4,1-3.6c2-7.9-9.1-12.8-13.2-5.6c-18.7,32.1-38.5,100.1-88.2,74.5c-37.7-19.4-54.4-68.7-53.8-108.3
		c0.1-0.1,0.2-0.2,0.3-0.3c4.3-4.9-1.1-12.7-7.1-9.2c-63,36.7-114.3,20.3-179.8,0.7c-5.5-1.6-9.3,6.9-4,9.4c0.2,0.1,0.4,0.2,0.6,0.3
		c19.9,56.6,8.5,115-32.3,159.1c-4.9,5.3-0.1,13.6,7,12c32.8-7.6,59.5,1.4,79.4,29.6c53.6,76.2-40.3,62-59.9,61.1
		c-4.9-0.2-6.9,4.1-6.1,7.9c-0.2,1.1-0.1,2.3,0.6,3.4c25.6,41.3-81.5,61.7-101.3,64.7c-10.8,1.6-7.2,17.3,2.4,18
		c64.2,4.3,105.9,35.3,119.6,98.2c0.4,1.8,1.3,3.1,2.4,4c-1,3.7,2.5,8.3,6.5,6.7c15.2-5.9,27.4-15.4,43.8-19.2
		c17.7-4.1,35.4-0.4,52,5.9c0.5,3.1,1.5,4.4,5.1,7.7c0.6,0.6,1.4,0.9,2.2,1c2.8,1.9,6.8,2,8.4-1.9c8.6-19.8,18.7-32.3,39.8-38.8
		c19.5-6,61.7-4.5,77.9,9.7c3.3,2.9,7.6,1.5,9.3-1.6c1.2-0.7,2.2-1.8,2.8-3.4c8-21.7,15.2-39.5,27.7-54.9
		c25.9,18.5,54.3,33.4,84.9,43.5c6.1,2,10.2-7.6,4.4-10.4c-27.6-13.2-53.6-28.2-77.6-45.2c4.6-4.1,9.6-8,15.5-11.8
		c29-18.4,65.2-19.6,98.3-17.6c2.8,0.2,4.7-1.6,5.6-3.8c1.9-0.8,3.4-2.3,3.8-4.4c5.3-25.4,5.3-49.3,17-73.3
		c13.1-26.8,40-43,69.3-43.8c3.9-0.1,5.7-5,4-7.6C744.8,1372.9,745,1362.7,738.2,1360z"/>
	<path fill="#BFCC5C" d="M327.5,862.6c-0.8,3.2,0.4,6.8,3.1,9.1c0.1,3.1,0.1,6.3,0.3,9.4c0.5,7.9,11.4,7.7,12.2,0
		c0.3-3,0.6-5.9,0.9-8.9c117.8-25.4,252.2-78.2,300.9-198.5c26-64.1,19-122.1-4-186.1c-27.4-75.9-53.3-152.3-80.3-228.4
		c2.2-0.7,4.4-1.4,6.6-2.1c8.2-2.5,4.6-13.8-3.5-12.6c-150.2,22.7-317.8,133.4-384.6,272.1C119.4,640.8,206.4,813.8,327.5,862.6z"/>
	<path fill="#BFCC5C" d="M1465.3,211.7c-72.3-10.3-154.7,8.1-224.1,27.7c-72.5,20.4-139.3,56.4-197,104.5
		c-105.8,88.2-158.9,234.3-133.6,369.9c-14.2,23.6-26.9,47.7-37.1,72.2c-4.2,10,10.9,14.5,16.3,6.9c10.9-15.3,21.4-30.7,31.7-46.2
		c0.9,0.2,1.8,0.2,2.6,0.1c53.4,14.2,121.4-3.2,172.4-18.1c62.7-18.3,120.1-51.4,170.6-92.2c54.8-44.3,99.6-102.4,117.4-171.1
		c10.5-40.6,11.9-83.1,22.3-123.8c10.1-39.6,29-75.2,49.1-110.3c3.1-0.6,6.3-1.1,9.4-1.7C1473.9,227.8,1474.4,213,1465.3,211.7z"/>
	<path fill="#BFCC5C" d="M1623.2,439.9c-8.8-0.3-17.6-0.1-26.6-0.1c-5.6,0-9.5,5.4-8.1,10.7c15.9,62.6,42.6,128.5,85.5,178.3
		c-7-0.9-13.9-1.8-21.1-2.7c-8.2-1-11.2,8.9-8.5,14.9c60.5,132.9,215.1,194.1,346.8,133.9c0.2,0.5,0.5,1,0.7,1.5
		c-0.6,4.1,1.7,8,4.9,9.8c6.9,13.7,14.1,27.1,22.3,39.9c4.5,6.9,16.2,2.6,13.6-5.7c-4.8-15.7-10.7-31.3-17.5-46.7
		c86.9-112.7,96.8-312.4-36.7-392.9c-2.9-1.7-6.8-1.2-9.1,1.2c-7.8,8-13.1,15.4-16.7,24.1c-21-59.9-81.1-112.4-132.8-141.4
		c-4-2.2-8.4,0.6-8.7,5c-0.7,13.6-0.4,26.8,0.8,40.1c-35.9-27.9-77.7-49.6-116.6-72c-30.3-17.5-72.4-45.4-109.1-38.4
		c-3,0.6-5.5,3.5-6.3,6.3c-8.8,32.9,1.1,73.9,6.2,107.2C1592.8,356.1,1604.8,399.8,1623.2,439.9z"/>
	<g>
		<path fill="#A8CD4A" d="M1979.1,1232.8c-2.8,1-5.6,2-8.5,2.8c-7.9,2.2-12-8.6-5.4-12.9c40.7-26.4,81.1-53.7,94.2-104
			c11.8-45.1,10.9-109.2-26.3-144.2c-79.6-74.7-204.3,16.9-192.8,113.4c0.1,0.4,0,0.8-0.1,1.2c1,2,2,3.9,2.9,5.9
			c3.7,8.3-6.1,17.5-13.2,10.2c-32.7-33.6-61.9-69.8-111.6-78.1c-47.6-8-103,7.1-129.6,51c-52.2,85.9,29.4,222.6,126.9,199.6
			c10.9-6.4,22.8-11.6,35.6-15.3c8.8-2.5,13.9,10,6.2,14.6c-67.2,40.2-143.1,123-81.7,205.1c34.8,46.6,108.4,63.9,151.6,16.7
			c20.3-22.2,33.6-47.8,45.9-74.7c-5.9-67.7-18.4-135-39.9-202.9c-1.8-5.7,6.9-8,8.9-2.5c21.6,59.4,37.9,122.2,47.3,186.2
			c27.4,20.9,47.5,52.3,87.4,48.9c37.9-3.2,102.7-17.1,119.9-56.3C2132.5,1315.5,2070.4,1219.9,1979.1,1232.8z"/>
		<path fill="#516B20" d="M2005.9,1219.5c37.9-24.5,63-67.4,73.7-110.9c12.1-49.3-1.5-125.4-46.4-156.1
			c-80.9-55.4-217,17.8-205.8,115.7c-65.7-90.3-219.2-86.3-269.2,20c-40.7,86.6,44.3,211.2,134.2,206.2
			c-58.6,51.2-75.6,143-23.5,208.8c26.5,33.5,86.3,50.8,125.6,32.2c41.1-19.4,62.7-55.9,79.8-95.5c5.7,80,2.4,160.7-6.4,243.5
			c-0.8,7.3,10.9,8.6,12.6,1.7c19.4-81.3,22.2-166.7,12.7-250.8c25.9,28.8,60.8,45.7,102.2,37.7c50.4-9.8,102.6-27.3,123.2-78
			C2151.2,1313.3,2086.2,1222.9,2005.9,1219.5z M2096.6,1397.4c-17.2,39.2-82,53.1-119.9,56.3c-39.9,3.4-60-28-87.4-48.9
			c-9.4-63.9-25.7-126.8-47.3-186.2c-2-5.5-10.7-3.3-8.9,2.5c21.5,67.8,34.1,135.2,39.9,202.9c-12.3,26.9-25.6,52.5-45.9,74.7
			c-43.2,47.2-116.8,29.9-151.6-16.7c-61.4-82.1,14.6-165,81.7-205.1c7.7-4.6,2.7-17.1-6.2-14.6c-12.8,3.7-24.6,8.9-35.6,15.3
			c-97.5,23.1-179.2-113.7-126.9-199.6c26.7-43.8,82.1-59,129.6-51c49.7,8.4,78.9,44.5,111.6,78.1c7.1,7.3,16.9-1.9,13.2-10.2
			c-0.9-2-2-4-2.9-5.9c0.1-0.4,0.1-0.7,0.1-1.2c-11.5-96.5,113.2-188.1,192.8-113.4c37.2,34.9,38,99.1,26.3,144.2
			c-13.1,50.3-53.5,77.7-94.2,104c-6.6,4.3-2.5,15.1,5.4,12.9c2.9-0.8,5.7-1.8,8.5-2.8C2070.4,1219.9,2132.5,1315.5,2096.6,1397.4z"
			/>
		<path fill="#88B738" d="M1979.8,1350.1c9.8-16.3,4.6-38.2-7.2-53c-11.8-14.9-29-24.3-45.7-33.3c-15.9-8.6-34.5-17.4-51.4-11
			c38.1-35.5,70.7-84.4,63.9-136c-1.2-8.9-4.2-18.6-12.1-22.8c-12.6-6.8-27,4.4-36.7,14.9c-20.7,22.6-40.3,46.3-58.7,70.8
			c-18.1-17.8-37.9-33.9-59.2-47.7c-6.5-4.2-13.3-8.3-20.9-9.9c-25.3-5.1-48,21.5-49,47.3c-1.1,29.3,17.6,56.5,41.5,73.5
			c23.9,17,52.6,25.6,80.7,34c-23.4,17.6-44.6,37.9-63.2,60.5c-10.2,12.5-19.9,26.1-23.7,41.7c-3.8,15.7-0.7,33.9,11.3,44.6
			c17.6,15.7,45.7,9.6,65.9-2.6c21.4-12.9,39.2-31.6,51.2-53.4c-7-48.9-17.9-97.8-33.4-146.9c-1.8-5.7,6.9-8,8.9-2.5
			c16.4,45.2,29.8,92.5,39.4,140.8c11,4.3,22.5,7.6,34.2,9.7C1939,1373.3,1967.5,1370.5,1979.8,1350.1z"/>
		<g>
			<path fill="#DBE270" d="M1668,1398c7.5-32.5,24.6-61.6,44.8-88.5c-48.9,43.7-83.8,106.8-39.1,169.7
				C1663.4,1454.1,1661.8,1424.7,1668,1398z"/>
			<path fill="#DBE270" d="M1670.5,1277.2c-1-0.7-2.1-1.3-3.1-2.1c-19.1-15-30.9-37.3-41.3-59.3c-11.5-24.2-22.2-49.4-24.6-76.1
				c-2.4-26.7,4.8-55.5,24.6-73.6c25.7-23.6,65.2-23.6,99.5-17.2c23.5,4.4,46.5,11.1,68.7,19.9c-21.2-19.9-44.4-36.5-75.9-41.8
				c-47.6-8-103,7.1-129.6,51C1544.8,1150.2,1595.4,1258.1,1670.5,1277.2z"/>
			<path fill="#DBE270" d="M1992.4,978c8.6,4.3,15.3,11.5,21.2,19.1c37.7,48.3,42.3,117.7,17.7,173.3c12.7-14.4,22.7-31.1,28-51.7
				c11.8-45.1,10.9-109.2-26.3-144.2c-72.9-68.5-183.6,2.7-192.8,89.3c21.1-41.2,59.3-73.5,103.8-86.5
				C1959.8,972.7,1977.6,970.5,1992.4,978z"/>
			<path fill="#DBE270" d="M2055.4,1434.3c18.4-8.6,34-20.5,41.2-36.9c32.7-74.6-16-160.5-93.9-165.5c52.7,23.1,87.2,84,77.7,141.1
				C2076.7,1395.1,2067.5,1415.4,2055.4,1434.3z"/>
		</g>
	</g>
	<g>
		<path fill="#A8CD4A" d="M1347.3,1197c-18.2-2-36.4-12.9-43.6-30.3c-10.6-25.9-10-54.8-0.5-81.1c16.9-47.4,43.9-138.8-40.3-138.1
			c-60.4,0.5-97.4,48.9-128.2,94.8c-14,20.8-32.6,59-57.7,69.1c-36.7,14.8-50.9-35.9-85.6-23.8c-64.6,22.5-41.2,97.4-25.4,144.5
			c8.1,24.1,23.6,53.3,4.3,74.6c-3.5,3.8-11.9,6.1-16.5,5.5c-24.3-3.1-85.2-19.1-80.2,30.2c8.5,83.2,87.9,153.3,160.3,189.7
			c0.4-0.5,1.1-0.8,1.7-1.2c15.7-28,31.4-56,46.4-84.3c-28-18-49.5-46.6-57.3-81.1c-1.2-5.3,6.4-7.4,8.1-2.2
			c10.8,33.6,30.3,57.5,55.2,71.9c14.5-27.9,28.4-56.2,41-85.4c9.3-21.6,18.1-43.3,26.5-65.1c-24.2-12.9-43.3-35.9-50.7-65.4
			c-1.2-4.9,5.9-6.8,7.5-2.1c9.1,26.5,26.3,45.3,47.6,55.8c13.3-35.5,25.5-71.4,36.5-107.7c-11.3-6.3-21.5-14.8-29.7-25
			c-3.4-4.2,2.4-10.3,6.1-6.1c7.9,9,16.9,15.8,26.6,20.9c8.9-30.1,17.2-60.5,24.5-91.2c1.1-4.8,8.3-2.7,7.3,2
			c-6.5,30.9-13.8,62.2-21.9,93.7c11.9,4.7,24.8,7.2,38.3,8c5.7,0.3,5.4,8,0,8.6c-14.2,1.7-28.1-0.8-41-6
			c-9.5,36.2-20.1,72.5-31.9,108.5c19.9,5.8,42.2,5.4,64.6-2c5.7-1.9,9.6,7.2,4.1,9.8c-24.4,11.6-50.1,12.2-72.9,4.6
			c-17.6,52.3-38.1,103.9-61.5,153.5c26.5,8.9,57.1,8.8,88.6-0.3c6.1-1.8,10.2,7.5,4.4,10.4c-32.9,16.3-68.4,15.5-99.1,2.8
			c-12.4,25.5-25.6,50.5-39.8,74.6c43.6,3.6,87.7,2.1,130.3-8c16-3.8,179.2-56.2,136.9-89.1c-40.4-31.5-36.4-79.8,1.6-113.9
			c15.5-13.9,34.2-26,47.6-42C1411.3,1241,1397.7,1202.7,1347.3,1197z"/>
		<path fill="#516B20" d="M1363.6,1182.5c-58.8-8.1-56.7-52.4-45-92.6c12.7-43.2,34.3-79.6,11.8-123.4c-13.6-26.6-54-40.8-82-37
			c-43.2,5.9-74.3,31.8-101.5,64.4c-16.7,20.1-30.4,42.9-45.1,64.5c-14.1,20.6-39.7,46.8-64.6,21.6c-3.6-3.7-8.5-6.9-13.4-8.5
			c-87.6-28.6-104.6,77.1-87.8,137.4c3,9.7,6.3,19.3,9.7,28.8c0.7,2.1,24.4,63.6-9.7,47.9c-16.4-7.5-26.8-9.4-44.5-4.8
			c-31.2,8.1-44.1,51.5-36.8,78.9c22.6,84.8,94.9,149.8,173.2,184.9c-13.6,24.3-27.3,48.6-40.5,73.2c-4.8,9,7.4,15.4,13.2,7.7
			c18.6-24.3,35.8-49.9,52-76.3c94.4,9.2,211.2-5.7,285.2-68.1c19.9-16.8,20.6-39.9,4.8-58.4c-17.6-20.7-29.6-22.7-22.1-54.5
			c4.3-18.3,19.6-31.6,32.8-43.5c15.8-14.2,36.1-26.6,47.4-45.1c15.6-25.7,20.6-54.5,2.9-80.2
			C1395,1186.8,1377.2,1184.3,1363.6,1182.5z M1379.5,1279.1c-13.4,16-32.1,28.1-47.6,42c-38,34.1-42,82.5-1.6,113.9
			c42.3,32.9-120.9,85.3-136.9,89.1c-42.7,10.1-86.8,11.6-130.3,8c14.2-24.2,27.3-49.2,39.8-74.6c30.7,12.7,66.2,13.5,99.1-2.8
			c5.8-2.9,1.7-12.1-4.4-10.4c-31.5,9.1-62.1,9.2-88.6,0.3c23.5-49.7,43.9-101.2,61.5-153.5c22.8,7.6,48.5,7,72.9-4.6
			c5.5-2.6,1.6-11.7-4.1-9.8c-22.4,7.4-44.7,7.8-64.6,2c11.9-36.1,22.5-72.4,31.9-108.5c12.8,5.3,26.7,7.7,41,6
			c5.4-0.6,5.7-8.3,0-8.6c-13.5-0.7-26.4-3.3-38.3-8c8.1-31.5,15.4-62.8,21.9-93.7c1-4.7-6.2-6.8-7.3-2c-7.4,30.7-15.6,61-24.5,91.2
			c-9.8-5.2-18.8-12-26.6-20.9c-3.7-4.2-9.5,1.9-6.1,6.1c8.3,10.2,18.4,18.7,29.7,25c-11,36.3-23.2,72.2-36.5,107.7
			c-21.3-10.5-38.5-29.3-47.6-55.8c-1.6-4.7-8.7-2.8-7.5,2.1c7.4,29.5,26.5,52.4,50.7,65.4c-8.4,21.9-17.2,43.6-26.5,65.1
			c-12.6,29.2-26.5,57.5-41,85.4c-24.8-14.4-44.4-38.3-55.2-71.9c-1.7-5.2-9.3-3.1-8.1,2.2c7.8,34.5,29.4,63.1,57.3,81.1
			c-15,28.4-30.6,56.4-46.4,84.3c-0.6,0.4-1.2,0.7-1.7,1.2c-72.4-36.4-151.8-106.4-160.3-189.7c-5-49.3,55.9-33.3,80.2-30.2
			c4.7,0.6,13.1-1.7,16.5-5.5c19.3-21.3,3.8-50.5-4.3-74.6c-15.8-47.1-39.1-122,25.4-144.5c34.7-12.1,49,38.6,85.6,23.8
			c25.1-10.1,43.7-48.3,57.7-69.1c30.8-45.8,67.8-94.2,128.2-94.8c84.1-0.7,57.2,90.7,40.3,138.1c-9.4,26.3-10.1,55.2,0.5,81.1
			c7.2,17.5,25.4,28.3,43.6,30.3C1397.7,1202.7,1411.3,1241,1379.5,1279.1z"/>
		<path fill="#88B738" d="M1210.5,1418.5c-10.6-8.7-12.7-26.1-4.5-37.1c5.1-6.8,13-10.8,20.1-15.4c32.2-20.9,50.9-56.9,68.2-91.2
			c-18,6.7-38.5,6.1-56.1-1.6c-9.3-4.1-19-13-16.2-22.8c1.3-4.5,4.9-7.8,8.3-11c24.9-23.7,43.6-54,53.5-86.9c-10,4.3-22-1-28.6-9.6
			c-6.7-8.5-9.1-19.6-10.8-30.3c-5.5-34.7-5.4-70.2,0.3-104.8c-22.8,23.3-39.9,52.2-49.3,83.4c-2.9,9.6-5.6,20.1-13.5,26.1
			c-8,6-22.9,2.5-23.1-7.5c-11.4,14-16,33.3-12,50.9c3.3,14.6,11.8,30.9,3.4,43.3c-7.1,10.5-23.3,10.9-34.2,4.4
			c-10.8-6.6-17.6-18-23.9-29c-17,23.2-35,50.3-28.8,78.4c3.3,15.1,13.3,27.9,19.4,42.1c6.1,14.3,7.1,33.1-4.7,43.1
			c-10.8,9.1-28,6.2-39-2.6c-11-8.8-17.4-22-23.5-34.8c-28.3,34.6-36.4,84.6-20.3,126.3c7.4,19.1,19.4,40.6,9.5,58.5
			c-3.9,6.9-10.4,11.3-17.9,13.5c15.5,10.8,31.4,20.2,47,28.1c0.4-0.5,1.1-0.8,1.7-1.2c15.7-28,31.4-56,46.4-84.3
			c-28-18-49.5-46.6-57.3-81.1c-1.2-5.3,6.4-7.4,8.1-2.2c10.8,33.6,30.3,57.5,55.2,71.9c14.5-27.9,28.4-56.2,41-85.4
			c9.3-21.6,18.1-43.3,26.5-65.1c-24.2-12.9-43.3-35.9-50.7-65.4c-1.2-4.9,5.9-6.8,7.5-2.1c9.1,26.5,26.3,45.3,47.6,55.8
			c13.3-35.5,25.5-71.4,36.5-107.7c-11.3-6.3-21.5-14.8-29.7-25c-3.4-4.2,2.4-10.3,6.1-6.1c7.9,9,16.9,15.8,26.6,20.9
			c8.9-30.1,17.2-60.5,24.5-91.2c1.1-4.8,8.3-2.7,7.3,2c-6.5,30.9-13.8,62.2-21.9,93.7c11.9,4.7,24.8,7.2,38.3,8
			c5.7,0.3,5.4,8,0,8.6c-14.2,1.7-28.1-0.8-41-6c-9.5,36.2-20.1,72.5-31.9,108.5c19.9,5.8,42.2,5.4,64.6-2c5.7-1.9,9.6,7.2,4.1,9.8
			c-24.4,11.6-50.1,12.2-72.9,4.6c-17.6,52.3-38.1,103.9-61.5,153.5c26.5,8.9,57.1,8.8,88.6-0.3c6.1-1.8,10.2,7.5,4.4,10.4
			c-32.9,16.3-68.4,15.5-99.1,2.8c-12.4,25.5-25.6,50.5-39.8,74.6c40.3,3.4,81.1,2.2,120.8-6c32.9-28.2,56.1-67.7,63.9-110.3
			C1238.5,1426,1221.1,1427.3,1210.5,1418.5z"/>
		<path fill="#DBE270" d="M1347.3,1197c-18.2-2-36.4-12.9-43.6-30.3c-10.6-25.9-10-54.8-0.5-81.1c16.9-47.4,43.9-138.8-40.3-138.1
			c-60.4,0.5-97.4,48.9-128.2,94.8c-14,20.8-32.6,59-57.7,69.1c-36.7,14.8-50.9-35.9-85.6-23.8c-64.6,22.5-41.2,97.4-25.4,144.5
			c8.1,24.1,23.6,53.3,4.3,74.6c-3.5,3.8-11.9,6.1-16.5,5.5c-24.3-3.1-85.2-19.1-80.2,30.2c0.4,4,1.1,7.9,1.8,11.8
			c3.1-8.1,8.5-15.1,16.1-19c19.1-9.9,42.4,1.6,63.7-1.7c27.8-4.3,45.9-33.9,47-62c1-28.1-10.8-54.9-22.5-80.4
			c-5.8-12.8-11.8-25.9-12.5-39.9c-0.7-14,5.1-29.3,17.6-35.7c26.4-13.5,55,19.4,84.6,17.7c23.2-1.4,39.1-23,52.5-42.1
			c20.3-28.9,42.6-56.4,66.7-82.3c21.5-23.1,49.8-46.7,80.8-41c30.4,16.3,33.7,58.8,26.1,92.5c-7.7,33.6-22.3,68-13.5,101.3
			c6.1,23.3,24.1,43,46.7,51.4c18.2,6.7,42.9,10,47.4,28.9c1.4,5.7,0.3,11.8-1.6,17.4c-16.2,47.3-87.7,64.4-91.5,114.3
			c-2.5,33.3,28.7,62.6,24.9,95.7c-0.4,3.5-1.2,6.8-2.3,10c26-15,41.7-31.1,24.9-44.2c-40.4-31.5-36.4-79.8,1.6-113.9
			c15.5-13.9,34.2-26,47.6-42C1411.3,1241,1397.7,1202.7,1347.3,1197z"/>
	</g>
	<g>
		<path fill="#A8CD4A" d="M654.1,1169.2c-11.1,23.1-28.8,45.3-50.1,49.8c-13.4,2.8-29.8-2.4-38-12.7c-15,42.5-45.3,87.7-94.1,70
			c-46-16.6-66.2-74.8-64.5-120.6c-45.8,38.3-119.4,18.2-170.5-4.1c18.2,51.9,10.3,105.6-20.6,149.9c40.6-2.4,84.3,20.7,88.5,66
			c4.4,47.5-33,65.7-73.3,57.4c15.5,30.7-33.1,54.2-72.4,67.1c47.4,14,92,47.1,92.6,98.8c25.4-19,69.4-16.6,95.4-3
			c6.7-22.1,32.6-35.2,54.5-38.9c18.1-3.1,54.7-2.7,73.4,10.4c1.5-19.2,11.7-38.5,25.3-53.9c-20.5-16.3-39.1-34.9-55.8-55.3
			c-0.3,0.2-0.5,0.3-0.8,0.4c-33.1,10.7-67.8,18.9-102.7,18.6c-6.1,0-5.8-8.6,0-9.2c33.5-3.7,66.5-7,99.3-15.3
			c-15.3-19.5-28.8-40.4-40.3-62.3c-0.6,0.3-1.3,0.5-2.2,0.5c-14.4,0.4-28.8,1.5-43.1-0.5c-4.5-0.6-4.5-8.5,0-9.1
			c13.3-1.9,26.8-1,40.2-0.6c-13.6-27.7-24-56.8-30.8-86.4c-1.2-5.3,6.8-7.5,8.1-2.2c5.1,20,11.7,39,19.5,57
			c9.5-11.1,17.5-23.7,24-36.7c1.9-3.7,8.1-1.1,6.7,2.8c-5.7,16.7-14.7,30.6-26.7,43.4c17.3,37.4,40.4,70.4,67.9,99.4
			c8.5-19.5,18.2-38.3,25.1-58.5c2-6,11-3.6,9.5,2.6c-5.3,22.2-13.3,45.2-27.3,63.6c12.8,12.8,26.6,24.8,41.2,36
			c4.4-3.7,8.9-7.1,13.4-9.9c33.5-20.4,70.7-26.6,109-22.2c-5-52.7,29.3-117.2,84.2-122C654.4,1323.8,650.1,1231.6,654.1,1169.2z"/>
		<path fill="#516B20" d="M740.2,1328c-81.3-31.6-69.3-114.4-75.6-186.4c0-0.3-0.1-0.5-0.2-0.7c0.6-2.3,1.1-4.6,1.4-6.7
			c1.2-7-7.2-10.7-11.3-4.8c-11,15.6-16.9,34.4-27.2,50.5c-5.2,8.1-12,15.2-19.9,20.8c-12.5,8.9-34.3,5.4-36.2-11.5
			c0.3-1.2,0.7-2.4,1-3.6c2-7.9-9.1-12.8-13.2-5.6c-18.7,32.1-38.5,100.1-88.2,74.5c-37.7-19.4-54.4-68.7-53.8-108.3
			c0.1-0.1,0.2-0.2,0.3-0.3c4.3-4.9-1.1-12.7-7.1-9.2c-63,36.7-114.3,20.3-179.8,0.7c-5.5-1.6-9.3,6.9-4,9.4
			c0.2,0.1,0.4,0.2,0.6,0.3c19.9,56.6,8.5,115-32.3,159.1c-4.9,5.3-0.1,13.6,7,12c32.8-7.6,59.5,1.4,79.4,29.6
			c53.6,76.2-40.3,62-59.9,61.1c-4.9-0.2-6.9,4.1-6.1,7.9c-0.2,1.1-0.1,2.3,0.6,3.4c25.6,41.3-81.5,61.7-101.3,64.7
			c-10.8,1.6-7.2,17.3,2.4,18c64.2,4.3,105.9,35.3,119.6,98.2c0.4,1.8,1.3,3.1,2.4,4c-1,3.7,2.5,8.3,6.5,6.7
			c15.2-5.9,27.4-15.4,43.8-19.2c17.7-4.1,35.4-0.4,52,5.9c0.5,3.1,1.5,4.4,5.1,7.7c0.6,0.6,1.4,0.9,2.2,1c2.8,1.9,6.8,2,8.4-1.9
			c8.6-19.8,18.7-32.3,39.8-38.8c19.5-6,61.7-4.5,77.9,9.7c3.3,2.9,7.6,1.5,9.3-1.6c1.2-0.7,2.2-1.8,2.8-3.4
			c8-21.7,15.2-39.5,27.7-54.9c25.9,18.5,54.3,33.4,84.9,43.5c6.1,2,10.2-7.6,4.4-10.4c-27.6-13.2-53.6-28.2-77.6-45.2
			c4.6-4.1,9.6-8,15.5-11.8c29-18.4,65.2-19.6,98.3-17.6c2.8,0.2,4.7-1.6,5.6-3.8c1.9-0.8,3.4-2.3,3.8-4.4
			c5.3-25.4,5.3-49.3,17-73.3c13.1-26.8,40-43,69.3-43.8c3.9-0.1,5.7-5,4-7.6C746.8,1340.9,747,1330.7,740.2,1328z M634.4,1461.6
			c-38.4-4.4-75.5,1.8-109,22.2c-4.6,2.8-9.1,6.1-13.4,9.9c-14.6-11.2-28.4-23.2-41.2-36c14-18.4,22-41.3,27.3-63.6
			c1.5-6.2-7.5-8.6-9.5-2.6c-6.9,20.3-16.6,39-25.1,58.5c-27.6-29.1-50.6-62.1-67.9-99.4c12-12.8,21-26.7,26.7-43.4
			c1.4-3.9-4.9-6.6-6.7-2.8c-6.5,13-14.6,25.6-24,36.7c-7.8-18.1-14.4-37-19.5-57c-1.3-5.3-9.3-3-8.1,2.2
			c6.8,29.6,17.3,58.7,30.8,86.4c-13.4-0.4-26.9-1.3-40.2,0.6c-4.5,0.6-4.5,8.5,0,9.1c14.3,2,28.7,0.9,43.1,0.5
			c0.8,0,1.5-0.2,2.2-0.5c11.5,22,25,42.9,40.3,62.3c-32.8,8.2-65.7,11.6-99.3,15.3c-5.8,0.6-6.1,9.2,0,9.2
			c34.9,0.2,69.7-7.9,102.7-18.6c0.3-0.1,0.6-0.3,0.8-0.4c16.6,20.4,35.3,39,55.8,55.3c-13.6,15.4-23.7,34.7-25.3,53.9
			c-18.7-13.1-55.3-13.5-73.4-10.4c-21.9,3.7-47.8,16.8-54.5,38.9c-25.9-13.6-69.9-16-95.4,3c-0.6-51.7-45.2-84.8-92.6-98.8
			c39.3-12.9,87.9-36.5,72.4-67.1c40.3,8.3,77.7-9.9,73.3-57.4c-4.2-45.3-47.9-68.4-88.5-66c30.9-44.3,38.8-98,20.6-149.9
			c51.1,22.2,124.7,42.3,170.5,4.1c-1.7,45.9,18.4,104,64.5,120.6c48.9,17.7,79.1-27.6,94.1-70c8.2,10.2,24.6,15.5,38,12.7
			c21.3-4.5,39-26.7,50.1-49.8c-4,62.4,0.3,154.7,64.6,170.5C663.7,1344.4,629.5,1408.9,634.4,1461.6z"/>
		<path fill="#88B738" d="M470.7,1457.7c12.8,12.8,26.6,24.8,41.2,36c4.4-3.7,8.9-7.1,13.4-9.9c14.8-9,30.4-15.2,46.4-18.9
			c-7.9-5.1-15.2-11.1-21.6-18.1c-30.9-33.6-40.2-84.4-26.4-127.8c-11.6,24.6-45.4,35.5-69.2,22.4c-23.8-13.1-32.6-47.6-18-70.5
			c-16.9,13.1-42.4,9.5-59.8-3.1c-17.3-12.6-28.1-32.1-37.2-51.5c2.7,32.5,5.4,65,8.1,97.5c1.1,12.9,2.1,26.4-2.7,38.4
			c-4.8,12.1-17.2,22.1-30,19.7c15.8,11,31.5,21.9,47.3,32.9c3.3,2.3,7,5.2,7.2,9.2c0.3,3.9-2.8,7.2-5.7,9.8
			c-21.6,19-51,28.8-79.6,26.6c24.6,26.2,60.4,38.7,95.7,45.4c20.3,3.9,43,7.3,55.5,23.7c6.2,8.2,8.6,18.9,7.1,29
			c12.1,1.6,23.9,4.8,32.1,10.6c1.5-19.2,11.7-38.5,25.3-53.9c-20.5-16.3-39.1-34.9-55.8-55.3c-0.3,0.2-0.5,0.3-0.8,0.4
			c-33.1,10.7-67.8,18.9-102.7,18.6c-6.1,0-5.8-8.6,0-9.2c33.5-3.7,66.5-7,99.3-15.3c-15.3-19.5-28.8-40.4-40.3-62.3
			c-0.6,0.3-1.3,0.5-2.2,0.5c-14.4,0.4-28.8,1.5-43.1-0.5c-4.5-0.6-4.5-8.5,0-9.1c13.3-1.9,26.8-1,40.2-0.6
			c-13.6-27.7-24-56.8-30.8-86.4c-1.2-5.3,6.8-7.5,8.1-2.2c5.1,20,11.7,39,19.5,57c9.5-11.1,17.5-23.7,24-36.7
			c1.9-3.7,8.1-1.1,6.7,2.8c-5.7,16.7-14.7,30.6-26.7,43.4c17.3,37.4,40.4,70.4,67.9,99.4c8.5-19.5,18.2-38.3,25.1-58.5
			c2-6,11-3.6,9.5,2.6C492.8,1416.4,484.7,1439.3,470.7,1457.7z"/>
		<g>
			<path fill="#DBE270" d="M718.6,1339.6c-64.2-15.8-68.5-108.1-64.6-170.5c-11.1,23.1-28.8,45.3-50.1,49.8
				c-13.4,2.8-29.8-2.4-38-12.7c-15,42.5-45.3,87.7-94.1,70c-46-16.6-66.2-74.8-64.5-120.6c-45.8,38.3-119.4,18.2-170.5-4.1
				c18.2,51.9,10.3,105.6-20.6,149.9c40.6-2.4,84.3,20.7,88.5,66c4.4,47.5-33,65.7-73.3,57.4c1.3,2.6,2,5.2,2.5,7.7
				c37.7,7.2,78.6-20.8,85.5-58.6c6.9-37.9-21.6-78.6-59.5-85.1c15.8-35.2,22.2-74.6,18.3-113c38,14.4,82.1,11.8,118.1-7
				c-4.7,50.7,22,105.7,69.3,124.6c47.3,18.9,110.5-9.4,119.7-59.6c11.6,11.6,32.4,12.1,44.5,1c-3.2,37.9,12.4,76.9,40.9,102.2
				c-38,18.6-43.8,69.7-42,111.9c0.2,4.1,0.4,8.2,0.9,12.3c1.7,0.2,3.4,0.2,5,0.4C629.5,1408.9,663.7,1344.4,718.6,1339.6z"/>
			<path fill="#DBE270" d="M336.6,1567.6c-1.9-13.6-16.5-22.3-30.2-22.6c-13.7-0.3-26.6,5.9-38.9,11.8c-10.4-27.4-32.3-50.3-59.2-62
				c15.1-13.3,24.4-33,25.4-53.1c-5.2,22.5-42.9,39.8-74.7,50.3c47.4,14,92,47.1,92.6,98.8c25.4-19,69.4-16.6,95.4-3
				c6.7-22.1,32.6-35.2,54.5-38.9c3.4-0.6,7.5-1,11.9-1.2C387,1537.2,352.8,1543.6,336.6,1567.6z"/>
		</g>
	</g>
	<g>
		<path fill="#A8CD4A" d="M554.1,229.8c-130.6,41.2-259.5,108-336.4,226.6C138.3,578.7,205.8,758.5,332,820.7
			c-0.3-20.3,0.5-40.7,2-61.2c-3.8-51.6-20.8-98.7-47.1-143.8c-3.1-5.3,4.5-9.3,8-4.7c22.2,29.6,36.6,62.8,44.5,97.8
			c8-55.4,21.9-110.8,40.1-164.6c0.5-48.2-6.6-90.9-23.7-136.3c-1.9-5.1,6.1-8.3,8.6-3.6c17.7,32,27.1,69.7,26.8,106.8
			c16.7-44.6,36.1-87.9,57.4-129.1c-0.2-21,0.6-42.3,3.5-63.1c0.7-5,8.3-3.5,8.5,1.1c0.4,14-0.4,28.3-1.7,42.4
			c8.7-16.1,17.6-31.9,26.7-47.2c2.4-4,8.5-0.4,6.2,3.6c-23.5,41.2-44.7,83.8-62.9,127.5c26.4-23.6,57.9-43.9,91.7-52.3
			c4.7-1.2,8,5.8,3.4,8.1c-38,19-72.5,36.9-103.9,66.1c-13.6,34.9-25.5,70.4-35.1,106.6c-6.9,26.2-12.3,52.3-16.9,78.4
			c28.1-44.4,67.1-82.8,114.9-104.7c5.5-2.5,10,4.8,4.8,8.2c-50.3,32-92.5,68.8-123.4,118.9c-7.4,48.4-12.1,97-16.9,146.3
			c117.5-29,257.5-80.3,292.5-210.4c18.9-70.4-5.1-131-28.5-196.6C590,354.2,568.7,292.7,554.1,229.8z"/>
		<path fill="#516B20" d="M562.5,227.2c2.2-0.7,4.4-1.4,6.6-2.1c8.2-2.5,4.6-13.8-3.5-12.6c-150.2,22.7-317.8,133.4-384.6,272.1
			c-59.7,124.1,27.3,297.1,148.4,345.9c-0.8,3.2,0.4,6.8,3.1,9.1c0.1,3.1,0.1,6.3,0.3,9.4c0.5,7.9,11.4,7.7,12.2,0
			c0.3-3,0.6-5.9,0.9-8.9c117.8-25.4,252.2-78.2,300.9-198.5c26-64.1,19-122.1-4-186.1C615.4,379.6,589.5,303.2,562.5,227.2z
			 M640.1,611.6c-35,130-174.9,181.4-292.5,210.4c4.8-49.3,9.4-97.9,16.9-146.3c30.9-50.2,73.1-86.9,123.4-118.9
			c5.2-3.3,0.7-10.7-4.8-8.2c-47.8,21.9-86.7,60.3-114.9,104.7c4.5-26.1,9.9-52.2,16.9-78.4c9.6-36.2,21.5-71.8,35.1-106.6
			c31.3-29.2,65.9-47.1,103.9-66.1c4.6-2.3,1.3-9.2-3.4-8.1c-33.9,8.5-65.3,28.7-91.7,52.3c18.2-43.8,39.4-86.3,62.9-127.5
			c2.3-4-3.8-7.6-6.2-3.6c-9.2,15.3-18,31.2-26.7,47.2c1.3-14.1,2-28.4,1.7-42.4c-0.1-4.7-7.8-6.1-8.5-1.1
			c-2.9,20.8-3.7,42.1-3.5,63.1c-21.3,41.2-40.7,84.5-57.4,129.1c0.2-37.1-9.1-74.7-26.8-106.8c-2.5-4.6-10.6-1.4-8.6,3.6
			c17,45.4,24.2,88.1,23.7,136.3c-18.2,53.9-32.1,109.2-40.1,164.6c-7.9-35-22.3-68.2-44.5-97.8c-3.5-4.6-11.1-0.6-8,4.7
			c26.2,45.1,43.3,92.2,47.1,143.8c-1.6,20.5-2.3,40.9-2,61.2c-126.2-62.2-193.6-242-114.3-364.3C294.6,337.8,423.5,271,554.1,229.8
			c14.6,62.9,35.9,124.4,57.5,185.1C635,480.6,659.1,541.2,640.1,611.6z"/>
		<path fill="#88B738" d="M567.3,375.3c-23.6,3.1-47.9-0.3-69.8-9.5c13.1-32.5,22.5-66.6,27.8-101.2c-24.7,12.5-46.6,30.6-63.4,52.5
			c-1.5-12-3-24-4.6-36c-21.9,39.2-43.9,78.5-65.8,117.7c-10.2-12.4-18.5-26.4-24.6-41.3c-29.2,23.3-36.7,64.2-39.4,101.5
			c-2.7,37.3-3.3,77.1-24.3,108c-1.3,1.9-3.1,4-5.4,4c-2.6,0-4.4-2.5-5.7-4.7c-6.1-10-12.2-20-18.3-30c-17,43.5-18,93-2.9,137.1
			c6,17.6,14.5,34.3,18.9,52.3c5,20.4,4.5,42.1-1.3,62.3c-0.4,1.3-0.8,2.5-1.2,3.8c13.8,11.2,28.7,20.8,44.6,28.6
			c-0.3-20.3,0.5-40.7,2-61.2c-3.8-51.6-20.8-98.7-47.1-143.8c-3.1-5.3,4.5-9.3,8-4.7c22.2,29.6,36.6,62.8,44.5,97.8
			c8-55.4,21.9-110.8,40.1-164.6c0.5-48.2-6.6-90.9-23.7-136.3c-1.9-5.1,6.1-8.3,8.6-3.6c17.7,32,27.1,69.7,26.8,106.8
			c16.7-44.6,36.1-87.9,57.4-129.1c-0.2-21,0.6-42.3,3.5-63.1c0.7-5,8.3-3.5,8.5,1.1c0.4,14-0.4,28.3-1.7,42.4
			c8.7-16.1,17.6-31.9,26.7-47.2c2.4-4,8.5-0.4,6.2,3.6c-23.5,41.2-44.7,83.8-62.9,127.5c26.4-23.6,57.9-43.9,91.7-52.3
			c4.7-1.2,8,5.8,3.4,8.1c-38,19-72.5,36.9-103.9,66.1c-13.6,34.9-25.5,70.4-35.1,106.6c-6.9,26.2-12.3,52.3-16.9,78.4
			c28.1-44.4,67.1-82.8,114.9-104.7c5.5-2.5,10,4.8,4.8,8.2c-50.3,32-92.5,68.8-123.4,118.9c-7.4,48.4-12.1,97-16.9,146.3
			c20.5-5.1,41.6-10.8,62.8-17.5c-6.2-10.4-7.1-24.4-6.5-37c1.2-26.8,6.1-53.9,18.8-77.5c14.3-26.5,37.4-46.9,57.2-69.6
			c23.9-27.5,43.3-58.9,57.1-92.7c-15,2.7-30.3,3.3-45.4,1.8c-5.4-0.5-11.2-1.5-15.3-5.1c-11-9.6-2.5-27.4,6.4-39
			C510.9,448.6,539.1,412,567.3,375.3z"/>
		<path fill="#DBE270" d="M554.1,229.8c-130.6,41.2-259.5,108-336.4,226.6c-45.7,70.5-42.6,160-7.7,235.2
			c-4.4-30.5-3.5-62.7-2.2-93.5c1.9-43.6,4.2-89,25.4-127.2c11.2-20.2,27.2-37.3,43.5-53.6c74.8-74.6,163.8-139.1,266.3-164.6
			c18.3,135,98.3,263.2,82.4,397.7c6-12.1,10.9-25.1,14.7-38.9c18.9-70.4-5.1-131-28.5-196.6C590,354.2,568.7,292.7,554.1,229.8z"/>
	</g>
	<g>
		<path fill="#A8CD4A" d="M1063.4,329.1c-49.8,44-92.5,98-113.2,162c-17.8,54.9-21.7,108.9-21,164.5c14.6-22,30.4-43.4,46.7-64.1
			c10.4-59.4,33.7-119.5,62.2-172.3c3.2-5.9,13.6-1.7,10.9,4.6c-19.8,47.7-36.8,95.8-54.1,144.1c17.6-21.3,35.6-41.9,53.3-61.4
			c22.8-25.3,46.5-49.5,71-73c5.9-32.3,15.4-63.8,31.6-92.5c3.6-6.3,14.6-2,11.9,5c-8.9,22.8-17.3,45.5-23.8,68.9
			c33.2-30.6,67.9-59.4,104.1-86.5c-0.5-1.1-0.7-2.4-0.2-3.8c7.2-21.9,20.6-44.4,37-60.6c3.7-3.6,9.6,1,7.1,5.5
			c-8.6,15.1-17.1,30.1-25.3,45.3c7.3-5.3,14.6-10.5,22-15.6c6-4.1,11.2,5.4,5.6,9.6c-27,20.3-53.5,41.5-79.2,63.5
			c25.2-6,48.7-15.4,73-26c5.7-2.5,10.4,4.9,5,8.5c-27.4,18.2-60.6,27-93,30.5c-21.6,19-42.6,38.6-63,58.8c-0.1,0.4-0.2,0.8-0.3,1.2
			c-0.7,3.7-3.3,5.2-6.1,5.2c-22.2,22.3-43.8,45.3-64.3,69.2c-9.1,10.6-17.8,21.4-26.2,32.3c60.8-20.7,113.6-48.3,168.9-82.1
			c5.9-3.6,12.8,5,7.5,9.7c-50.8,44.9-120.4,75.8-186.7,88.7c-0.8,0.1-1.4,0.1-2.1,0c-30.8,41.4-58.4,84.5-86.7,127.4
			c57-7.4,113-3.4,169.7-23.2c66.4-23.1,129.6-58.9,179.2-109.4c26.6-27,53.7-57,68.7-92.4c16.6-39.2,20-79.8,27.7-121.1
			c9.8-52.4,27.4-103,56.9-147.2c-63,9.1-126.6,9.8-188.7,28.9C1182.5,251.8,1116.6,282.1,1063.4,329.1z"/>
		<path fill="#516B20" d="M1467.3,179.7c-72.3-10.3-154.7,8.1-224.1,27.7c-72.5,20.4-139.3,56.4-197,104.5
			c-105.8,88.2-158.9,234.3-133.6,369.9c-14.2,23.6-26.9,47.7-37.1,72.2c-4.2,10,10.9,14.5,16.3,6.9c10.9-15.3,21.4-30.7,31.7-46.2
			c0.9,0.2,1.8,0.2,2.6,0.1c53.4,14.2,121.4-3.2,172.4-18.1c62.7-18.3,120.1-51.4,170.6-92.2c54.8-44.3,99.6-102.4,117.4-171.1
			c10.5-40.6,11.9-83.1,22.3-123.8c10.1-39.6,29-75.2,49.1-110.3c3.1-0.6,6.3-1.1,9.4-1.7C1475.9,195.8,1476.4,181,1467.3,179.7z
			 M1381.6,349.5c-7.8,41.3-11.1,81.9-27.7,121.1c-15,35.3-42.2,65.3-68.7,92.4c-49.6,50.5-112.8,86.3-179.2,109.4
			c-56.7,19.8-112.7,15.8-169.7,23.2c28.3-43,55.8-86,86.7-127.4c0.7,0.1,1.3,0.1,2.1,0c66.3-12.9,135.9-43.8,186.7-88.7
			c5.3-4.7-1.6-13.4-7.5-9.7c-55.3,33.7-108.1,61.3-168.9,82.1c8.5-10.9,17.1-21.7,26.2-32.3c20.5-23.9,42.1-46.9,64.3-69.2
			c2.8,0,5.4-1.5,6.1-5.2c0.1-0.4,0.2-0.8,0.3-1.2c20.4-20.2,41.4-39.8,63-58.8c32.5-3.5,65.7-12.3,93-30.5c5.4-3.6,0.8-11-5-8.5
			c-24.3,10.7-47.8,20-73,26c25.8-22,52.2-43.2,79.2-63.5c5.6-4.2,0.4-13.8-5.6-9.6c-7.4,5.1-14.7,10.4-22,15.6
			c8.3-15.2,16.7-30.2,25.3-45.3c2.6-4.5-3.4-9.1-7.1-5.5c-16.4,16.2-29.7,38.7-37,60.6c-0.5,1.4-0.3,2.7,0.2,3.8
			c-36.2,27.1-70.9,55.9-104.1,86.5c6.5-23.4,14.8-46.1,23.8-68.9c2.7-7-8.3-11.3-11.9-5c-16.3,28.7-25.7,60.2-31.6,92.5
			c-24.4,23.4-48.2,47.7-71,73c-17.6,19.5-35.6,40.1-53.3,61.4c17.2-48.4,34.2-96.4,54.1-144.1c2.6-6.3-7.8-10.5-10.9-4.6
			c-28.5,52.8-51.8,112.9-62.2,172.3c-16.4,20.8-32.2,42.2-46.7,64.1c-0.7-55.6,3.2-109.6,21-164.5c20.8-64,63.4-118,113.2-162
			c53.2-47,119.1-77.3,186.4-97.9c62.1-19.1,125.7-19.7,188.7-28.9C1409,246.6,1391.4,297.1,1381.6,349.5z"/>
		<g>
			<path fill="#88B738" d="M1246.9,468.4c-11.2,3.3-23,4.4-34.6,3.5c1.6,2.3,1.8,5.4-0.7,7.6c-50.8,44.9-120.4,75.8-186.7,88.7
				c-0.8,0.1-1.4,0.1-2.1,0c-30.8,41.4-58.4,84.5-86.7,127.4c28.7-3.7,57.2-4.6,85.5-7c0-1.8,0.1-3.5,0.3-5.2
				c3.9-29.7,26.1-54,51-70.7c24.9-16.7,53.1-27.9,78.2-44.2C1190.1,543.1,1220.1,506.4,1246.9,468.4z"/>
			<path fill="#88B738" d="M1277.5,343.4c1.4-11.3,4.6-22.2,9.2-32.6c-26.1,19.7-51.7,40.2-76.6,61.5c25.2-6,48.7-15.4,73-26
				c5.7-2.5,10.4,4.9,5,8.5c-27.4,18.2-60.6,27-93,30.5c-21.6,19-42.6,38.6-63,58.8c-0.1,0.4-0.2,0.8-0.3,1.2
				c-0.7,3.7-3.3,5.2-6.1,5.2c-22.2,22.3-43.8,45.3-64.3,69.2c-9.1,10.6-17.8,21.4-26.2,32.3c60.2-20.5,112.6-47.8,167.4-81.1
				c-5-0.9-9.9-2.2-14.6-3.8c56.5-23.9,105-66.4,136-119.4C1308.8,343.2,1293,341.9,1277.5,343.4z"/>
			<path fill="#88B738" d="M1230.1,293.4c-21.2,17.1-42.3,34.2-63.5,51.4c-0.3-12.6-0.6-25.1-0.9-37.7c-31.1,21.2-55.6,52-69.3,87.1
				c-4.8,12.4-15.8,28.5-27.1,21.5c2.1-10.7,4.2-21.5,6.3-32.2c-54.8,35-97.9,87.7-121.4,148.4c-2.6,6.8-5.1,13.9-10.2,19.1
				c-2.4,2.5-5.7,4.4-9.1,5.3c-5,32.9-6.3,65.8-5.9,99.4c14.6-22,30.4-43.4,46.7-64.1c10.4-59.4,33.7-119.5,62.2-172.3
				c3.2-5.9,13.6-1.7,10.9,4.6c-19.8,47.7-36.8,95.8-54.1,144.1c17.6-21.3,35.6-41.9,53.3-61.4c22.8-25.3,46.5-49.5,71-73
				c5.9-32.3,15.4-63.8,31.6-92.5c3.6-6.3,14.6-2,11.9,5c-8.9,22.8-17.3,45.5-23.8,68.9c33.2-30.6,67.9-59.4,104.1-86.5
				c-0.5-1.1-0.7-2.4-0.2-3.8c7.2-21.9,20.6-44.4,37-60.6c3.7-3.6,9.6,1,7.1,5.5c-8.6,15.1-17.1,30.1-25.3,45.3
				c7.3-5.3,14.6-10.5,22-15.6c3.3-2.3,6.3-0.4,7.5,2.5c9.5-17.5,23.2-32.7,39.9-43.4C1296.1,244.8,1259.2,269.8,1230.1,293.4z"/>
		</g>
		<path fill="#DBE270" d="M1063.4,329.1c-17,15-33.1,31.2-47.8,48.5c3-2.1,5.9-4.1,8.9-6.1c115-78.4,243.1-150.6,382.2-152.1
			c-21.6,13.9-32.8,39.6-37.4,64.9c-4.6,25.3-3.7,51.3-7.4,76.7c-4.2,29.1-14.2,57-24.3,84.6c-13.1,35.8-26.5,72-48.4,103.2
			c-12.9,18.3-28.5,34.5-44.7,50.1c14.3-11.1,28-23,40.7-36c26.6-27,53.7-57,68.7-92.4c16.6-39.2,20-79.8,27.7-121.1
			c9.8-52.4,27.4-103,56.9-147.2c-63,9.1-126.6,9.8-188.7,28.9C1182.5,251.8,1116.6,282.1,1063.4,329.1z"/>
	</g>
	<g>
		<path fill="#A8CD4A" d="M1647.8,410.5c5.7,1.2,5.7,10.3,0,11.5c-12.8,2.7-25.2,2.8-38,2.7c18,64.4,49.1,117.9,83.6,174.8
			c4.9,0.9,9.7,1.9,14.6,3.1c8.4,2,6.4,14.8-2,14.9c-11.7,0.1-23-0.7-34.4-1.8C1733,732.4,1866,778.1,1988,732
			c-10.3-21.9-20.2-44.1-31.5-65.1c-0.8-1.4-1.6-2.9-2.3-4.3c-36.6-34.3-79.6-50.6-131.5-52.1c-7.1-0.2-6.7-10,0-10.7
			c40.8-4.5,82.5,8.6,115.3,33.3c-14.3-25.7-29.2-51.1-44.8-76c-11.6-18.4-23.5-36.6-35.8-54.6c-0.9,0.2-1.9,0.2-2.8-0.4
			c-14.8-8.4-28.9-17.9-44.2-25.4c-15.3-7.6-31.5-12.8-46.7-20.3c-4.7-2.3-1.2-9,3.4-8.1c26.2,5.2,54.7,19.4,77.7,35.9
			c-34.6-49.4-71.6-97.1-110.6-143.2c-2.7-3.2,1.8-7.8,4.6-4.6c24.5,27.8,48,56.4,70.9,85.5c-7.9-21.9-14.1-44.3-17.4-67.4
			c-0.5-3.8,4.9-5.5,5.9-1.6c6.8,28.3,14.5,56.3,25.4,83.4c0.5,1.2,0.4,2.2-0.1,3c28,36.3,54.7,73.6,80,111.9
			c2.8,4.3,5.7,8.6,8.6,12.9c-11.1-43.4-12.4-92.2-2.7-134.3c1.3-5.6,10.5-4.4,10.1,1.4c-3.2,53.4-1.4,101.1,6.6,153.9
			c28.2,42.2,57.5,87,80.4,133c29.8-60.2,61.5-117.7,56.2-189c-2.7-36.6-11.5-74.4-31.4-105.9c-8.7-13.7-17.8-27.4-29.8-38.5
			c-20.4-18.7-29.2-25.8-41.4,7.1c0.3,1.6,0.8,3.2,1.1,4.9c1.6,9.1-10.5,15.4-15.6,6.6c-16.3-28.3-25.8-58.9-45.9-85.2
			c-21.1-27.8-46.3-50.8-75.3-69.9c-0.8,12.5-0.9,24.9-0.2,37.5c4.5,3.8,8.9,7.6,13.2,11.6c5.5,5.2-1.6,14.1-8,10.4
			c-37.9-22.1-73.5-48.1-111.7-70.1c-32.8-18.9-68.9-44.8-106.7-51.6c-31.5-5.7,16.1,180.9,27.9,223.3
			C1641.6,409.4,1644.7,409.8,1647.8,410.5z M1731.6,356.6c11.5,5.9,23,13.8,33.1,21.8c2.5,2-0.7,5.6-3.3,4.3
			c-11.6-5.9-23.3-13.3-33.5-21.3C1725.1,359.1,1728.7,355.1,1731.6,356.6z"/>
		<path fill="#516B20" d="M1625.2,407.9c-8.8-0.3-17.6-0.1-26.6-0.1c-5.6,0-9.5,5.4-8.1,10.7c15.9,62.6,42.6,128.5,85.5,178.3
			c-7-0.9-13.9-1.8-21.1-2.7c-8.2-1-11.2,8.9-8.5,14.9c60.5,132.9,215.1,194.1,346.8,133.9c0.2,0.5,0.5,1,0.7,1.5
			c-0.6,4.1,1.7,8,4.9,9.8c6.9,13.7,14.1,27.1,22.3,39.9c4.5,6.9,16.2,2.6,13.6-5.7c-4.8-15.7-10.7-31.3-17.5-46.7
			c86.9-112.7,96.8-312.4-36.7-392.9c-2.9-1.7-6.8-1.2-9.1,1.2c-7.8,8-13.1,15.4-16.7,24.1c-21-59.9-81.1-112.4-132.8-141.4
			c-4-2.2-8.4,0.6-8.7,5c-0.7,13.6-0.4,26.8,0.8,40.1c-35.9-27.9-77.7-49.6-116.6-72c-30.3-17.5-72.4-45.4-109.1-38.4
			c-3,0.6-5.5,3.5-6.3,6.3c-8.8,32.9,1.1,73.9,6.2,107.2C1594.8,324.1,1606.8,367.8,1625.2,407.9z M1610.6,185.7
			c37.8,6.8,73.9,32.7,106.7,51.6c38.2,22,73.7,48,111.7,70.1c6.5,3.8,13.5-5.2,8-10.4c-4.2-4-8.7-7.8-13.2-11.6
			c-0.7-12.5-0.6-24.9,0.2-37.5c28.9,19.1,54.1,42.2,75.3,69.9c20.1,26.4,29.6,57,45.9,85.2c5.1,8.9,17.1,2.5,15.6-6.6
			c-0.3-1.6-0.7-3.2-1.1-4.9c12.2-33,21.1-25.9,41.4-7.1c12,11.1,21.2,24.8,29.8,38.5c19.9,31.5,28.7,69.3,31.4,105.9
			c5.3,71.2-26.4,128.7-56.2,189c-22.9-46.1-52.2-90.8-80.4-133c-7.9-52.8-9.7-100.5-6.6-153.9c0.3-5.8-8.8-7-10.1-1.4
			c-9.7,42.2-8.4,91,2.7,134.3c-2.9-4.3-5.7-8.6-8.6-12.9c-25.3-38.3-52.1-75.6-80-111.9c0.5-0.8,0.6-1.8,0.1-3
			c-10.9-27.1-18.6-55-25.4-83.4c-0.9-3.9-6.4-2.2-5.9,1.6c3.3,23.2,9.5,45.5,17.4,67.4c-22.9-29.1-46.4-57.7-70.9-85.5
			c-2.8-3.2-7.3,1.4-4.6,4.6c39.1,46.1,76,93.8,110.6,143.2c-23.1-16.5-51.5-30.7-77.7-35.9c-4.6-0.9-8.1,5.7-3.4,8.1
			c15.2,7.5,31.4,12.7,46.7,20.3c15.3,7.6,29.4,17,44.2,25.4c0.9,0.5,1.9,0.6,2.8,0.4c12.3,18,24.2,36.2,35.8,54.6
			c15.7,24.9,30.5,50.3,44.8,76c-32.8-24.6-74.4-37.8-115.3-33.3c-6.7,0.7-7.1,10.5,0,10.7c51.9,1.5,95,17.8,131.5,52.1
			c0.8,1.4,1.6,2.9,2.3,4.3c11.3,21,21.2,43.2,31.5,65.1c-122,46.2-255,0.4-316.4-116.4c11.4,1.1,22.7,1.9,34.4,1.8
			c8.4-0.1,10.4-12.8,2-14.9c-4.9-1.2-9.8-2.2-14.6-3.1c-34.5-56.9-65.6-110.3-83.6-174.8c12.8,0.1,25.2,0,38-2.7
			c5.7-1.2,5.7-10.3,0-11.5c-3.1-0.7-6.2-1.1-9.3-1.5C1626.7,366.5,1579.1,180,1610.6,185.7z"/>
		<path fill="#516B20" d="M1761.4,382.7c2.6,1.3,5.9-2.3,3.3-4.3c-10.2-8-21.6-15.9-33.1-21.8c-2.9-1.5-6.5,2.5-3.7,4.8
			C1738.1,369.4,1749.9,376.7,1761.4,382.7z"/>
		<g>
			<path fill="#88B738" d="M1682.8,280.9c-3.5-2.1-7.3-3.7-11.3-4.3C1675.4,277.7,1679.1,279.2,1682.8,280.9z"/>
			<path fill="#88B738" d="M1925.7,584.9c28.2,42.2,57.5,87,80.4,133c10.7-21.7,21.7-43,31.1-64.7c-4.3,0.9-8.8,1.1-13.1,0.3
				c-19.5-3.8-33.9-20.3-44.2-37.2c-29.2-47.5-39-104.1-48.2-159.2c-4-24.1-8.1-48.3-12.1-72.4c-2.4,20.9-26.2,34.9-47,31.4
				c-20.8-3.4-37.4-20.3-46.3-39.4c-8.9-19.1-11.3-40.5-13.6-61.5c-15.3,22.2-50,18.1-73,4.1c-19.5-11.9-36.3-29-56.8-38.4
				c9,5.5,15.5,15.4,15.9,26.1c0.6,14.7-10.2,29.1-24.6,32.6c24.5,8.5,42,34.1,40.9,60.1c-5.6,3.3-11.2,6.7-16.8,10
				c47.6,29.8,85.7,74.6,107.5,126.4c2.4,5.8,4.7,12,4,18.2c-2,16.3-21.6,22.9-37.7,26c29,16.4,55.7,36.6,79.3,60.1
				c11.7,11.7,22.7,24.2,31,38.6c12.2,21.3,17.1,46.2,15.3,70.6c30-0.6,60.6-6.3,90.5-17.6c-10.3-21.9-20.2-44.1-31.5-65.1
				c-0.8-1.4-1.6-2.9-2.3-4.3c-36.6-34.3-79.6-50.6-131.5-52.1c-7.1-0.2-6.7-10,0-10.7c40.8-4.5,82.5,8.6,115.3,33.3
				c-14.3-25.7-29.2-51.1-44.8-76c-11.6-18.4-23.5-36.6-35.8-54.6c-0.9,0.2-1.9,0.2-2.8-0.4c-14.8-8.4-28.9-17.9-44.2-25.4
				c-15.3-7.6-31.5-12.8-46.7-20.3c-4.7-2.3-1.2-9,3.4-8.1c26.2,5.2,54.7,19.4,77.7,35.9c-34.6-49.4-71.6-97.1-110.6-143.2
				c-2.7-3.2,1.8-7.8,4.6-4.6c24.5,27.8,48,56.4,70.9,85.5c-7.9-21.9-14.1-44.3-17.4-67.4c-0.5-3.8,4.9-5.5,5.9-1.6
				c6.8,28.3,14.5,56.3,25.4,83.4c0.5,1.2,0.4,2.2-0.1,3c28,36.3,54.7,73.6,80,111.9c2.8,4.3,5.7,8.6,8.6,12.9
				c-11.1-43.4-12.4-92.2-2.7-134.3c1.3-5.6,10.5-4.4,10.1,1.4C1916,484.4,1917.8,532,1925.7,584.9z M1764.7,378.4
				c2.5,2-0.7,5.6-3.3,4.3c-11.6-5.9-23.3-13.3-33.5-21.3c-2.8-2.2,0.8-6.3,3.7-4.8C1743.1,362.5,1754.6,370.3,1764.7,378.4z"/>
		</g>
		<path fill="#DBE270" d="M2031,423c-8.7-13.7-17.8-27.4-29.8-38.5c-20.4-18.7-29.2-25.8-41.4,7.1c0.3,1.6,0.8,3.2,1.1,4.9
			c1.6,9.1-10.5,15.4-15.6,6.6c-16.3-28.3-25.8-58.9-45.9-85.2c-21.1-27.8-46.3-50.8-75.3-69.9c-0.8,12.5-0.9,24.9-0.2,37.5
			c4.5,3.8,8.9,7.6,13.2,11.6c5.5,5.2-1.6,14.1-8,10.4c-37.9-22.1-73.5-48.1-111.7-70.1c-32.8-18.9-68.9-44.8-106.7-51.6
			c-31.5-5.7,16.1,180.9,27.9,223.3c3.1,0.4,6.2,0.8,9.3,1.5c5.7,1.2,5.7,10.3,0,11.5c-12.8,2.7-25.2,2.8-38,2.7
			c18,64.4,49.1,117.9,83.6,174.8c4.9,0.9,9.7,1.9,14.6,3.1c8.4,2,6.4,14.8-2,14.9c-11.7,0.1-23-0.7-34.4-1.8
			c28.4,53.9,72,92.7,122.7,114.2c-36.3-22.8-66.9-54.9-87.2-92.8c12.2,2,28.8,1.4,32-10.6c-57.9-44.4-95.3-114.4-100-187.2
			c8.7-3.6,17.4-7.2,26.1-10.8c-13.8-55.8-27.3-111.6-40.5-167.5c-3-12.6-5.9-25.2-8.8-37.8c-1-4.3-1.9-9,0.2-12.8
			c5.1-9.5,19.5-3.9,28.1,2.6c61.2,46.1,128.5,84,199.7,112.4c0.2-12.5,0.4-25.1,0.6-37.6c29,9.3,49.4,35.4,63.2,62.5
			c13.9,27.1,23.1,56.6,39.9,82c1.8,2.7,3.7,5.4,6.7,6.7c8.2,3.6,15.9-6.3,17.7-15.1c1.8-8.7,2.2-19.2,9.7-24.1
			c44.8,37.8,66.7,92.4,81,150.4c0.2-7,0.1-14-0.4-21.2C2059.6,492.3,2050.9,454.5,2031,423z"/>
	</g>
</g>
</svg>
