<?xml version="1.0" encoding="utf-8"?>
<!-- Generator: Adobe Illustrator 20.1.0, SVG Export Plug-In . SVG Version: 6.00 Build 0)  -->
<svg version="1.1" xmlns="http://www.w3.org/2000/svg" xmlns:xlink="http://www.w3.org/1999/xlink" x="0px" y="0px"
	 viewBox="0 0 1000 1000" style="enable-background:new 0 0 1000 1000;" xml:space="preserve">
<g id="Layer_2">
	<g id="Layer_2_1_">
		<rect x="-28.1" y="-29.9" style="fill:#FFFFFF;" width="1056.2" height="1059.8"/>
	</g>
</g>
<g id="Layer_3">
	<g>
		<path style="fill:#4E8C7C;" d="M60.9,57C50.4,32.4,28.3,14.5,15.9-9.2C9.3-21.8,5.6-35.7-0.4-48.6
			c-19.2-41.1-61.1-68.3-105.2-78.9c-17.3-4.2-35.5-6.3-51-15.2c-15.8-9.1-27.4-25.2-31-43c10,16.5,26.3,30,45.4,32.7
			c17.8,2.6,35.7-4.3,53.6-2.7c22.8,2,42.3,17.3,57,34.9S3.3-86.1,18.6-69c13.4,15,21,30.3,39,39.2c-1.1,22.1-0.1,44.3,3,66.2
			C57.1,41.9,56.4,52.2,60.9,57z"/>
		<path style="fill:#1F7A87;" d="M36.1,29.8c-6-7.4-11.8-15-16.4-23.4C15.6-1,12.6-9,9.2-16.7C4.4-27.6-1.2-38.1-7.5-48.2
			C-14-58.5-21.3-68.5-31.2-75.6c-7.5-5.4-16.2-9-24.8-12.5c-12.6-5.1-25.2-10.2-38.4-13.3c-13.9-3.3-29.6-4.1-41.2,4.1
			c3.6-10.1,10.3-19.6,20.1-23.8c7-3,14.9-3.1,22.4-2.3c14.9,1.6,29.5,6.5,42.4,14.2c13.3,7.9,24.6,18.7,35.3,29.9
			C2.4-60.7,18.7-40.8,33.4-19.7C42.6-6.6,51.4,7.4,54.9,23.1c1.4,6.2,10,29,6.1,33.9C53,50.4,42.6,37.9,36.1,29.8z"/>
		<path style="fill:#80C49D;" d="M70-59c-2.9-30.2-17.4-58-25-87.5s-6.7-64.7,15.7-85.3c-7.8,24.2-7.6,50.9,0.5,74.9
			c6.2,18.4,16.8,35.1,22.6,53.7C88.9-86.5,90-69,91-51.7c1.2,19.2,2.4,38.6-0.7,57.5c-2.3,14.4-9.7,48.5-24.3,54.9
			C53.7,26.6,73.5-23.2,70-59z"/>
		<path style="fill:#4EADA1;" d="M46.1-14.3c1.1-16.2,5.3-33-0.4-48.1c-3.5-9.4-10.3-17-16.3-25C-3.4-130.8-14.4-189.9,0.5-242.3
			c-10.7,26.5,0.5,56.9,16.4,80.7S53.5-116.9,65-90.8c16.6,37.8,11.6,81,6.4,122c-1.1,9-0.6,22.2-5.3,29.5
			C46.2,50.5,44.8,5.1,46.1-14.3z"/>
	</g>
	<g>
		<path style="fill:#A3D3C4;" d="M147.7,60.1c-3.7-4.1-5.8-10-4.1-15.3c2.3-7.1,10.6-10.9,12.7-18.1c2.9-10.1-8.3-20.6-4.7-30.5
			c2.8-7.6,12.4-9.6,20.5-10.2c8.1-0.6,17.5-1.8,21.3-8.9c3-5.7,1.3-13.8,6.2-18c4.7-4.1,13-1.9,17.3-6.4c3.6-3.9,2.2-10.1,0.4-15.1
			c-1.8-5-3.7-11-0.5-15.2c3.2-4.3,10-4.3,13.6-8.3c3.3-3.6,2.8-9.1,3-14c0.3-7.5,2.7-14.9,7-21.1c2.2-3.2,5.3-6.4,9.2-6.4
			c4,0,7.2,3.2,9.3,6.6c5.5,9.1,5.9,20.3,5.3,30.8c-0.2,3.5-0.4,7.1,0.3,10.6c1.2,5.8,4.8,10.7,7.5,15.9s4.3,11.8,1.3,16.9
			c-4.2,7.3-15.6,8-19.5,15.5c-2.8,5.5-0.2,12.4-1.7,18.4c-1.9,7.8-9.9,12.3-17.2,15.5c-7.3,3.2-15.5,6.7-18.8,14
			c-2.6,5.7-1.6,12.6-4.5,18.2c-4.7,9.1-17,10.7-24.7,17.4c-4.4,3.8-7.1,9.2-11.3,13.3C166.4,74.4,154.9,68.2,147.7,60.1z"/>
		<path style="fill:#60AAA4;" d="M157.4,47.5c1.5-3.8,2.6-8.1,1.2-11.9c-1.3-3.5,1.2-7.2,4.1-9.6s6.2-4.6,7.4-8.1
			c1.8-5.1-1.2-12.5,3.4-15.2c3.2-1.9,7.6,0.5,10.9-1.2c4.5-2.2,3.4-9,6.4-13c3.8-5,12.4-3.4,16.8-7.9c4.4-4.5,2.3-12.7,6.2-17.7
			c3-3.9,8.7-4.8,11.9-8.4c5.7-6.4,1.3-17,5-24.7c1.8-3.7,5.3-6.3,8.3-9.1c8.2-8,12.6-19,16.8-29.7c1.3,17.9,1.1,35.9-0.6,53.8
			c-0.2,2.2-0.5,4.5-1.5,6.5c-2.8,5.6-10.6,7.7-12.2,13.7c-0.8,3.1,0.3,6.5-0.7,9.6c-2.1,6.6-11.9,7-15.7,12.8
			c-1.1,1.7-1.5,3.6-2.2,5.5c-2,5.2-5.9,9.6-10.8,12.2c-3.4,1.8-7.2,2.7-10.3,5c-3.1,2.2-5.3,6.5-3.5,9.9c2.1,3.8-2.4,8-6.5,9.5
			c-4.1,1.5-9.2,3.1-10.1,7.3c-0.6,3.1,1.4,6.5,0,9.4c-1.9,3.8-9.1,4.6-8.3,8.8c1.2,6.3-4.8,16.4-12.3,14.5
			C151.1,66.8,154.9,53.9,157.4,47.5z"/>
		<path style="fill:#247F8E;" d="M171.3,29.8C184.4,8,203.4-9.5,218.9-29.6c13.8-17.7,24.8-37.4,35.8-56.9
			C242.3-54.7,224.4-25.1,202,0.8c-6.6,7.6-13.6,15-19.3,23.4c-14.9,22.3-14.2,46.6-21.5,71C149,77.9,161.7,45.7,171.3,29.8z"/>
	</g>
	<g>
		<path style="fill:#1E7786;" d="M276.5,320.2c8.3-18.1,11.2-38.1,18.3-56.7c7.1-18.6,20.2-36.8,39.5-41.4
			c-10.5,12.8-21.1,25.8-27.4,41.1c-6.8,16.3-8.4,34.1-11.6,51.4c-3.3,17.3-8.8,35.1-21.4,47.4c-13.5,13.1-34.3,19.2-52.5,21.8
			c-2.5-14.9,6.5-21.6,18.2-27.5C256,347.9,268.6,337.4,276.5,320.2z"/>
		<path style="fill:#5B9C89;" d="M173.3,355.8c-4.6-17.4-11.9-34.1-14.9-51.9c-4.2-24.7,0.4-50.9,12.8-72.7
			c-9.5,14.8-6.5,34.5,0.3,50.8c6.8,16.2,17.1,31,22,48c6,20.7,1.6,66.3-21.3,76.9c-0.5-7.2,5-16,5.1-24
			C177.3,373.7,175.6,364.6,173.3,355.8z"/>
		<path style="fill:#51A288;" d="M190.1,194.5c-11-20.8-28-37.7-41.9-56.6s-25.3-41.8-22.2-65.1c0.3,12.3,4.8,24.5,12.5,34.1
			c5.2,6.5,11.9,11.8,18.1,17.4c48.7,43.5,77.2,108.8,76.1,174.1c-0.2,10.8-1.2,21.9-6.5,31.3c-11-2.1-14.6-48.4-16.8-60
			C204.3,243.8,202.6,218.3,190.1,194.5z"/>
		<path style="fill:#48ADA3;" d="M204,279.4c-6.6-27.6-30.4-47.9-40.7-74.4c24.8,21.4,48.4,46.7,57.5,78.2
			c5.1,17.7,4.9,36.7,0.2,54.5c-3.1,11.8-18,64.2-32.4,66.5c-17.5,2.8,6.2-55.8,8.8-64C203.4,320.6,208.9,299.9,204,279.4z"/>
		<path style="fill:#80C49A;" d="M205.1,368.2c4.1-9.7,5.4-20.3,9.2-30c5.2-13.3,14.9-24.7,19.4-38.3c4.1-12.4,3.5-25.8,2.8-38.8
			c-0.9-19.3-1.9-38.7-5.3-57.7c-2.5-13.7-6.2-27.2-6.8-41c-1.3-30.4,13.9-61,38.8-78.4c-10.5,11-15.3,26.4-16.2,41.6
			s1.7,30.3,4.3,45.2c3.3,19,6.6,38.1,10,57.1c2.5,14.1,4.9,28.2,4.9,42.5c0,13.4-2.3,26.8-5.7,39.8c-6.2,23.6-16.4,46.5-32.1,65.1
			c-9.6,11.4-34.7,36.7-51.6,35c-13.2-1.3,4.3-11.4,8.6-15.5C193.6,387.2,200.8,378.6,205.1,368.2z"/>
	</g>
	<g>
		<path style="fill:#A3D3C4;" d="M18,242.2c0.4-2.3,1.2-4.5,0.8-6.8c-1.3-6.2-10.1-6.8-14.3-11.5c-8.9-9.9,8.7-27.8,0.1-38
			c-4.7-5.5-14.9-4.7-18.3-11.1c-3.3-6.4,2.8-13.4,4.1-20.5c2.2-11.5-8.6-20.8-16.5-29.5c-4.9-5.5-9.1-11.9-10.4-19.2
			c-1.2-7.3,1-15.4,6.9-19.8c9.5-7,22.8-2,33.4,3.2c6.7,3.3,13.3,6.5,20,9.8c13.8,6.7,29.2,15.6,31.9,30.7
			c2.1,11.5-4.1,23.9,0.3,34.8c3.9,9.7,15.8,16.7,14.2,27c-0.9,6-6.5,11.4-4.5,17.1c1.7,4.9,8.1,6.9,10,11.8
			c3.3,8.5-9.7,17.2-6.1,25.6c0.9,2.1,2.7,3.6,4.1,5.4c12,15.3-5.2,30-20.2,25.5C38.4,272,14.4,262,18,242.2z"/>
		<path style="fill:#60AAA4;" d="M29,240c-1-3.3,0.9-6.7,1.3-10.1c0.9-9.3-9.7-15.6-12.4-24.5c-2.9-9.5,3.3-20.9-2.1-29.3
			c-2.2-3.5-6.1-5.7-8.4-9.1c-5.6-8.7,1.2-20.9-2.7-30.5c-2.4-6.2-8.7-10-11.7-15.9c-2.5-4.9-2.4-10.7-3.5-16.1s-3.9-11.2-9.2-12.7
			c14.3,7.7,29.4,16.2,37,30.5c1.8,3.4,3.2,7.1,5.7,10c3.6,4.1,8.9,6.2,13.2,9.6c5.6,4.6,9,11.9,8.9,19.2c-0.1,5-1.7,10.6,1.1,14.8
			c2.7,4.2,8.8,5.4,11.1,9.9c3,5.9-2.4,12.6-2.8,19.2c-0.6,9,8.3,16.3,8.6,25.3c0.2,5.6-2.9,11.4-0.8,16.9c1.2,3.2,6.4,4.8,6.6,8.3
			c0.3,5.9-6.3,8.6-11,10c-5.8,1.8-14.9,2.5-19.9-1.8c-4.5-3.9-2.4-6-3.5-10.9C33.3,247.8,30.4,244.9,29,240z"/>
		<path style="fill:#247F8E;" d="M48.3,267c-6.9-51.6-14.5-105-42.4-149c33.6,46,48.1,102.9,58,159c2.8,15.9,4.9,33.8-4.9,46.7
			C52.3,305.3,50.9,286.3,48.3,267z"/>
	</g>
	<g>
		<path style="fill:#8EC599;" d="M392.4,76c-9.5-11-16.3-24.1-22.9-37.1c-6.6-12.9-13.2-25.7-19.8-38.6
			c-8.3-16.2-16.8-32.8-19.6-50.9c-5.7-36.2,11.5-75.6-4.2-108.7c-3.7-7.8-9.1-14.7-12.5-22.7c-3.2-7.3-4.7-15.2-8.5-22.2
			c-7.6-14.2-24.4-25.5-22.2-41.4c1.6,6.7,7.7,11.4,13.9,14.3c6.2,2.9,13,4.8,18.7,8.7c11.2,7.8,15.6,21.9,19.4,35
			c4,14.2,8.1,28.4,9.6,43.1c2.2,20.6-0.6,41.3-0.9,62c-0.3,20.7,2.2,42.3,13.7,59.5c4.3,6.5,9.8,12.1,14.8,18
			c17.2,20.3,29.5,44.3,39.9,68.6c2.1,4.9,23.2,29,16.9,33.7C422.4,102.1,396.2,80.3,392.4,76z"/>
		<path style="fill:#4D9180;" d="M437.1,21.7c1.1-7.4,2.2-15.1,5.9-21.6c3.8-6.7,10-11.7,16-16.5c7.6-6,15.2-12.1,22.8-18.1
			c-6.9,9.7-13.5,19.5-20,29.5c-3.8,5.9-7.6,12-9.3,18.9c-1.6,6.3-1.3,12.9-1.4,19.4C451,42,441,94.6,431.6,93.2
			C423.4,92,436,29.5,437.1,21.7z"/>
		<path style="fill:#176A72;" d="M469.4,10.5c6.2-5.8,14.9-11.1,22.6-7.7c-5.7-2.5-29.6,32.2-32.5,36.8c-6.2,9.7-9.7,25.9-17.3,33.5
			C436.1,51.3,454.8,24.1,469.4,10.5z"/>
		<path style="fill:#84C59B;" d="M430.9-42.6c5.2-35.9,15.9-71.6,35.4-102.2c30.6-48,80.3-80,128.4-110.4
			c-23.6,18.5-43.5,41.2-63.3,63.7c-10.4,11.8-20.7,23.5-31.1,35.3c-6.7,7.6-13.3,15.2-18.9,23.6c-5.6,8.4-10,17.5-15,26.2
			c-8,13.9-17.7,27.1-23,42.3c-13.6,38.2-6.8,81.3,3.1,120.7c5.1,20.2-7.2,32.7-17.6,40.9c-10.6-19.7-3.1-41.2-2.9-63.1
			C426.1,8.6,427.3-17.1,430.9-42.6z"/>
		<path style="fill:#196D73;" d="M381.1-21.1c-7.8-44.6,0.1-90.9,15.8-133.4c3.9-10.6,8.4-21.1,14.9-30.3c4.4-6.1,9.7-11.6,14-17.8
			c7.8-11.2,12.2-24.4,19.2-36.1c17.6-29.7,49.5-47.6,79.8-64c-28.1,19.7-50.6,47.4-64,79c-4.3,10.2-7.8,20.9-13.4,30.4
			c-5,8.6-11.7,16-17.5,24.1c-18.7,26-27.7,58.8-25.1,90.7c1.5,17.7,6.4,35.1,7,52.8c0.3,9.3,4.9,46.4-9.3,47.1
			C388.7,22.1,382.9-11.4,381.1-21.1z"/>
		<path style="fill:#53A99E;" d="M388.1,37.9c-6-7.9-13.6-14.7-19-23c-10.3-15.8-11.8-35.8-10.1-54.6s6.1-37.3,6.6-56.1
			c0.4-15.4-1.8-30.8-0.4-46.1c2.6-27.5,16.7-52.5,32.3-75.4c-13,27.3-18.8,58-16.7,88.2c0.7,10.7,2.5,21.4,2.5,32.1
			c0.1,13.2-2.3,26.2-3.1,39.3C379-38,381.5-17.6,390.5,0c5.6,10.9,13.5,20.4,20,30.8c4.9,7.7,31.7,69.6,15.5,66.4
			c-8.5-1.7-16.6-20.9-20.1-27.7C400.4,58.8,395.5,47.6,388.1,37.9z"/>
		<path style="fill:#5BA088;" d="M411,48.4c-7.3-12.1-9-26.7-10.1-40.8c-3.2-41.2-2.3-84.1,14.5-121.9
			c16.8-37.8,52.5-69.5,93.8-71.1c9.7-0.4,19.5,0.9,29.1-0.2c22.7-2.6,45.1-18,66.8-10.6c-15.7,4.3-28.3,16.1-43.4,22.3
			c-14.2,5.9-30,6.5-45.2,8.7c-24.5,3.6-49.1,12.2-66.4,29.9c-14.8,15.1-23,35.8-25.5,56.7s0.4,42.3,5.6,62.8
			c3.4,13.6,7.9,27,9.4,41C441.3,43.5,446,89.1,427,98c-6.9-1.5-6.2-24.6-9-31.1L411,48.4z"/>
		<path style="fill:#176A72;" d="M427,98c-20.5,2.5-35.5-14.8-44-24.6c-6.6-7.5-11.3-16.5-18-24c-6.4-7.1-14.5-12.6-20.8-19.8
			c-4.6-5.2-8.2-11.2-11.8-17.2C319.6-8.8,306.8-30.1,294-51.3C316.6-44.8,329.1-21,337.6,1c2.4,6.1,4.8,12.5,9.7,16.8
			c4.6,4,10.7,5.7,16.3,8.1c22.4,9.9,35.8,32.7,47.6,54L427,98z"/>
	</g>
	<g>
		<path style="fill:#A3D3C4;" d="M452.6,318.4c0-7.9,6.1-15.3,4.4-23c-1.2-5.6-6.1-9.4-10.1-13.5c-4-4.1-7.4-10.1-5-15.3
			c1.6-3.4,5.3-5.3,7.7-8.2c10.8-13.1-10.6-33-4-48.7c4.1-9.7,17.4-13.2,20.9-23.1c3.6-9.8-4.1-21.5,0.6-30.8
			c5.1-9.9,20.7-10,26.3-19.6c6.4-11-4.2-27.1,3.8-36.9c5.3-6.4,16.1-6.3,20.8-13.2c5.1-7.4,0.2-18.7,5.7-25.8
			c5.6-7.2,17.1-4.6,25.1-8.8c8.2-4.3,14.9-15.9,23.4-12.1c7.3,3.3,5.2,14.5,0.3,20.9c-4.9,6.4-11.8,12.8-10.7,20.8
			c0.7,4.8,4.4,8.9,4.6,13.8c0.5,13.5-23.9,17-23.7,30.5c0.1,3.1,1.6,6.1,1.3,9.1c-1,10.8-21.4,12.9-19.8,23.6
			c0.5,3.5,3.5,6.1,4.9,9.4c6.4,14.8-20.7,26.4-18.2,42.4c0.9,6,6.2,11,6.2,17.1c0,10.9-15.7,16.2-16.7,27c-0.8,8.4,8,15.2,8.1,23.7
			c0.2,11.5-15.2,18.9-14.7,30.5c0.3,5.9,4.8,10.9,5.8,16.7C504.4,352.3,452.5,341.5,452.6,318.4z"/>
		<path style="fill:#60AAA4;" d="M462.8,295.9c-1.1-5.6-2.3-11.3-3.4-16.9c-0.8-3.7-1.5-7.6-1.1-11.4c0.5-4.5,2.7-8.8,1.9-13.2
			c-0.6-3.3-2.9-6.3-2.9-9.6c0-4.5,4.1-8,5.7-12.2c3.4-8.9-4.1-20.4,1.8-27.8c2.2-2.8,5.8-4.1,8.1-6.8c6.1-7.1,0-19.2,5.1-27
			c2.8-4.2,8.3-6.2,10.6-10.7c3.1-6.2-1.1-15,3.8-19.8c2.7-2.7,7.2-2.9,9.8-5.8c2.8-3.2,1.9-8.1,3.1-12.2c1.3-4.8,5.4-8.3,8.4-12.3
			c3-4,4.7-10,1.4-13.7c4.2-3.8,8.5-7.6,12.7-11.3c9.4-8.4,18.8-16.8,28.3-25.2c-5.8,11.8-11.5,23.6-17.3,35.4
			c1.2,2.2,3.3,3.9,5.6,4.8c-6.7,9.6-13.4,19.3-20.2,28.9c-2.4,3.4-4.8,7-5.8,11c-1.2,5.4,0.3,11.1-1,16.5
			c-2.3,10.2-13.6,16.4-16.1,26.6c-1.5,6.3,0.6,13-1.3,19.2c-1.3,4.5-4.6,8.2-6.5,12.5c-1.3,2.9-1.9,6.1-2.5,9.2
			c-1.3,7-2.7,14.1-3.4,21.2c-1.3,12.4-0.8,24.9,1.4,37.1c0.6,3.4,1.4,6.9,0.9,10.4c-0.6,4.8-3.6,9.2-3,14c0.4,2.8,2,5.3,3.1,7.9
			c4.1,9.3,0.8,28.8-13.5,23C465.1,332.9,464.9,306.2,462.8,295.9z"/>
		<path style="fill:#247F8E;" d="M469.1,268.6c0.9-47.3,18.2-92.9,40.4-134.7c10-18.8,21.3-37.3,35.8-52.9
			c-21.7,30.9-39.1,65-51.3,100.8c-4.7,13.9-8.7,28-11.5,42.4c-4.6,23.7-6,47.9-4.3,72c0.9,12.2,2.6,24.3,5.1,36.2
			c1.9,8.8,8.9,22.7,7.2,31.3C474.9,335.7,468.5,300.4,469.1,268.6z"/>
	</g>
	<g>
		<path style="fill:#A3D3C4;" d="M780.9,297.1c-3.7-4.1-5.8-10-4.1-15.3c2.3-7.1,10.6-10.9,12.7-18.1c2.9-10.1-8.3-20.6-4.7-30.5
			c2.8-7.6,12.4-9.6,20.5-10.2c8.1-0.6,17.5-1.8,21.3-8.9c3-5.7,1.3-13.8,6.2-18c4.7-4.1,13-1.9,17.3-6.4c3.6-3.9,2.2-10.1,0.4-15.1
			c-1.8-5-3.7-11-0.5-15.2c3.2-4.3,10-4.3,13.6-8.3c3.3-3.6,2.8-9.1,3-14c0.3-7.5,2.7-14.9,7-21.1c2.2-3.2,5.3-6.4,9.2-6.4
			c4,0,7.2,3.2,9.3,6.6c5.5,9.1,5.9,20.3,5.3,30.8c-0.2,3.5-0.4,7.1,0.3,10.6c1.2,5.8,4.8,10.7,7.5,15.9c2.7,5.2,4.3,11.8,1.3,16.9
			c-4.2,7.3-15.6,8-19.5,15.5c-2.8,5.5-0.2,12.4-1.7,18.4c-1.9,7.8-9.9,12.3-17.2,15.5c-7.3,3.2-15.5,6.7-18.8,14
			c-2.6,5.7-1.6,12.6-4.5,18.2c-4.7,9.1-17,10.7-24.7,17.4c-4.4,3.8-7.1,9.2-11.3,13.3C799.6,311.4,788,305.1,780.9,297.1z"/>
		<path style="fill:#60AAA4;" d="M790.6,284.4c1.5-3.8,2.6-8.1,1.2-11.9c-1.3-3.5,1.2-7.2,4.1-9.6c2.8-2.4,6.2-4.6,7.4-8.1
			c1.8-5.1-1.2-12.5,3.4-15.2c3.2-1.9,7.6,0.5,10.9-1.2c4.5-2.2,3.4-9,6.4-13c3.8-5,12.4-3.4,16.8-7.9c4.4-4.5,2.3-12.7,6.2-17.7
			c3-3.9,8.7-4.8,11.9-8.4c5.7-6.4,1.3-17,5-24.7c1.8-3.7,5.3-6.3,8.3-9.1c8.2-8,12.6-19,16.8-29.7c1.3,17.9,1.1,35.9-0.6,53.8
			c-0.2,2.2-0.5,4.5-1.5,6.5c-2.8,5.6-10.6,7.7-12.2,13.7c-0.8,3.1,0.3,6.5-0.7,9.6c-2.1,6.6-11.9,7-15.7,12.8
			c-1.1,1.7-1.5,3.6-2.2,5.5c-2,5.2-5.9,9.6-10.8,12.2c-3.4,1.8-7.2,2.7-10.3,5c-3.1,2.2-5.3,6.5-3.5,9.9c2.1,3.8-2.4,8-6.5,9.5
			c-4.1,1.5-9.2,3.1-10.1,7.3c-0.6,3.1,1.4,6.5,0,9.4c-1.9,3.8-9.1,4.6-8.3,8.8c1.2,6.3-4.8,16.4-12.3,14.5
			C784.3,303.8,788.1,290.8,790.6,284.4z"/>
		<path style="fill:#247F8E;" d="M804.5,266.7c13.1-21.8,32.1-39.3,47.6-59.4c13.8-17.7,24.8-37.4,35.8-56.9
			c-12.5,31.8-30.4,61.4-52.7,87.3c-6.6,7.6-13.6,15-19.3,23.4c-14.9,22.3-14.2,46.6-21.5,71C782.2,314.9,794.9,282.6,804.5,266.7z"
			/>
	</g>
	<g>
		<path style="fill:#1E7786;" d="M746.6,133.1c8.3-18.1,11.2-38.1,18.3-56.7c7.1-18.6,20.2-36.8,39.5-41.4
			C793.9,47.8,783.3,60.8,777,76c-6.8,16.3-8.4,34.1-11.6,51.4c-3.3,17.3-8.8,35.1-21.4,47.4c-13.5,13.1-34.3,19.2-52.5,21.8
			c-2.5-14.9,6.5-21.6,18.2-27.5C726.1,160.8,738.7,150.3,746.6,133.1z"/>
		<path style="fill:#5B9C89;" d="M643.4,168.7c-4.6-17.4-11.9-34.1-14.9-51.9c-4.2-24.7,0.4-50.9,12.8-72.7
			c-9.5,14.8-6.5,34.5,0.3,50.8s17.1,31,22,48c6,20.7,1.6,66.3-21.3,76.9c-0.5-7.2,5-16,5.1-24C647.4,186.6,645.7,177.5,643.4,168.7
			z"/>
		<path style="fill:#51A288;" d="M660.2,7.4c-11-20.8-28-37.7-41.9-56.6C604.4-68.1,593-91,596.1-114.3c0.3,12.3,4.8,24.5,12.5,34.1
			c5.2,6.5,11.9,11.8,18.1,17.4c48.7,43.5,77.2,108.8,76.1,174.1c-0.2,10.8-1.2,21.9-6.5,31.3c-11-2.1-14.6-48.4-16.8-60
			C674.4,56.7,672.7,31.2,660.2,7.4z"/>
		<path style="fill:#48ADA3;" d="M674.1,92.3c-6.6-27.6-30.4-47.9-40.7-74.4c24.8,21.4,48.4,46.7,57.5,78.2
			c5.1,17.7,4.9,36.7,0.2,54.5c-3.1,11.8-18,64.2-32.4,66.5c-17.5,2.8,6.2-55.8,8.8-64C673.5,133.5,679,112.8,674.1,92.3z"/>
		<path style="fill:#80C49A;" d="M675.2,181.1c4.1-9.7,5.4-20.3,9.2-30c5.2-13.3,14.9-24.7,19.4-38.3c4.1-12.4,3.5-25.8,2.8-38.8
			c-0.9-19.3-1.9-38.7-5.3-57.7c-2.5-13.7-6.2-27.2-6.8-41c-1.3-30.4,13.9-61,38.8-78.4c-10.5,11-15.3,26.4-16.2,41.6
			c-0.9,15.2,1.7,30.3,4.3,45.2c3.3,19,6.6,38.1,10,57.1c2.5,14.1,4.9,28.2,4.9,42.5c0,13.4-2.3,26.8-5.7,39.8
			c-6.2,23.6-16.4,46.5-32.1,65.1c-9.6,11.4-34.7,36.7-51.6,35c-13.2-1.3,4.3-11.4,8.6-15.5C663.7,200.1,670.9,191.4,675.2,181.1z"
			/>
	</g>
	<g>
		<path style="fill:#A3D3C4;" d="M1018,242.2c0.4-2.3,1.2-4.5,0.8-6.8c-1.3-6.2-10.1-6.8-14.3-11.5c-8.9-9.9,8.7-27.8,0.1-38
			c-4.7-5.5-14.9-4.7-18.3-11.1c-3.3-6.4,2.8-13.4,4.1-20.5c2.2-11.5-8.6-20.8-16.5-29.5c-4.9-5.5-9.1-11.9-10.4-19.2
			c-1.2-7.3,1-15.4,6.9-19.8c9.5-7,22.8-2,33.4,3.2c6.7,3.3,13.3,6.5,20,9.8c13.8,6.7,29.2,15.6,31.9,30.7
			c2.1,11.5-4.1,23.9,0.3,34.8c3.9,9.7,15.8,16.7,14.2,27c-0.9,6-6.5,11.4-4.5,17.1c1.7,4.9,8.1,6.9,10,11.8
			c3.3,8.5-9.7,17.2-6.1,25.6c0.9,2.1,2.7,3.6,4.1,5.4c12,15.3-5.2,30-20.2,25.5C1038.4,272,1014.4,262,1018,242.2z"/>
		<path style="fill:#60AAA4;" d="M1029,240c-1-3.3,0.9-6.7,1.3-10.1c0.9-9.3-9.7-15.6-12.4-24.5c-2.9-9.5,3.3-20.9-2.1-29.3
			c-2.2-3.5-6.1-5.7-8.4-9.1c-5.6-8.7,1.2-20.9-2.7-30.5c-2.4-6.2-8.7-10-11.7-15.9c-2.5-4.9-2.4-10.7-3.5-16.1s-3.9-11.2-9.2-12.7
			c14.3,7.7,29.4,16.2,37,30.5c1.8,3.4,3.2,7.1,5.7,10c3.6,4.1,8.9,6.2,13.2,9.6c5.6,4.6,9,11.9,8.9,19.2c-0.1,5-1.7,10.6,1.1,14.8
			c2.7,4.2,8.8,5.4,11.1,9.9c3,5.9-2.4,12.6-2.8,19.2c-0.6,9,8.3,16.3,8.6,25.3c0.2,5.6-2.9,11.4-0.8,16.9c1.2,3.2,6.4,4.8,6.6,8.3
			c0.3,5.9-6.3,8.6-11,10c-5.8,1.8-14.9,2.5-19.9-1.8c-4.5-3.9-2.4-6-3.5-10.9C1033.3,247.8,1030.4,244.9,1029,240z"/>
	</g>
	<g>
		<path style="fill:#4E8C7C;" d="M60.9,1057c-10.6-24.6-32.7-42.5-45.1-66.2c-6.6-12.6-10.3-26.5-16.3-39.4
			c-19.2-41.1-61.1-68.3-105.2-78.9c-17.3-4.2-35.5-6.3-51-15.2c-15.8-9.1-27.4-25.2-31-43c10,16.5,26.3,30,45.4,32.7
			c17.8,2.6,35.7-4.3,53.6-2.7c22.8,2,42.3,17.3,57,34.9c14.7,17.5,34.8,34.8,50,51.9c13.4,15,21,30.3,39,39.2
			c-1.1,22.1-0.1,44.3,3,66.2C57.1,1041.9,56.4,1052.2,60.9,1057z"/>
		<path style="fill:#1F7A87;" d="M36.1,1029.8c-6-7.4-11.8-15-16.4-23.4c-4.1-7.4-7.1-15.4-10.5-23.1c-4.8-10.9-10.4-21.4-16.7-31.5
			c-6.4-10.3-13.8-20.3-23.7-27.4c-7.5-5.4-16.2-9-24.8-12.5c-12.6-5.1-25.2-10.2-38.4-13.3c-13.9-3.3-29.6-4.1-41.2,4.1
			c3.6-10.1,10.3-19.6,20.1-23.8c7-3,14.9-3.1,22.4-2.3c14.9,1.6,29.5,6.5,42.4,14.2c13.3,7.9,24.6,18.7,35.3,29.9
			c17.8,18.6,34.1,38.5,48.8,59.6c9.2,13.2,17.9,27.1,21.4,42.8c1.4,6.2,10,29,6.1,33.9C53,1050.4,42.6,1037.9,36.1,1029.8z"/>
		<path style="fill:#24828A;" d="M-4.3,876.2c-9.8-19.9-22.3-38.3-34.8-56.6c-19.5-28.8-39-57.6-58.5-86.4
			c39.9,43.2,79.9,86.3,119.8,129.5c10,10.8,20.1,21.8,27.6,34.5c9.4,15.9,14.2,34.5,14.1,53c0,15.3-1.3,47.7-19.1,26.7
			C20.8,948.3,12.1,909.2-4.3,876.2z"/>
		<path style="fill:#80C49D;" d="M70,941c-2.9-30.2-17.4-58-25-87.5c-7.6-29.4-6.7-64.7,15.7-85.3c-7.8,24.2-7.6,50.9,0.5,74.9
			c6.2,18.4,16.8,35.1,22.6,53.7c5.1,16.5,6.2,34,7.3,51.3c1.2,19.2,2.4,38.6-0.7,57.5c-2.3,14.4-9.7,48.5-24.3,54.9
			C53.7,1026.6,73.5,976.8,70,941z"/>
		<path style="fill:#4EADA1;" d="M46.1,985.7c1.1-16.2,5.3-33-0.4-48.1c-3.5-9.4-10.3-17-16.3-25C-3.4,869.2-14.4,810.1,0.5,757.7
			c-10.7,26.5,0.5,56.9,16.4,80.7s36.6,44.6,48.1,70.8c16.6,37.8,11.6,81,6.4,122c-1.1,9-0.6,22.2-5.3,29.5
			C46.2,1050.5,44.8,1005.1,46.1,985.7z"/>
	</g>
	<g>
		<path style="fill:#A3D3C4;" d="M147.7,1060.1c-3.7-4.1-5.8-10-4.1-15.3c2.3-7.1,10.6-10.9,12.7-18.1c2.9-10.1-8.3-20.6-4.7-30.5
			c2.8-7.6,12.4-9.6,20.5-10.2c8.1-0.6,17.5-1.8,21.3-8.9c3-5.7,1.3-13.8,6.2-18c4.7-4.1,13-1.9,17.3-6.4c3.6-3.9,2.2-10.1,0.4-15.1
			s-3.7-11-0.5-15.2c3.2-4.3,10-4.3,13.6-8.3c3.3-3.6,2.8-9.1,3-14c0.3-7.5,2.7-14.9,7-21.1c2.2-3.2,5.3-6.4,9.2-6.4
			c4,0,7.2,3.2,9.3,6.6c5.5,9.1,5.9,20.3,5.3,30.8c-0.2,3.5-0.4,7.1,0.3,10.6c1.2,5.8,4.8,10.7,7.5,15.9c2.7,5.2,4.3,11.8,1.3,16.9
			c-4.2,7.3-15.6,8-19.5,15.5c-2.8,5.5-0.2,12.4-1.7,18.4c-1.9,7.8-9.9,12.3-17.2,15.5c-7.3,3.2-15.5,6.7-18.8,14
			c-2.6,5.7-1.6,12.6-4.5,18.2c-4.7,9.1-17,10.7-24.7,17.4c-4.4,3.8-7.1,9.2-11.3,13.3C166.4,1074.4,154.9,1068.2,147.7,1060.1z"/>
		<path style="fill:#60AAA4;" d="M157.4,1047.5c1.5-3.8,2.6-8.1,1.2-11.9c-1.3-3.5,1.2-7.2,4.1-9.6s6.2-4.6,7.4-8.1
			c1.8-5.1-1.2-12.5,3.4-15.2c3.2-1.9,7.6,0.5,10.9-1.2c4.5-2.2,3.4-9,6.4-13c3.8-5,12.4-3.4,16.8-7.9c4.4-4.5,2.3-12.7,6.2-17.7
			c3-3.9,8.7-4.8,11.9-8.4c5.7-6.4,1.3-17,5-24.7c1.8-3.7,5.3-6.3,8.3-9.1c8.2-8,12.6-19,16.8-29.7c1.3,17.9,1.1,35.9-0.6,53.8
			c-0.2,2.2-0.5,4.5-1.5,6.5c-2.8,5.6-10.6,7.7-12.2,13.7c-0.8,3.1,0.3,6.5-0.7,9.6c-2.1,6.6-11.9,7-15.7,12.8
			c-1.1,1.7-1.5,3.6-2.2,5.5c-2,5.2-5.9,9.6-10.8,12.2c-3.4,1.8-7.2,2.7-10.3,5c-3.1,2.2-5.3,6.5-3.5,9.9c2.1,3.8-2.4,8-6.5,9.5
			c-4.1,1.5-9.2,3.1-10.1,7.3c-0.6,3.1,1.4,6.5,0,9.4c-1.9,3.8-9.1,4.6-8.3,8.8c1.2,6.3-4.8,16.4-12.3,14.5
			C151.1,1066.8,154.9,1053.9,157.4,1047.5z"/>
		<path style="fill:#247F8E;" d="M171.3,1029.8c13.1-21.8,32.1-39.3,47.6-59.4c13.8-17.7,24.8-37.4,35.8-56.9
			c-12.5,31.8-30.4,61.4-52.7,87.3c-6.6,7.6-13.6,15-19.3,23.4c-14.9,22.3-14.2,46.6-21.5,71C149,1077.9,161.7,1045.7,171.3,1029.8z
			"/>
	</g>
	<g>
		<path style="fill:#A3D3C4;" d="M222.1,657.6c0.4-2.3,1.2-4.5,0.8-6.8c-1.3-6.2-10.1-6.8-14.3-11.5c-8.9-9.9,8.7-27.8,0.1-38
			c-4.7-5.5-14.9-4.7-18.3-11.1c-3.3-6.4,2.8-13.4,4.1-20.5c2.2-11.5-8.6-20.8-16.5-29.5c-4.9-5.5-9.1-11.9-10.4-19.2
			s1-15.4,6.9-19.8c9.5-7,22.8-2,33.4,3.2c6.7,3.3,13.3,6.5,20,9.8c13.8,6.7,29.2,15.6,31.9,30.7c2.1,11.5-4.1,23.9,0.3,34.8
			c3.9,9.7,15.8,16.7,14.2,27c-0.9,6-6.5,11.4-4.5,17.1c1.7,4.9,8.1,6.9,10,11.8c3.3,8.5-9.7,17.2-6.1,25.6c0.9,2.1,2.7,3.6,4.1,5.4
			c12,15.3-5.2,30-20.2,25.5C242.4,687.4,218.5,677.4,222.1,657.6z"/>
		<path style="fill:#60AAA4;" d="M233.1,655.4c-1-3.3,0.9-6.7,1.3-10.1c0.9-9.3-9.7-15.6-12.4-24.5c-2.9-9.5,3.3-20.9-2.1-29.3
			c-2.2-3.5-6.1-5.7-8.4-9.1c-5.6-8.7,1.2-20.9-2.7-30.5c-2.4-6.2-8.7-10-11.7-15.9c-2.5-4.9-2.4-10.7-3.5-16.1
			c-1-5.4-3.9-11.2-9.2-12.7c14.3,7.7,29.4,16.2,37,30.5c1.8,3.4,3.2,7.1,5.7,10c3.6,4.1,8.9,6.2,13.2,9.6c5.6,4.6,9,11.9,8.9,19.2
			c-0.1,5-1.7,10.6,1.1,14.8c2.7,4.2,8.8,5.4,11.1,9.9c3,5.9-2.4,12.6-2.8,19.2c-0.6,9,8.3,16.3,8.6,25.3c0.2,5.6-2.9,11.4-0.8,16.9
			c1.2,3.2,6.4,4.8,6.6,8.3c0.3,5.9-6.3,8.6-11,10c-5.8,1.8-14.9,2.5-19.9-1.8c-4.5-3.9-2.4-6-3.5-10.9
			C237.4,663.2,234.5,660.3,233.1,655.4z"/>
		<path style="fill:#247F8E;" d="M252.4,682.4c-6.9-51.6-14.5-105-42.4-149c33.6,46,48.1,102.9,58,159c2.8,15.9,4.9,33.8-4.9,46.7
			C256.3,720.7,255,701.7,252.4,682.4z"/>
	</g>
	<g>
		<path style="fill:#8EC599;" d="M392.4,1076c-9.5-11-16.3-24.1-22.9-37.1c-6.6-12.9-13.2-25.7-19.8-38.6
			c-8.3-16.2-16.8-32.8-19.6-50.9c-5.7-36.2,11.5-75.6-4.2-108.7c-3.7-7.8-9.1-14.7-12.5-22.7c-3.2-7.3-4.7-15.2-8.5-22.2
			c-7.6-14.2-24.4-25.5-22.2-41.4c1.6,6.7,7.7,11.4,13.9,14.3c6.2,2.9,13,4.8,18.7,8.7c11.2,7.8,15.6,21.9,19.4,35
			c4,14.2,8.1,28.4,9.6,43.1c2.2,20.6-0.6,41.3-0.9,62c-0.3,20.7,2.2,42.3,13.7,59.5c4.3,6.5,9.8,12.1,14.8,18
			c17.2,20.3,29.5,44.3,39.9,68.6c2.1,4.9,23.2,29,16.9,33.7C422.4,1102.1,396.2,1080.3,392.4,1076z"/>
		<path style="fill:#4D9180;" d="M437.1,1021.7c1.1-7.4,2.2-15.1,5.9-21.6c3.8-6.7,10-11.7,16-16.5c7.6-6,15.2-12.1,22.8-18.1
			c-6.9,9.7-13.5,19.5-20,29.5c-3.8,5.9-7.6,12-9.3,18.9c-1.6,6.3-1.3,12.9-1.4,19.4c-0.1,8.6-10.1,61.1-19.6,59.7
			C423.4,1092,436,1029.5,437.1,1021.7z"/>
		<path style="fill:#84C59B;" d="M430.9,957.4c5.2-35.9,15.9-71.6,35.4-102.2c30.6-48,80.3-80,128.4-110.4
			c-23.6,18.5-43.5,41.2-63.3,63.7c-10.4,11.8-20.7,23.5-31.1,35.3c-6.7,7.6-13.3,15.2-18.9,23.6c-5.6,8.4-10,17.5-15,26.2
			c-8,13.9-17.7,27.1-23,42.3c-13.6,38.2-6.8,81.3,3.1,120.7c5.1,20.2-7.2,32.7-17.6,40.9c-10.6-19.7-3.1-41.2-2.9-63.1
			C426.1,1008.6,427.3,982.9,430.9,957.4z"/>
		<path style="fill:#248084;" d="M415.5,930.6c4.4-14.9,13.7-27.8,22.9-40.3c6.8-9.2,14.1-18.8,24.4-23.8c15.8-7.7,35-3.2,51.6-8.9
			c-5,10.7-18.2,13.9-29.2,18.2c-32.3,12.5-54.9,42.8-67.6,75c-0.3-2.2-0.6-4.4-0.8-6.7L415.5,930.6z"/>
		<path style="fill:#196D73;" d="M381.1,978.9c-7.8-44.6,0.1-90.9,15.8-133.4c3.9-10.6,8.4-21.1,14.9-30.3c4.4-6.1,9.7-11.6,14-17.8
			c7.8-11.2,12.2-24.4,19.2-36.1c17.6-29.7,49.5-47.6,79.8-64c-28.1,19.7-50.6,47.4-64,79c-4.3,10.2-7.8,20.9-13.4,30.4
			c-5,8.6-11.7,16-17.5,24.1c-18.7,26-27.7,58.8-25.1,90.7c1.5,17.7,6.4,35.1,7,52.8c0.3,9.3,4.9,46.4-9.3,47.1
			C388.7,1022.1,382.9,988.6,381.1,978.9z"/>
		<path style="fill:#53A99E;" d="M388.1,1037.9c-6-7.9-13.6-14.7-19-23c-10.3-15.8-11.8-35.8-10.1-54.6c1.6-18.8,6.1-37.3,6.6-56.1
			c0.4-15.4-1.8-30.8-0.4-46.1c2.6-27.5,16.7-52.5,32.3-75.4c-13,27.3-18.8,58-16.7,88.2c0.7,10.7,2.5,21.4,2.5,32.1
			c0.1,13.2-2.3,26.2-3.1,39.3c-1.2,19.8,1.3,40.1,10.3,57.7c5.6,10.9,13.5,20.4,20,30.8c4.9,7.7,31.7,69.6,15.5,66.4
			c-8.5-1.7-16.6-20.9-20.1-27.7C400.4,1058.8,395.5,1047.6,388.1,1037.9z"/>
		<path style="fill:#5BA088;" d="M411,1048.4c-7.3-12.1-9-26.7-10.1-40.8c-3.2-41.2-2.3-84.1,14.5-121.9
			c16.8-37.8,52.5-69.5,93.8-71.1c9.7-0.4,19.5,0.9,29.1-0.2c22.7-2.6,45.1-18,66.8-10.6c-15.7,4.3-28.3,16.1-43.4,22.3
			c-14.2,5.9-30,6.5-45.2,8.7c-24.5,3.6-49.1,12.2-66.4,29.9c-14.8,15.1-23,35.8-25.5,56.7c-2.5,21,0.4,42.3,5.6,62.8
			c3.4,13.6,7.9,27,9.4,41c1.9,18.3,6.7,63.9-12.4,72.8c-6.9-1.5-6.2-24.6-9-31.1L411,1048.4z"/>
		<path style="fill:#176A72;" d="M427,1098c-20.5,2.5-35.5-14.8-44-24.6c-6.6-7.5-11.3-16.5-18-24c-6.4-7.1-14.5-12.6-20.8-19.8
			c-4.6-5.2-8.2-11.2-11.8-17.2c-12.8-21.2-25.5-42.5-38.3-63.7c22.6,6.5,35.1,30.3,43.6,52.3c2.4,6.1,4.8,12.5,9.7,16.8
			c4.6,4,10.7,5.7,16.3,8.1c22.4,9.9,35.8,32.7,47.6,54L427,1098z"/>
	</g>
	<g>
		<path style="fill:#A3D3C4;" d="M5.4,690.1c0-7.9,6.1-15.3,4.4-23c-1.2-5.6-6.1-9.4-10.1-13.5c-4-4.1-7.4-10.1-5-15.3
			c1.6-3.4,5.3-5.3,7.7-8.2c10.8-13.1-10.6-33-4-48.7c4.1-9.7,17.4-13.2,20.9-23.1c3.6-9.8-4.1-21.5,0.6-30.8
			c5.1-9.9,20.7-10,26.3-19.6c6.4-11-4.2-27.1,3.8-36.9c5.3-6.4,16.1-6.3,20.8-13.2c5.1-7.4,0.2-18.7,5.7-25.8
			c5.6-7.2,17.1-4.6,25.1-8.8c8.2-4.3,14.9-15.9,23.4-12.1c7.3,3.3,5.2,14.5,0.3,20.9c-4.9,6.4-11.8,12.8-10.7,20.8
			c0.7,4.8,4.4,8.9,4.6,13.8c0.5,13.5-23.9,17-23.7,30.5c0.1,3.1,1.6,6.1,1.3,9.1c-1,10.8-21.4,12.9-19.8,23.6
			c0.5,3.5,3.5,6.1,4.9,9.4c6.4,14.8-20.7,26.4-18.2,42.4c0.9,6,6.2,11,6.2,17.1c0,10.9-15.7,16.2-16.7,27c-0.8,8.4,8,15.2,8.1,23.7
			c0.2,11.5-15.2,18.9-14.7,30.5c0.3,5.9,4.8,10.9,5.8,16.7C57.2,724,5.3,713.2,5.4,690.1z"/>
		<path style="fill:#60AAA4;" d="M15.6,667.6c-1.1-5.6-2.3-11.3-3.4-16.9c-0.8-3.7-1.5-7.6-1.1-11.4c0.5-4.5,2.7-8.8,1.9-13.2
			c-0.6-3.3-2.9-6.3-2.9-9.6c0-4.5,4.1-8,5.7-12.2c3.4-8.9-4.1-20.4,1.8-27.8c2.2-2.8,5.8-4.1,8.1-6.8c6.1-7.1,0-19.2,5.1-27
			c2.8-4.2,8.3-6.2,10.6-10.7c3.1-6.2-1.1-15,3.8-19.8c2.7-2.7,7.2-2.9,9.8-5.8c2.8-3.2,1.9-8.1,3.1-12.2c1.3-4.8,5.4-8.3,8.4-12.3
			c3-4,4.7-10,1.4-13.7c4.2-3.8,8.5-7.6,12.7-11.3c9.4-8.4,18.8-16.8,28.3-25.2c-5.8,11.8-11.5,23.6-17.3,35.4
			c1.2,2.2,3.3,3.9,5.6,4.8c-6.7,9.6-13.4,19.3-20.2,28.9c-2.4,3.4-4.8,7-5.8,11c-1.2,5.4,0.3,11.1-1,16.5
			c-2.3,10.2-13.6,16.4-16.1,26.6c-1.5,6.3,0.6,13-1.3,19.2c-1.3,4.5-4.6,8.2-6.5,12.5c-1.3,2.9-1.9,6.1-2.5,9.2
			c-1.3,7-2.7,14.1-3.4,21.2c-1.3,12.4-0.8,24.9,1.4,37.1c0.6,3.4,1.4,6.9,0.9,10.4c-0.6,4.8-3.6,9.2-3,14c0.4,2.8,2,5.3,3.1,7.9
			c4.1,9.3,0.8,28.8-13.5,23C17.9,704.6,17.7,677.9,15.6,667.6z"/>
		<path style="fill:#247F8E;" d="M21.9,640.3c0.9-47.3,18.2-92.9,40.4-134.7c10-18.8,21.3-37.3,35.8-52.9
			c-21.7,30.9-39.1,65-51.3,100.8c-4.7,13.9-8.7,28-11.5,42.4c-4.6,23.7-6,47.9-4.3,72c0.9,12.2,2.6,24.3,5.1,36.2
			c1.9,8.8,8.9,22.7,7.2,31.3C27.7,707.4,21.3,672.1,21.9,640.3z"/>
	</g>
	<g>
		<path style="fill:#4E8C7C;" d="M1060.9,1057c-10.6-24.6-32.7-42.5-45.1-66.2c-6.6-12.6-10.3-26.5-16.3-39.4
			c-19.2-41.1-61.1-68.3-105.2-78.9c-17.3-4.2-35.5-6.3-51-15.2c-15.8-9.1-27.4-25.2-31-43c10,16.5,26.3,30,45.4,32.7
			c17.8,2.6,35.7-4.3,53.6-2.7c22.8,2,42.3,17.3,57,34.9c14.7,17.5,34.8,34.8,50,51.9c13.4,15,21,30.3,39,39.2
			c-1.1,22.1-0.1,44.3,3,66.2C1057.1,1041.9,1056.4,1052.2,1060.9,1057z"/>
		<path style="fill:#1F7A87;" d="M1036.1,1029.8c-6-7.4-11.8-15-16.4-23.4c-4.1-7.4-7.1-15.4-10.5-23.1
			c-4.8-10.9-10.4-21.4-16.7-31.5c-6.4-10.3-13.8-20.3-23.7-27.4c-7.5-5.4-16.2-9-24.8-12.5c-12.6-5.1-25.2-10.2-38.4-13.3
			c-13.9-3.3-29.6-4.1-41.2,4.1c3.6-10.1,10.3-19.6,20.1-23.8c7-3,14.9-3.1,22.4-2.3c14.9,1.6,29.5,6.5,42.4,14.2
			c13.3,7.9,24.6,18.7,35.3,29.9c17.8,18.6,34.1,38.5,48.8,59.6c9.2,13.2,17.9,27.1,21.4,42.8c1.4,6.2,10,29,6.1,33.9
			C1053,1050.4,1042.6,1037.9,1036.1,1029.8z"/>
		<path style="fill:#24828A;" d="M995.7,876.2c-9.8-19.9-22.3-38.3-34.8-56.6c-19.5-28.8-39-57.6-58.5-86.4
			c39.9,43.2,79.9,86.3,119.8,129.5c10,10.8,20.1,21.8,27.6,34.5c9.4,15.9,14.2,34.5,14.1,53c0,15.3-1.3,47.7-19.1,26.7
			C1020.8,948.3,1012.1,909.2,995.7,876.2z"/>
		<path style="fill:#4EADA1;" d="M1046.1,985.7c1.1-16.2,5.3-33-0.4-48.1c-3.5-9.4-10.3-17-16.3-25
			c-32.9-43.4-43.9-102.5-28.9-154.9c-10.7,26.5,0.5,56.9,16.4,80.7c15.9,23.8,36.6,44.6,48.1,70.8c16.6,37.8,11.6,81,6.4,122
			c-1.1,9-0.6,22.2-5.3,29.5C1046.2,1050.5,1044.8,1005.1,1046.1,985.7z"/>
	</g>
	<g>
		<path style="fill:#A3D3C4;" d="M643.7,864.5c-3.7-4.1-5.8-10-4.1-15.3c2.3-7.1,10.6-10.9,12.7-18.1c2.9-10.1-8.3-20.6-4.7-30.5
			c2.8-7.6,12.4-9.6,20.5-10.2c8.1-0.6,17.5-1.8,21.3-8.9c3-5.7,1.3-13.8,6.2-18c4.7-4.1,13-1.9,17.3-6.4c3.6-3.9,2.2-10.1,0.4-15.1
			c-1.8-5-3.7-11-0.5-15.2c3.2-4.3,10-4.3,13.6-8.3c3.3-3.6,2.8-9.1,3-14c0.3-7.5,2.7-14.9,7-21.1c2.2-3.2,5.3-6.4,9.2-6.4
			c4,0,7.2,3.2,9.3,6.6c5.5,9.1,5.9,20.3,5.3,30.8c-0.2,3.5-0.4,7.1,0.3,10.6c1.2,5.8,4.8,10.7,7.5,15.9c2.7,5.2,4.3,11.8,1.3,16.9
			c-4.2,7.3-15.6,8-19.5,15.5c-2.8,5.5-0.2,12.4-1.7,18.4c-1.9,7.8-9.9,12.3-17.2,15.5c-7.3,3.2-15.5,6.7-18.8,14
			c-2.6,5.7-1.6,12.6-4.5,18.2c-4.7,9.1-17,10.7-24.7,17.4c-4.4,3.8-7.1,9.2-11.3,13.3C662.4,878.8,650.8,872.6,643.7,864.5z"/>
		<path style="fill:#60AAA4;" d="M653.4,851.9c1.5-3.8,2.6-8.1,1.2-11.9c-1.3-3.5,1.2-7.2,4.1-9.6s6.2-4.6,7.4-8.1
			c1.8-5.1-1.2-12.5,3.4-15.2c3.2-1.9,7.6,0.5,10.9-1.2c4.5-2.2,3.4-9,6.4-13c3.8-5,12.4-3.4,16.8-7.9c4.4-4.5,2.3-12.7,6.2-17.7
			c3-3.9,8.7-4.8,11.9-8.4c5.7-6.4,1.3-17,5-24.7c1.8-3.7,5.3-6.3,8.3-9.1c8.2-8,12.6-19,16.8-29.7c1.3,17.9,1.1,35.9-0.6,53.8
			c-0.2,2.2-0.5,4.5-1.5,6.5c-2.8,5.6-10.6,7.7-12.2,13.7c-0.8,3.1,0.3,6.5-0.7,9.6c-2.1,6.6-11.9,7-15.7,12.8
			c-1.1,1.7-1.5,3.6-2.2,5.5c-2,5.2-5.9,9.6-10.8,12.2c-3.4,1.8-7.2,2.7-10.3,5c-3.1,2.2-5.3,6.5-3.5,9.9c2.1,3.8-2.4,8-6.5,9.5
			c-4.1,1.5-9.2,3.1-10.1,7.3c-0.6,3.1,1.4,6.5,0,9.4c-1.9,3.8-9.1,4.6-8.3,8.8c1.2,6.3-4.8,16.4-12.3,14.5
			C647.1,871.2,650.9,858.2,653.4,851.9z"/>
		<path style="fill:#247F8E;" d="M667.2,834.2c13.1-21.8,32.1-39.3,47.6-59.4c13.8-17.7,24.8-37.4,35.8-56.9
			c-12.5,31.8-30.4,61.4-52.7,87.3c-6.6,7.6-13.6,15-19.3,23.4c-14.9,22.3-14.2,46.6-21.5,71C644.9,882.3,657.7,850,667.2,834.2z"/>
	</g>
	<g>
		<path style="fill:#51A288;" d="M660.2,1007.4c-11-20.8-28-37.7-41.9-56.6c-13.9-18.9-25.3-41.8-22.2-65.1
			c0.3,12.3,4.8,24.5,12.5,34.1c5.2,6.5,11.9,11.8,18.1,17.4c48.7,43.5,77.2,108.8,76.1,174.1c-0.2,10.8-1.2,21.9-6.5,31.3
			c-11-2.1-14.6-48.4-16.8-60C674.4,1056.7,672.7,1031.2,660.2,1007.4z"/>
		<path style="fill:#80C49A;" d="M675.2,1181.1c4.1-9.7,5.4-20.3,9.2-30c5.2-13.3,14.9-24.7,19.4-38.3c4.1-12.4,3.5-25.8,2.8-38.8
			c-0.9-19.3-1.9-38.7-5.3-57.7c-2.5-13.7-6.2-27.2-6.8-41c-1.3-30.4,13.9-61,38.8-78.4c-10.5,11-15.3,26.4-16.2,41.6
			c-0.9,15.2,1.7,30.3,4.3,45.2c3.3,19,6.6,38.1,10,57.1c2.5,14.1,4.9,28.2,4.9,42.5c0,13.4-2.3,26.8-5.7,39.8
			c-6.2,23.6-16.4,46.5-32.1,65.1c-9.6,11.4-34.7,36.7-51.6,35c-13.2-1.3,4.3-11.4,8.6-15.5C663.7,1200.1,670.9,1191.4,675.2,1181.1
			z"/>
	</g>
	<g>
		<path style="fill:#A3D3C4;" d="M1005.4,690.1c0-7.9,6.1-15.3,4.4-23c-1.2-5.6-6.1-9.4-10.1-13.5c-4-4.1-7.4-10.1-5-15.3
			c1.6-3.4,5.3-5.3,7.7-8.2c10.8-13.1-10.6-33-4-48.7c4.1-9.7,17.4-13.2,20.9-23.1c3.6-9.8-4.1-21.5,0.6-30.8
			c5.1-9.9,20.7-10,26.3-19.6c6.4-11-4.2-27.1,3.8-36.9c5.3-6.4,16.1-6.3,20.8-13.2c5.1-7.4,0.2-18.7,5.7-25.8
			c5.6-7.2,17.1-4.6,25.1-8.8c8.2-4.3,14.9-15.9,23.4-12.1c7.3,3.3,5.2,14.5,0.3,20.9s-11.8,12.8-10.7,20.8
			c0.7,4.8,4.4,8.9,4.6,13.8c0.5,13.5-23.9,17-23.7,30.5c0.1,3.1,1.6,6.1,1.3,9.1c-1,10.8-21.4,12.9-19.8,23.6
			c0.5,3.5,3.5,6.1,4.9,9.4c6.4,14.8-20.7,26.4-18.2,42.4c0.9,6,6.2,11,6.2,17.1c0,10.9-15.7,16.2-16.7,27c-0.8,8.4,8,15.2,8.1,23.7
			c0.2,11.5-15.2,18.9-14.7,30.5c0.3,5.9,4.8,10.9,5.8,16.7C1057.2,724,1005.3,713.2,1005.4,690.1z"/>
	</g>
	<g>
		<path style="fill:#84C59B;" d="M-142.5,554.4c5.2-35.9,15.9-71.6,35.4-102.2c30.6-48,80.3-80,128.4-110.4
			C-2.3,360.3-22.2,383-42,405.5c-10.4,11.8-20.7,23.5-31.1,35.3c-6.7,7.6-13.3,15.2-18.9,23.6c-5.6,8.4-10,17.5-15,26.2
			c-8,13.9-17.7,27.1-23,42.3c-13.6,38.2-6.8,81.3,3.1,120.7c5.1,20.2-7.2,32.7-17.6,40.9c-10.6-19.7-3.1-41.2-2.9-63.1
			C-147.3,605.5-146.2,579.8-142.5,554.4z"/>
		<path style="fill:#5BA088;" d="M-162.5,645.4c-7.3-12.1-9-26.7-10.1-40.8c-3.2-41.2-2.3-84.1,14.5-121.9s52.5-69.5,93.8-71.1
			c9.7-0.4,19.5,0.9,29.1-0.2c22.7-2.6,45.1-18,66.8-10.6c-15.7,4.3-28.3,16.1-43.4,22.3c-14.2,5.9-30,6.5-45.2,8.7
			c-24.5,3.6-49.1,12.2-66.4,29.9c-14.8,15.1-23,35.8-25.5,56.7c-2.5,21,0.4,42.3,5.6,62.8c3.4,13.6,7.9,27,9.4,41
			c1.9,18.3,6.7,63.9-12.4,72.8c-6.9-1.5-6.2-24.6-9-31.1L-162.5,645.4z"/>
	</g>
	<g>
		<path style="fill:#8EC599;" d="M819,673c-9.5-11-16.3-24.1-22.9-37.1c-6.6-12.9-13.2-25.7-19.8-38.6
			c-8.3-16.2-16.8-32.8-19.6-50.9c-5.7-36.2,11.5-75.6-4.2-108.7c-3.7-7.8-9.1-14.7-12.5-22.7c-3.2-7.3-4.7-15.2-8.5-22.2
			c-7.6-14.2-24.4-25.5-22.2-41.4c1.6,6.7,7.7,11.4,13.9,14.3c6.2,2.9,13,4.8,18.7,8.7c11.2,7.8,15.6,21.9,19.4,35
			c4,14.2,8.1,28.4,9.6,43.1c2.2,20.6-0.6,41.3-0.9,62c-0.3,20.7,2.2,42.3,13.7,59.5c4.3,6.5,9.8,12.1,14.8,18
			c17.2,20.3,29.5,44.3,39.9,68.6c2.1,4.9,23.2,29,16.9,33.7C849,699.1,822.7,677.3,819,673z"/>
		<path style="fill:#4D9180;" d="M863.7,618.7c1.1-7.4,2.2-15.1,5.9-21.6c3.8-6.7,10-11.7,16-16.5c7.6-6,15.2-12.1,22.8-18.1
			c-6.9,9.7-13.5,19.5-20,29.5c-3.8,5.9-7.6,12-9.3,18.9c-1.6,6.3-1.3,12.9-1.4,19.4c-0.1,8.6-10.1,61.1-19.6,59.7
			C850,688.9,862.5,626.5,863.7,618.7z"/>
		<path style="fill:#176A72;" d="M896,607.5c6.2-5.8,14.9-11.1,22.6-7.7c-5.7-2.5-29.6,32.2-32.5,36.8c-6.2,9.7-9.7,25.9-17.3,33.5
			C862.7,648.3,881.4,621.1,896,607.5z"/>
		<path style="fill:#84C59B;" d="M857.5,554.4c5.2-35.9,15.9-71.6,35.4-102.2c30.6-48,80.3-80,128.4-110.4
			c-23.6,18.5-43.5,41.2-63.3,63.7c-10.4,11.8-20.7,23.5-31.1,35.3c-6.7,7.6-13.3,15.2-18.9,23.6c-5.6,8.4-10,17.5-15,26.2
			c-8,13.9-17.7,27.1-23,42.3c-13.6,38.2-6.8,81.3,3.1,120.7c5.1,20.2-7.2,32.7-17.6,40.9c-10.6-19.7-3.1-41.2-2.9-63.1
			C852.7,605.5,853.8,579.8,857.5,554.4z"/>
		<path style="fill:#248084;" d="M842.1,527.5c4.4-14.9,13.7-27.8,22.9-40.3c6.8-9.2,14.1-18.8,24.4-23.8c15.8-7.7,35-3.2,51.6-8.9
			c-5,10.7-18.2,13.9-29.2,18.2c-32.3,12.5-54.9,42.8-67.6,75c-0.3-2.2-0.6-4.4-0.8-6.7L842.1,527.5z"/>
		<path style="fill:#196D73;" d="M807.7,575.8c-7.8-44.6,0.1-90.9,15.8-133.4c3.9-10.6,8.4-21.1,14.9-30.3c4.4-6.1,9.7-11.6,14-17.8
			c7.8-11.2,12.2-24.4,19.2-36.1c17.6-29.7,49.5-47.6,79.8-64c-28.1,19.7-50.6,47.4-64,79c-4.3,10.2-7.8,20.9-13.4,30.4
			c-5,8.6-11.7,16-17.5,24.1c-18.7,26-27.7,58.8-25.1,90.7c1.5,17.7,6.4,35.1,7,52.8c0.3,9.3,4.9,46.4-9.3,47.1
			C815.3,619.1,809.4,585.6,807.7,575.8z"/>
		<path style="fill:#53A99E;" d="M814.7,634.9c-6-7.9-13.6-14.7-19-23c-10.3-15.8-11.8-35.8-10.1-54.6c1.6-18.8,6.1-37.3,6.6-56.1
			c0.4-15.4-1.8-30.8-0.4-46.1c2.6-27.5,16.7-52.5,32.3-75.4c-13,27.3-18.8,58-16.7,88.2c0.7,10.7,2.5,21.4,2.5,32.1
			c0.1,13.2-2.3,26.2-3.1,39.3c-1.2,19.8,1.3,40.1,10.3,57.7c5.6,10.9,13.5,20.4,20,30.8c4.9,7.7,31.7,69.6,15.5,66.4
			c-8.5-1.7-16.6-20.9-20.1-27.7C826.9,655.8,822.1,644.6,814.7,634.9z"/>
		<path style="fill:#5BA088;" d="M837.5,645.4c-7.3-12.1-9-26.7-10.1-40.8c-3.2-41.2-2.3-84.1,14.5-121.9
			c16.8-37.8,52.5-69.5,93.8-71.1c9.7-0.4,19.5,0.9,29.1-0.2c22.7-2.6,45.1-18,66.8-10.6c-15.7,4.3-28.3,16.1-43.4,22.3
			c-14.2,5.9-30,6.5-45.2,8.7c-24.5,3.6-49.1,12.2-66.4,29.9c-14.8,15.1-23,35.8-25.5,56.7c-2.5,21,0.4,42.3,5.6,62.8
			c3.4,13.6,7.9,27,9.4,41c1.9,18.3,6.7,63.9-12.4,72.8c-6.9-1.5-6.2-24.6-9-31.1L837.5,645.4z"/>
		<path style="fill:#176A72;" d="M853.6,695c-20.5,2.5-35.5-14.8-44-24.6c-6.6-7.5-11.3-16.5-18-24c-6.4-7.1-14.5-12.6-20.8-19.8
			c-4.6-5.2-8.2-11.2-11.8-17.2c-12.8-21.2-25.5-42.5-38.3-63.7c22.6,6.5,35.1,30.3,43.6,52.3c2.4,6.1,4.8,12.5,9.7,16.8
			c4.6,4,10.7,5.7,16.3,8.1c22.4,9.9,35.8,32.7,47.6,54L853.6,695z"/>
	</g>
	<g>
		<path style="fill:#4E8C7C;" d="M586.9,693.4c-10.6-24.6-32.7-42.5-45.1-66.2c-6.6-12.6-10.3-26.5-16.3-39.4
			c-19.2-41.1-61.1-68.3-105.2-78.9c-17.3-4.2-35.5-6.3-51-15.2c-15.8-9.1-27.4-25.2-31-43c10,16.5,26.3,30,45.4,32.7
			c17.8,2.6,35.7-4.3,53.6-2.7c22.8,2,42.3,17.3,57,34.9c14.7,17.5,34.8,34.8,50,51.9c13.4,15,21,30.3,39,39.2
			c-1.1,22.1-0.1,44.3,3,66.2C583.1,678.3,582.4,688.6,586.9,693.4z"/>
		<path style="fill:#1F7A87;" d="M562.1,666.2c-6-7.4-11.8-15-16.4-23.4c-4.1-7.4-7.1-15.4-10.5-23.1c-4.8-10.9-10.4-21.4-16.7-31.5
			c-6.4-10.3-13.8-20.3-23.7-27.4c-7.5-5.4-16.2-9-24.8-12.5c-12.6-5.1-25.2-10.2-38.4-13.3c-13.9-3.3-29.6-4.1-41.2,4.1
			c3.6-10.1,10.3-19.6,20.1-23.8c7-3,14.9-3.1,22.4-2.3c14.9,1.6,29.5,6.5,42.4,14.2c13.3,7.9,24.6,18.7,35.3,29.9
			c17.8,18.6,34.1,38.5,48.8,59.6c9.2,13.2,17.9,27.1,21.4,42.8c1.4,6.2,10,29,6.1,33.9C579,686.8,568.6,674.3,562.1,666.2z"/>
		<path style="fill:#24828A;" d="M521.7,512.6c-9.8-19.9-22.3-38.3-34.8-56.6c-19.5-28.8-39-57.6-58.5-86.4
			c39.9,43.2,79.9,86.3,119.8,129.5c10,10.8,20.1,21.8,27.6,34.5c9.4,15.9,14.2,34.5,14.1,53c0,15.3-1.3,47.7-19.1,26.7
			C546.8,584.6,538.1,545.6,521.7,512.6z"/>
		<path style="fill:#80C49D;" d="M596,577.4c-2.9-30.2-17.4-58-25-87.5c-7.6-29.4-6.7-64.7,15.7-85.3c-7.8,24.2-7.6,50.9,0.5,74.9
			c6.2,18.4,16.8,35.1,22.6,53.7c5.1,16.5,6.2,34,7.3,51.3c1.2,19.2,2.4,38.6-0.7,57.5c-2.3,14.4-9.7,48.5-24.3,54.9
			C579.7,662.9,599.5,613.1,596,577.4z"/>
		<path style="fill:#4EADA1;" d="M572.1,622.1c1.1-16.2,5.3-33-0.4-48.1c-3.5-9.4-10.3-17-16.3-25c-32.9-43.4-43.9-102.5-28.9-154.9
			c-10.7,26.5,0.5,56.9,16.4,80.7c15.9,23.8,36.6,44.6,48.1,70.8c16.6,37.8,11.6,81,6.4,122c-1.1,9-0.6,22.2-5.3,29.5
			C572.2,686.9,570.8,641.5,572.1,622.1z"/>
	</g>
</g>
</svg>
