<?xml version="1.0" encoding="UTF-8" standalone="no"?>
<!DOCTYPE svg PUBLIC "-//W3C//DTD SVG 1.1//EN" "http://www.w3.org/Graphics/SVG/1.1/DTD/svg11.dtd">
<svg version="1.1" xmlns="http://www.w3.org/2000/svg" xmlns:xlink="http://www.w3.org/1999/xlink" preserveAspectRatio="xMidYMid meet" viewBox="0 0 1200 1250" width="1200" height="1250"><defs><path d="M1199.92 4.76C1199.92 4.76 1199.92 4.76 1199.92 4.76C1199.92 761.23 1199.92 1181.48 1199.92 1265.53C1199.92 1265.53 1199.92 1265.53 1199.92 1265.53C475.77 1265.53 73.47 1265.53 -7 1265.53C-7 1265.53 -7 1265.53 -7 1265.53C-7 509.07 -7 88.81 -7 4.76C-7 4.76 -7 4.76 -7 4.76C717.15 4.76 1119.46 4.76 1199.92 4.76Z" id="dO0fQyVOU"></path><path d="M212.72 255.58C207.44 245.5 204.48 234.38 199.68 224.06C184.32 191.18 150.8 169.42 115.52 160.94C101.68 157.58 87.12 155.9 74.72 148.78C62.08 141.5 52.8 128.62 49.92 114.38C57.92 127.58 70.96 138.38 86.24 140.54C100.48 142.62 114.8 137.1 129.12 138.38C147.36 139.98 162.96 152.22 174.72 166.3C186.48 180.38 202.64 194.06 214.88 207.74C225.6 219.74 231.68 231.98 246.08 239.1C245.2 256.78 246 274.54 248.48 292.06C245.68 296.46 245.12 304.7 248.72 308.54C240.32 288.86 222.64 274.54 212.72 255.58Z" id="aJwRV5EBk"></path><path d="M215.76 268.06C212.48 262.14 210.08 255.74 207.36 249.58C203.52 240.86 199.04 232.46 194 224.38C188.8 216.14 182.96 208.14 175.04 202.46C169.04 198.14 162.08 195.26 155.2 192.46C145.12 188.38 135.04 184.3 124.48 181.82C113.36 179.18 100.8 178.54 91.52 185.1C94.4 177.02 99.76 169.42 107.6 166.06C113.2 163.66 119.52 163.58 125.52 164.22C137.44 165.5 149.12 169.42 159.44 175.58C170.08 181.9 179.12 190.54 187.68 199.5C201.92 214.38 214.96 230.3 226.72 247.18C234.08 257.66 241.12 268.86 243.92 281.42C245.04 286.38 251.92 304.62 248.8 308.54C242.4 303.26 234.08 293.26 228.88 286.78C224.08 280.86 219.44 274.78 215.76 268.06Z" id="b8QoSDoMVb"></path><path d="M236 145.74C229.92 122.14 230.64 93.98 248.56 77.5C242.32 96.86 242.48 118.22 248.96 137.42C253.92 152.14 262.4 165.5 267.04 180.38C271.12 193.74 272 207.74 272.8 221.58C273.76 236.94 274.72 252.46 272.24 267.58C270.4 279.1 264.48 306.38 252.8 311.5C242.96 284.22 258.8 244.38 256 215.74C253.68 191.58 242.08 169.34 236 145.74Z" id="e6ZLls5G9S"></path><path d="M236.56 213.02C233.76 205.5 228.32 199.42 223.52 193.02C197.28 158.3 188.48 111.02 200.4 69.1C191.84 90.3 200.8 114.62 213.52 133.66C226.24 152.7 242.8 169.42 252 190.3C265.28 220.54 261.28 255.1 257.12 287.9C256.24 295.1 256.64 305.66 252.88 311.5C236.96 303.34 235.84 267.02 236.88 251.5C237.76 238.54 241.12 225.1 236.56 213.02Z" id="bd6Hd04cX"></path><path d="M314.88 298.78C316.72 293.1 323.36 290.06 325.04 284.3C327.36 276.22 318.4 267.82 321.28 259.9C323.52 253.82 331.2 252.22 337.68 251.74C344.16 251.26 351.68 250.3 354.72 244.62C357.12 240.06 355.76 233.58 359.68 230.22C363.44 226.94 370.08 228.7 373.52 225.1C376.4 221.98 375.28 217.02 373.84 213.02C372.4 209.02 370.88 204.22 373.44 200.86C376 197.42 381.44 197.42 384.32 194.22C386.96 191.34 386.56 186.94 386.72 183.02C386.96 177.02 388.88 171.1 392.32 166.14C394.08 163.58 396.56 161.02 399.68 161.02C402.88 161.02 405.44 163.58 407.12 166.3C411.52 173.58 411.84 182.54 411.36 190.94C411.2 193.74 411.04 196.62 411.6 199.42C412.56 204.06 415.44 207.98 417.6 212.14C419.76 216.3 421.04 221.58 418.64 225.66C415.28 231.5 406.16 232.06 403.04 238.06C400.8 242.46 402.88 247.98 401.68 252.78C400.16 259.02 393.76 262.62 387.92 265.18C382.08 267.74 375.52 270.54 372.88 276.38C370.8 280.94 371.6 286.46 369.28 290.94C365.52 298.22 355.68 299.5 349.52 304.86C346 307.9 343.84 312.22 340.48 315.5C333.12 322.46 323.92 317.5 318.16 311.02C315.2 307.74 313.52 303.02 314.88 298.78Z" id="i1628NmX7r"></path><path d="M326.88 291.42C325.84 288.62 327.84 285.66 330.16 283.74C332.48 281.82 335.12 280.06 336.08 277.26C337.52 273.18 335.12 267.26 338.8 265.1C341.36 263.58 344.88 265.5 347.52 264.14C351.12 262.38 350.24 256.94 352.64 253.74C355.68 249.74 362.56 251.02 366.08 247.42C369.6 243.82 367.92 237.26 371.04 233.26C373.44 230.14 378 229.42 380.56 226.54C385.12 221.42 381.6 212.94 384.56 206.78C386 203.82 388.8 201.74 391.2 199.5C397.76 193.1 401.28 184.3 404.64 175.74C405.68 190.06 405.52 204.46 404.16 218.78C404 220.54 403.76 222.38 402.96 223.98C400.72 228.46 394.48 230.14 393.2 234.94C392.56 237.42 393.44 240.14 392.64 242.62C390.96 247.9 383.12 248.22 380.08 252.86C379.2 254.22 378.88 255.74 378.32 257.26C376.72 261.42 373.6 264.94 369.68 267.02C366.96 268.46 363.92 269.18 361.44 271.02C358.96 272.78 357.2 276.22 358.64 278.94C360.32 281.98 356.72 285.34 353.44 286.54C350.16 287.74 346.08 289.02 345.36 292.38C344.88 294.86 346.48 297.58 345.36 299.9C343.84 302.94 338.08 303.58 338.72 306.94C339.68 311.98 334.88 320.06 328.88 318.54C320.88 316.38 323.92 306.06 325.92 300.94C327.12 297.9 328 294.46 326.88 291.42Z" id="eca9mjuRb"></path><path d="M375.12 239.26C386.16 225.1 394.96 209.34 403.76 193.74C393.84 219.18 379.52 242.86 361.6 263.58C356.32 269.66 350.72 275.58 346.16 282.3C334.24 300.14 334.8 319.58 328.96 339.1C319.2 325.26 329.36 299.5 337.04 286.78C347.52 269.34 362.72 255.34 375.12 239.26Z" id="aNAoHF8NP"></path><path d="M435.84 473.74C441.52 458.86 452 444.3 467.44 440.62C459.04 450.86 450.56 461.26 445.52 473.5C440.08 486.54 438.8 500.78 436.24 514.62C433.6 528.46 429.2 542.7 419.12 552.54C408.32 563.02 391.68 567.9 377.12 569.98C375.12 558.06 382.32 552.7 391.68 547.98C404.8 541.26 414.88 532.86 421.2 519.1C427.84 504.62 430.16 488.62 435.84 473.74Z" id="c2XqHi0Zt4"></path><path d="M326.72 506.06C323.36 486.3 327.04 465.34 336.96 447.9C329.36 459.74 331.76 475.5 337.2 488.54C342.64 501.5 350.88 513.34 354.8 526.94C359.6 543.5 356.08 579.98 337.76 588.46C337.36 582.7 341.76 575.66 341.84 569.26C341.84 561.9 340.48 554.62 338.64 547.58C334.96 533.66 329.12 520.3 326.72 506.06Z" id="f8p1kA5jb"></path><path d="M318.56 373.26C307.44 358.14 298.32 339.82 300.8 321.18C301.04 331.02 304.64 340.78 310.8 348.46C314.96 353.66 320.32 357.9 325.28 362.38C364.24 397.18 387.04 449.42 386.16 501.66C386 510.3 385.2 519.18 380.96 526.7C372.16 525.02 369.28 487.98 367.52 478.7C363.44 457.98 362.08 437.58 352.08 418.54C343.28 401.9 329.68 388.38 318.56 373.26Z" id="f2Ll4aCrX"></path><path d="M330.64 426.94C350.48 444.06 369.36 464.3 376.64 489.5C380.72 503.66 380.56 518.86 376.8 533.1C374.32 542.54 362.4 584.46 350.88 586.3C336.88 588.54 355.84 541.66 357.92 535.1C362.72 519.42 367.12 502.86 363.2 486.46C357.92 464.38 338.88 448.14 330.64 426.94Z" id="a5WDaJSaJN"></path><path d="M371.44 533.5C375.6 522.86 383.36 513.74 386.96 502.86C390.24 492.94 389.76 482.22 389.2 471.82C388.48 456.38 387.68 440.86 384.96 425.66C382.96 414.7 380 403.9 379.52 392.86C378.48 368.54 390.64 344.06 410.56 330.14C402.16 338.94 398.32 351.26 397.6 363.42C396.88 375.58 398.96 387.66 401.04 399.58C403.68 414.78 406.32 430.06 409.04 445.26C411.04 456.54 412.96 467.82 412.96 479.26C412.96 489.98 411.12 500.7 408.4 511.1C403.44 529.98 395.28 548.3 382.72 563.18C375.04 572.3 354.96 592.54 341.44 591.18C330.88 590.14 344.88 582.06 348.32 578.78C354.88 572.7 360.64 565.82 364.08 557.5C367.36 549.74 368.4 541.26 371.44 533.5Z" id="e2Q9r1Im9"></path><path d="M215.04 451.26C214 446.3 206.96 445.82 203.6 442.06C196.48 434.14 210.56 419.82 203.68 411.66C199.92 407.26 191.76 407.9 189.04 402.78C186.4 397.66 191.28 392.06 192.32 386.38C194.08 377.18 185.44 369.74 179.12 362.78C175.2 358.38 171.84 353.26 170.8 347.42C169.84 341.58 171.6 335.1 176.32 331.58C183.92 325.98 194.56 329.98 203.04 334.14C208.4 336.78 213.68 339.34 219.04 341.98C230.08 347.34 242.4 354.46 244.56 366.54C246.24 375.74 241.28 385.66 244.8 394.38C247.92 402.14 257.44 407.74 256.16 415.98C255.44 420.78 250.96 425.1 252.56 429.66C253.92 433.58 259.04 435.18 260.56 439.1C263.2 445.9 252.8 452.86 255.68 459.58C256.4 461.26 257.84 462.46 258.96 463.9C268.56 476.14 254.8 487.9 242.8 484.3C230.72 480.54 211.52 472.54 214.4 456.7C214.72 454.86 215.36 453.1 215.04 451.26Z" id="e6ob3fZ19"></path><path d="M224.24 446.86C224.96 439.42 216.48 434.38 214.32 427.26C212 419.66 216.96 410.54 212.64 403.82C210.88 401.02 207.76 399.26 205.92 396.54C201.44 389.58 206.88 379.82 203.76 372.14C201.84 367.18 196.8 364.14 194.4 359.42C192.4 355.5 192.48 350.86 191.6 346.54C190.72 342.22 188.48 337.58 184.24 336.38C195.68 342.54 207.76 349.34 213.84 360.78C215.28 363.5 216.4 366.46 218.4 368.78C221.28 372.06 225.52 373.74 228.96 376.46C233.44 380.14 236.16 385.98 236.08 391.82C236 395.82 234.72 400.3 236.96 403.66C239.12 407.02 244 407.98 245.84 411.58C248.24 416.3 243.92 421.66 243.6 426.94C243.12 434.14 250.24 439.98 250.48 447.18C250.64 451.66 248.16 456.3 249.84 460.7C250.8 463.26 254.96 464.54 255.12 467.34C255.36 472.06 250.08 474.22 246.32 475.34C241.68 476.78 234.4 477.34 230.4 473.9C226.8 470.78 228.48 469.1 227.6 465.18C226.64 461.18 224.32 458.86 223.2 454.94C222.4 452.3 223.92 449.58 224.24 446.86Z" id="aubQ1qLaC"></path><path d="M204.72 357.34C231.6 394.14 243.2 439.66 251.12 484.54C253.36 497.26 255.04 511.58 247.2 521.9C241.84 507.18 240.72 491.98 238.64 476.54C233.12 435.26 227.04 392.54 204.72 357.34Z" id="c2dbxQ8dYm"></path><path d="M495.6 294.06C490.32 283.74 485.04 273.5 479.76 263.18C473.12 250.22 466.32 236.94 464.08 222.46C459.52 193.5 473.28 161.98 460.72 135.5C457.76 129.26 453.44 123.74 450.72 117.34C448.16 111.5 446.96 105.18 443.92 99.58C437.84 88.22 424.4 79.18 426.16 66.46C427.44 71.82 432.32 75.58 437.28 77.9C442.24 80.22 447.68 81.74 452.24 84.86C461.2 91.1 464.72 102.38 467.76 112.86C470.96 124.22 474.24 135.58 475.44 147.34C477.2 163.82 474.96 180.38 474.72 196.94C474.48 213.5 476.48 230.78 485.68 244.54C489.12 249.74 493.52 254.22 497.52 258.94C511.28 275.18 521.12 294.38 529.44 313.82C531.12 317.74 548 337.02 542.96 340.78C537.92 344.62 516.96 327.18 513.92 323.74C506.32 314.94 500.88 304.46 495.6 294.06Z" id="bciyLvj2t"></path><path d="M554.4 263.02C557.44 257.66 562.4 253.66 567.2 249.82C573.28 245.02 579.36 240.14 585.44 235.34C579.92 243.1 574.64 250.94 569.44 258.94C566.4 263.66 563.36 268.54 562 274.06C560.72 279.1 560.96 284.38 560.88 289.58C560.8 296.54 552.8 338.62 545.28 337.5C538.72 336.54 548.8 286.54 549.68 280.3C550.56 274.38 551.44 268.22 554.4 263.02Z" id="bLIdphRed"></path><path d="M593.6 265.18C589.04 263.18 569.92 290.94 567.6 294.62C562.64 302.38 559.84 315.34 553.76 321.42C548.88 303.98 563.84 282.22 575.52 271.34C580.48 266.7 587.44 262.46 593.6 265.18Z" id="b7nrUwGaV"></path><path d="M573.04 147.1C597.52 108.7 637.28 83.1 675.76 58.78C656.88 73.58 640.96 91.74 625.12 109.74C616.8 119.18 608.56 128.54 600.24 137.98C594.88 144.06 589.6 150.14 585.12 156.86C580.64 163.58 577.12 170.86 573.12 177.82C566.72 188.94 558.96 199.5 554.72 211.66C543.84 242.22 549.28 276.7 557.2 308.22C561.28 324.38 551.44 334.38 543.12 340.94C534.64 325.18 540.64 307.98 540.8 290.46C540.88 269.82 541.84 249.26 544.72 228.86C548.88 200.14 557.44 171.58 573.04 147.1Z" id="aUujqSCwz"></path><path d="M517.52 139.34C520.64 130.86 524.24 122.46 529.44 115.1C532.96 110.22 537.2 105.82 540.64 100.86C546.88 91.9 550.4 81.34 556 71.98C570.08 48.22 595.6 33.9 619.84 20.78C597.36 36.54 579.36 58.7 568.64 83.98C565.2 92.14 562.4 100.7 557.92 108.3C553.92 115.18 548.56 121.1 543.92 127.58C528.96 148.38 521.76 174.62 523.84 200.14C525.04 214.3 528.96 228.22 529.44 242.38C529.68 249.82 533.36 279.5 522 280.06C510.96 280.62 506.32 253.82 504.88 246.06C498.64 210.38 504.96 173.34 517.52 139.34Z" id="aGqTSqt3u"></path><path d="M495.28 274.86C487.04 262.22 485.84 246.22 487.2 231.18C488.56 216.14 492.08 201.34 492.48 186.3C492.8 173.98 491.04 161.66 492.16 149.42C494.24 127.42 505.52 107.42 518 89.1C507.6 110.94 502.96 135.5 504.64 159.66C505.2 168.22 506.64 176.78 506.64 185.34C506.72 195.9 504.8 206.3 504.16 216.78C503.2 232.54 505.2 248.86 512.4 262.94C516.88 271.66 523.2 279.26 528.4 287.58C532.32 293.74 553.76 343.26 540.8 340.7C534 339.34 527.52 323.98 524.72 318.54C520.32 309.98 516.4 301.02 510.48 293.26C505.68 286.94 499.6 281.5 495.28 274.86Z" id="f1v0vm4X0m"></path><path d="M520.72 269.02C518.16 236.06 518.88 201.74 532.32 171.5C545.76 141.26 574.32 115.9 607.36 114.62C615.12 114.3 622.96 115.34 630.64 114.46C648.8 112.38 666.72 100.06 684.08 105.98C671.52 109.42 661.44 118.86 649.36 123.82C638 128.54 625.36 129.02 613.2 130.78C593.6 133.66 573.92 140.54 560.08 154.7C548.24 166.78 541.68 183.34 539.68 200.06C537.68 216.78 540 233.9 544.16 250.3C546.88 261.18 550.48 271.9 551.68 283.1C553.04 297.74 556.8 334.22 541.6 341.34C536.08 340.14 536.64 321.66 534.4 316.46C534.03 315.47 532.16 310.54 528.8 301.66C524 287.42 521.31 276.54 520.72 269.02Z" id="dl0vxIVrm"></path><path d="M506.4 321.66C501.12 315.66 497.36 308.46 492 302.46C486.88 296.78 480.4 292.38 475.36 286.62C471.68 282.46 468.8 277.66 465.92 272.86C455.68 255.9 445.44 238.86 435.2 221.9C453.28 227.1 463.28 246.14 470.08 263.74C472 268.62 473.92 273.74 477.84 277.18C481.52 280.38 486.4 281.74 490.88 283.66C508.8 291.58 519.52 309.82 528.96 326.86C529.8 327.83 534.02 332.65 541.6 341.34C522.67 333.45 510.93 326.89 506.4 321.66Z" id="cDseu1ji1"></path><path d="M565.6 499.26C564.64 494.78 560.72 491.74 557.52 488.46C554.32 485.18 551.6 480.38 553.52 476.22C554.8 473.5 557.76 471.98 559.68 469.66C568.32 459.18 551.2 443.26 556.48 430.7C559.76 422.94 570.4 420.14 573.2 412.22C576.08 404.38 569.92 395.02 573.68 387.58C577.76 379.66 590.24 379.58 594.72 371.9C599.84 363.1 591.36 350.22 597.76 342.38C602 337.26 610.64 337.34 614.4 331.82C618.48 325.9 614.56 316.86 618.96 311.18C623.44 305.42 632.64 307.5 639.04 304.14C645.6 300.7 650.96 291.42 657.76 294.46C663.6 297.1 661.92 306.06 658 311.18C654.08 316.3 648.56 321.42 649.44 327.82C650 331.66 652.96 334.94 653.12 338.86C653.52 349.66 634 352.46 634.16 363.26C634.24 365.74 635.44 368.14 635.2 370.54C634.4 379.18 618.08 380.86 619.36 389.42C619.76 392.22 622.16 394.3 623.28 396.94C628.4 408.78 606.72 418.06 608.72 430.86C609.44 435.66 613.68 439.66 613.68 444.54C613.68 453.26 601.12 457.5 600.32 466.14C599.68 472.86 606.72 478.3 606.8 485.1C606.96 494.3 594.64 500.22 595.04 509.5C595.28 514.22 598.88 518.22 599.68 522.86C603.52 544.78 562 536.14 562.08 517.66C562.08 511.34 566.96 505.42 565.6 499.26Z" id="e2ufmbyx9"></path><path d="M567.52 486.14C566.88 483.18 566.32 480.06 566.64 477.02C567.04 473.42 568.8 469.98 568.16 466.46C567.68 463.82 565.84 461.42 565.84 458.78C565.84 455.18 569.12 452.38 570.4 449.02C573.12 441.9 567.12 432.7 571.84 426.78C573.6 424.54 576.48 423.5 578.32 421.34C583.2 415.66 578.32 405.98 582.4 399.74C584.64 396.38 589.04 394.78 590.88 391.18C593.36 386.22 590 379.18 593.92 375.34C596.08 373.18 599.68 373.02 601.76 370.7C604 368.14 603.28 364.22 604.24 360.94C605.28 357.1 608.56 354.3 610.96 351.1C613.36 347.9 614.72 343.1 612.08 340.14C615.44 337.1 618.88 334.06 622.24 331.1C629.76 324.38 637.28 317.66 644.88 310.94C640.24 320.38 635.68 329.82 631.04 339.26C632 341.02 633.68 342.38 635.52 343.1C630.16 350.78 624.8 358.54 619.36 366.22C617.44 368.94 615.52 371.82 614.72 375.02C613.76 379.34 614.96 383.9 613.92 388.22C612.08 396.38 603.04 401.34 601.04 409.5C599.84 414.54 601.52 419.9 600 424.86C598.96 428.46 596.32 431.42 594.8 434.86C593.76 437.18 593.28 439.74 592.8 442.22C591.76 447.82 590.64 453.5 590.08 459.18C589.04 469.1 589.44 479.1 591.2 488.86C591.68 491.58 592.32 494.38 591.92 497.18C591.44 501.02 589.04 504.54 589.52 508.38C589.84 510.62 591.12 512.62 592 514.7C595.28 522.14 592.64 537.74 581.2 533.1C572.08 529.26 571.92 507.9 570.24 499.66C569.36 495.18 568.4 490.62 567.52 486.14Z" id="d2QKZnGg5T"></path><path d="M607.6 370.06C615.6 355.02 624.64 340.22 636.24 327.74C618.88 352.46 604.96 379.74 595.2 408.38C591.44 419.5 588.24 430.78 586 442.3C582.32 461.26 581.2 480.62 582.56 499.9C583.28 509.66 584.64 519.34 586.64 528.86C588.16 535.9 593.76 547.02 592.4 553.9C579.92 531.5 574.8 503.26 575.28 477.82C576 439.98 589.84 403.5 607.6 370.06Z" id="d4Mg01a3X4"></path><path d="M821.44 488.38C823.28 482.7 829.92 479.66 831.6 473.9C833.92 465.82 824.96 457.42 827.84 449.5C830.08 443.42 837.76 441.82 844.24 441.34C850.72 440.86 858.24 439.9 861.28 434.22C863.68 429.66 862.32 423.18 866.24 419.82C870 416.54 876.64 418.3 880.08 414.7C882.96 411.58 881.84 406.62 880.4 402.62C878.96 398.62 877.44 393.82 880 390.46C882.56 387.02 888 387.02 890.88 383.82C893.52 380.94 893.12 376.54 893.28 372.62C893.52 366.62 895.44 360.7 898.88 355.74C900.64 353.18 903.12 350.62 906.24 350.62C909.44 350.62 912 353.18 913.68 355.9C918.08 363.18 918.4 372.14 917.92 380.54C917.76 383.34 917.6 386.22 918.16 389.02C919.12 393.66 922 397.58 924.16 401.74C926.32 405.9 927.6 411.18 925.2 415.26C921.84 421.1 912.72 421.66 909.6 427.66C907.36 432.06 909.44 437.58 908.24 442.38C906.72 448.62 900.32 452.22 894.48 454.78C888.64 457.34 882.08 460.14 879.44 465.98C877.36 470.54 878.16 476.06 875.84 480.54C872.08 487.82 862.24 489.1 856.08 494.46C852.56 497.5 850.4 501.82 847.04 505.1C839.68 512.06 830.4 507.02 824.72 500.62C821.76 497.34 820.08 492.62 821.44 488.38Z" id="b1h8OxD1G1"></path><path d="M833.44 480.94C832.4 478.14 834.4 475.18 836.72 473.26C838.96 471.34 841.68 469.58 842.64 466.78C844.08 462.7 841.68 456.78 845.36 454.62C847.92 453.1 851.44 455.02 854.08 453.66C857.68 451.9 856.8 446.46 859.2 443.26C862.24 439.26 869.12 440.54 872.64 436.94C876.16 433.34 874.48 426.78 877.6 422.78C880 419.66 884.56 418.94 887.12 416.06C891.68 410.94 888.16 402.46 891.12 396.3C892.56 393.34 895.36 391.26 897.76 389.02C904.32 382.62 907.84 373.82 911.2 365.26C912.24 379.58 912.08 393.98 910.72 408.3C910.56 410.06 910.32 411.9 909.52 413.5C907.28 417.98 901.04 419.66 899.76 424.46C899.12 426.94 900 429.66 899.2 432.14C897.52 437.42 889.68 437.74 886.64 442.38C885.76 443.74 885.44 445.26 884.88 446.78C883.28 450.94 880.16 454.46 876.24 456.54C873.52 457.98 870.48 458.7 868 460.54C865.52 462.3 863.76 465.74 865.2 468.46C866.88 471.5 863.28 474.86 860 476.06C856.72 477.26 852.64 478.54 851.92 481.9C851.44 484.38 853.04 487.1 851.92 489.42C850.4 492.46 844.64 493.1 845.28 496.46C846.24 501.5 841.44 509.58 835.44 508.06C827.44 505.98 830.48 495.58 832.48 490.46C833.68 487.42 834.56 483.98 833.44 480.94Z" id="i52Di1dFJh"></path><path d="M881.68 428.78C892.72 414.62 901.52 398.86 910.32 383.26C900.32 408.7 886 432.38 868.16 453.1C862.88 459.18 857.28 465.1 852.72 471.82C840.8 489.66 841.36 509.1 835.52 528.62C825.76 514.86 835.92 489.02 843.6 476.3C854.08 458.86 869.28 444.86 881.68 428.78Z" id="a4GlGPgUG"></path><path d="M811.92 324.06C817.6 309.18 828.08 294.62 843.52 290.94C835.12 301.18 826.64 311.58 821.6 323.74C816.16 336.78 814.88 351.02 812.32 364.86C809.68 378.7 805.28 392.94 795.2 402.78C784.4 413.26 767.76 418.14 753.2 420.22C751.2 408.3 758.4 402.94 767.76 398.22C780.88 391.58 790.96 383.18 797.28 369.42C803.92 354.94 806.24 338.94 811.92 324.06Z" id="g1cYdENR3A"></path><path d="M702.8 356.38C699.44 336.62 703.12 315.66 713.04 298.22C705.44 310.06 707.84 325.82 713.28 338.86C718.72 351.9 726.96 363.66 730.88 377.26C735.68 393.82 732.16 430.3 713.84 438.78C713.44 433.02 717.84 425.98 717.92 419.58C717.92 412.22 716.56 404.94 714.72 397.9C711.04 383.98 705.2 370.62 702.8 356.38Z" id="bcVmGBLt4"></path><path d="M694.64 223.58C683.52 208.46 674.4 190.14 676.88 171.5C677.12 181.34 680.72 191.1 686.88 198.78C691.04 203.98 696.4 208.22 701.36 212.7C740.32 247.5 763.12 299.74 762.24 351.98C762.08 360.62 761.28 369.5 757.04 377.02C748.24 375.34 745.36 338.3 743.6 329.02C739.52 308.3 738.16 287.9 728.16 268.86C719.36 252.22 705.76 238.7 694.64 223.58Z" id="c2xjoOvmkr"></path><path d="M706.72 277.26C726.56 294.38 745.44 314.62 752.72 339.82C756.8 353.98 756.64 369.18 752.88 383.42C750.4 392.86 738.48 434.78 726.96 436.62C712.96 438.86 731.92 391.98 734 385.42C738.8 369.74 743.2 353.18 739.28 336.78C734 314.7 714.96 298.46 706.72 277.26Z" id="a2fOhpCaAL"></path><path d="M747.52 383.82C751.68 373.18 759.44 364.06 763.04 353.18C766.32 343.26 765.84 332.54 765.28 322.14C764.56 306.7 763.76 291.18 761.04 275.98C759.04 265.02 756.08 254.22 755.6 243.18C754.56 218.86 766.72 194.38 786.64 180.46C778.24 189.26 774.4 201.58 773.68 213.74C772.96 225.9 775.04 237.98 777.12 249.9C779.76 265.1 782.4 280.38 785.12 295.58C787.12 306.86 789.04 318.14 789.04 329.58C789.04 340.3 787.2 351.02 784.48 361.42C779.52 380.3 771.36 398.62 758.8 413.5C751.12 422.62 731.04 442.86 717.52 441.5C706.96 440.46 720.96 432.38 724.4 429.1C730.96 423.02 736.72 416.06 740.16 407.82C743.44 400.06 744.48 391.58 747.52 383.82Z" id="d2SABEaQPw"></path><path d="M1015.04 451.26C1014 446.3 1006.96 445.82 1003.6 442.06C996.48 434.14 1010.56 419.82 1003.68 411.66C999.92 407.26 991.76 407.9 989.04 402.78C986.4 397.66 991.28 392.06 992.32 386.38C994.08 377.18 985.44 369.74 979.12 362.78C975.2 358.38 971.84 353.26 970.8 347.42C969.84 341.58 971.6 335.1 976.32 331.58C983.92 325.98 994.56 329.98 1003.04 334.14C1008.4 336.78 1013.68 339.34 1019.04 341.98C1030.08 347.34 1042.4 354.46 1044.56 366.54C1046.24 375.74 1041.28 385.66 1044.8 394.38C1047.92 402.14 1057.44 407.74 1056.16 415.98C1055.44 420.78 1050.96 425.1 1052.56 429.66C1053.92 433.58 1059.04 435.18 1060.56 439.1C1063.2 445.9 1052.8 452.86 1055.68 459.58C1056.4 461.26 1057.84 462.46 1058.96 463.9C1068.56 476.14 1054.8 487.9 1042.8 484.3C1030.72 480.54 1011.52 472.54 1014.4 456.7C1014.72 454.86 1015.36 453.1 1015.04 451.26Z" id="bvuVkTddZ"></path><path d="M1024.24 446.86C1024.96 439.42 1016.48 434.38 1014.32 427.26C1012 419.66 1016.96 410.54 1012.64 403.82C1010.88 401.02 1007.76 399.26 1005.92 396.54C1001.44 389.58 1006.88 379.82 1003.76 372.14C1001.84 367.18 996.8 364.14 994.4 359.42C992.4 355.5 992.48 350.86 991.6 346.54C990.72 342.22 988.48 337.58 984.24 336.38C995.68 342.54 1007.76 349.34 1013.84 360.78C1015.28 363.5 1016.4 366.46 1018.4 368.78C1021.28 372.06 1025.52 373.74 1028.96 376.46C1033.44 380.14 1036.16 385.98 1036.08 391.82C1036 395.82 1034.72 400.3 1036.96 403.66C1039.12 407.02 1044 407.98 1045.84 411.58C1048.24 416.3 1043.92 421.66 1043.6 426.94C1043.12 434.14 1050.24 439.98 1050.48 447.18C1050.64 451.66 1048.16 456.3 1049.84 460.7C1050.8 463.26 1054.96 464.54 1055.12 467.34C1055.36 472.06 1050.08 474.22 1046.32 475.34C1041.68 476.78 1034.4 477.34 1030.4 473.9C1026.8 470.78 1028.48 469.1 1027.6 465.18C1026.64 461.18 1024.32 458.86 1023.2 454.94C1022.4 452.3 1023.92 449.58 1024.24 446.86Z" id="c5kahfHfm0"></path><path d="M212.64 1055.58C207.36 1045.5 204.4 1034.38 199.6 1024.06C184.24 991.18 150.72 969.42 115.44 960.94C101.6 957.58 87.04 955.9 74.64 948.78C62 941.5 52.72 928.62 49.84 914.38C57.84 927.58 70.88 938.38 86.16 940.54C100.4 942.62 114.72 937.1 129.04 938.38C147.28 939.98 162.88 952.22 174.64 966.3C186.4 980.3 202.48 994.14 214.64 1007.82C225.36 1019.82 231.44 1032.06 245.84 1039.18C244.96 1056.86 245.76 1074.62 248.24 1092.14C245.68 1096.46 245.12 1104.7 248.72 1108.54C240.24 1088.86 222.56 1074.54 212.64 1055.58Z" id="b6KuODHSa4"></path><path d="M215.76 1068.06C212.48 1062.14 210.08 1055.74 207.36 1049.58C203.52 1040.86 199.04 1032.46 194 1024.38C188.88 1016.14 182.96 1008.14 175.04 1002.46C169.04 998.14 162.08 995.26 155.2 992.46C145.12 988.38 135.04 984.3 124.48 981.82C113.36 979.18 100.8 978.54 91.52 985.1C94.4 977.02 99.76 969.42 107.6 966.06C113.2 963.66 119.52 963.58 125.52 964.22C137.44 965.5 149.12 969.42 159.44 975.58C170.08 981.9 179.12 990.54 187.68 999.5C201.92 1014.38 214.96 1030.3 226.72 1047.18C234.08 1057.74 241.04 1068.86 243.84 1081.42C244.96 1086.38 251.84 1104.62 248.72 1108.54C242.4 1103.26 234.08 1093.26 228.88 1086.78C224.08 1080.86 219.44 1074.78 215.76 1068.06Z" id="b5nGxhaebn"></path><path d="M168.72 918.62C153.12 895.58 137.52 872.54 121.92 849.5C153.84 884.06 185.84 918.54 217.76 953.1C225.76 961.74 233.84 970.54 239.84 980.7C247.36 993.42 251.2 1008.3 251.12 1023.1C251.12 1035.34 250.08 1061.26 235.84 1044.46C216.64 1021.58 209.68 990.3 196.56 963.9C188.72 947.98 178.72 933.26 168.72 918.62Z" id="a18vR0Bp1s"></path><path d="M236 945.74C229.92 922.22 230.64 893.98 248.56 877.5C242.32 896.86 242.48 918.22 248.96 937.42C253.92 952.14 262.4 965.5 267.04 980.38C271.12 993.58 272 1007.58 272.88 1021.42C273.84 1036.78 274.8 1052.3 272.32 1067.42C270.48 1078.94 264.56 1106.22 252.88 1111.34C242.96 1084.22 258.8 1044.38 256 1015.74C253.68 991.58 242.08 969.34 236 945.74Z" id="d5bAbivnm"></path><path d="M236.56 1013.02C233.76 1005.5 228.32 999.42 223.52 993.02C197.28 958.3 188.48 911.02 200.4 869.1C191.84 890.3 200.8 914.62 213.52 933.66C226.24 952.7 242.8 969.34 252 990.3C265.28 1020.54 261.28 1055.1 257.12 1087.9C256.24 1095.1 256.64 1105.66 252.88 1111.5C236.96 1103.34 235.84 1067.02 236.88 1051.5C237.76 1038.54 241.12 1025.1 236.56 1013.02Z" id="g1FK9Ct3iD"></path><path d="M314.88 1098.78C316.72 1093.1 323.36 1090.06 325.04 1084.3C327.36 1076.22 318.4 1067.82 321.28 1059.9C323.52 1053.82 331.2 1052.22 337.68 1051.74C344.16 1051.26 351.68 1050.3 354.72 1044.62C357.12 1040.06 355.76 1033.58 359.68 1030.22C363.44 1026.94 370.08 1028.7 373.52 1025.1C376.4 1021.98 375.28 1017.02 373.84 1013.02C372.4 1009.02 370.88 1004.22 373.44 1000.86C376 997.42 381.44 997.42 384.32 994.22C386.96 991.34 386.56 986.94 386.72 983.02C386.96 977.02 388.88 971.1 392.32 966.14C394.08 963.58 396.56 961.02 399.68 961.02C402.88 961.02 405.44 963.58 407.12 966.3C411.52 973.58 411.84 982.54 411.36 990.94C411.2 993.74 411.04 996.62 411.6 999.42C412.56 1004.06 415.44 1007.98 417.6 1012.14C419.76 1016.3 421.04 1021.58 418.64 1025.66C415.28 1031.5 406.16 1032.06 403.04 1038.06C400.8 1042.46 402.88 1047.98 401.68 1052.78C400.16 1059.02 393.76 1062.62 387.92 1065.18C382.08 1067.74 375.52 1070.54 372.88 1076.38C370.8 1080.94 371.6 1086.46 369.28 1090.94C365.52 1098.22 355.68 1099.5 349.52 1104.86C346 1107.9 343.84 1112.22 340.48 1115.5C333.12 1122.46 323.92 1117.5 318.16 1111.02C315.2 1107.74 313.52 1103.02 314.88 1098.78Z" id="a3aGahFBvx"></path><path d="M326.88 1091.42C325.84 1088.62 327.84 1085.66 330.16 1083.74C332.48 1081.82 335.12 1080.06 336.08 1077.26C337.52 1073.18 335.12 1067.26 338.8 1065.1C341.36 1063.58 344.88 1065.5 347.52 1064.14C351.12 1062.38 350.24 1056.94 352.64 1053.74C355.68 1049.74 362.56 1051.02 366.08 1047.42C369.6 1043.82 367.92 1037.26 371.04 1033.26C373.44 1030.14 378 1029.42 380.56 1026.54C385.12 1021.42 381.6 1012.94 384.56 1006.78C386 1003.82 388.8 1001.74 391.2 999.5C397.76 993.1 401.28 984.3 404.64 975.74C405.68 990.06 405.52 1004.46 404.16 1018.78C404 1020.54 403.76 1022.38 402.96 1023.98C400.72 1028.46 394.48 1030.14 393.2 1034.94C392.56 1037.42 393.44 1040.14 392.64 1042.62C390.96 1047.9 383.12 1048.22 380.08 1052.86C379.2 1054.22 378.88 1055.74 378.32 1057.26C376.72 1061.42 373.6 1064.94 369.68 1067.02C366.96 1068.46 363.92 1069.18 361.44 1071.02C358.96 1072.78 357.2 1076.22 358.64 1078.94C360.32 1081.98 356.72 1085.34 353.44 1086.54C350.16 1087.74 346.08 1089.02 345.36 1092.38C344.88 1094.86 346.48 1097.58 345.36 1099.9C343.84 1102.94 338.08 1103.58 338.72 1106.94C339.68 1111.98 334.88 1120.06 328.88 1118.54C320.88 1116.38 323.92 1106.06 325.92 1100.94C327.12 1097.9 328 1094.46 326.88 1091.42Z" id="cbkOX6oxX"></path><path d="M375.12 1039.26C386.16 1025.1 394.96 1009.34 403.76 993.74C393.76 1019.18 379.44 1042.86 361.6 1063.58C356.32 1069.66 350.72 1075.58 346.16 1082.3C334.24 1100.14 334.8 1119.58 328.96 1139.1C319.2 1125.26 329.36 1099.5 337.04 1086.78C347.52 1069.34 362.72 1055.34 375.12 1039.26Z" id="c3oCwIsUCt"></path><path d="M378.32 783.58C377.28 778.62 370.24 778.14 366.88 774.38C359.76 766.46 373.84 752.14 366.96 743.98C363.2 739.58 355.04 740.22 352.32 735.1C349.68 729.98 354.56 724.38 355.6 718.7C357.36 709.5 348.72 702.06 342.4 695.1C338.48 690.7 335.12 685.58 334.08 679.74C333.04 673.9 334.88 667.42 339.6 663.9C347.2 658.3 357.84 662.3 366.32 666.46C371.68 669.1 376.96 671.66 382.32 674.3C393.36 679.66 405.68 686.78 407.84 698.86C409.52 708.06 404.56 717.98 408.08 726.7C411.2 734.46 420.72 740.06 419.44 748.3C418.72 753.1 414.24 757.42 415.84 761.98C417.2 765.9 422.32 767.5 423.84 771.42C426.48 778.22 416.08 785.18 418.96 791.9C419.68 793.58 421.12 794.78 422.24 796.22C431.84 808.46 418.08 820.22 406.08 816.62C393.92 812.86 374.8 804.86 377.68 789.02C378 787.18 378.64 785.42 378.32 783.58Z" id="bnty1ZTM"></path><path d="M387.52 779.18C388.24 771.74 379.76 766.7 377.6 759.58C375.28 751.98 380.24 742.86 375.92 736.14C374.16 733.34 371.04 731.58 369.2 728.86C364.72 721.9 370.16 712.14 367.04 704.46C365.12 699.5 360.08 696.46 357.68 691.74C355.68 687.82 355.76 683.18 354.88 678.86C354.08 674.54 351.76 669.9 347.52 668.7C358.96 674.86 371.04 681.66 377.12 693.1C378.56 695.82 379.68 698.78 381.68 701.1C384.56 704.38 388.8 706.06 392.24 708.78C396.72 712.46 399.44 718.3 399.36 724.14C399.28 728.14 398 732.62 400.24 735.98C402.4 739.34 407.28 740.3 409.12 743.9C411.52 748.62 407.2 753.98 406.88 759.26C406.4 766.46 413.52 772.3 413.76 779.5C413.92 783.98 411.44 788.62 413.12 793.02C414.08 795.58 418.24 796.86 418.4 799.66C418.64 804.38 413.36 806.54 409.6 807.66C404.96 809.1 397.68 809.66 393.68 806.22C390.08 803.1 391.76 801.42 390.88 797.5C389.92 793.5 387.6 791.18 386.48 787.26C385.68 784.62 387.2 781.9 387.52 779.18Z" id="bADLZPYlV"></path><path d="M368 689.66C394.88 726.46 406.48 771.98 414.4 816.86C416.64 829.58 418.32 843.9 410.48 854.22C405.04 839.5 404 824.3 401.92 808.86C396.4 767.58 390.32 724.86 368 689.66Z" id="a2HUB1vSyC"></path><path d="M495.6 1094.06C490.32 1083.74 485.04 1073.5 479.76 1063.18C473.12 1050.22 466.32 1036.94 464.08 1022.46C459.52 993.5 473.28 961.98 460.72 935.5C457.76 929.26 453.44 923.74 450.72 917.34C448.16 911.5 446.96 905.18 443.92 899.58C437.84 888.22 424.4 879.18 426.16 866.46C427.44 871.82 432.32 875.58 437.28 877.9C442.24 880.22 447.68 881.74 452.24 884.86C461.2 891.1 464.72 902.38 467.76 912.86C470.96 924.22 474.24 935.58 475.44 947.34C477.2 963.82 474.96 980.38 474.72 996.94C474.48 1013.5 476.48 1030.78 485.68 1044.54C489.12 1049.74 493.52 1054.22 497.52 1058.94C511.28 1075.18 521.12 1094.38 529.44 1113.82C531.12 1117.74 548 1137.02 542.96 1140.78C537.92 1144.62 516.96 1127.18 513.92 1123.74C506.32 1114.94 500.88 1104.46 495.6 1094.06Z" id="kbOUfMRDX"></path><path d="M554.4 1063.02C557.44 1057.66 562.4 1053.66 567.2 1049.82C573.28 1045.02 579.36 1040.14 585.44 1035.34C579.92 1043.1 574.64 1050.94 569.44 1058.94C566.4 1063.66 563.36 1068.54 562 1074.06C560.72 1079.1 560.96 1084.38 560.88 1089.58C560.8 1096.46 552.8 1138.46 545.2 1137.34C538.72 1136.54 548.8 1086.54 549.68 1080.3C550.56 1074.38 551.44 1068.22 554.4 1063.02Z" id="cu1Cz4COX"></path><path d="M573.04 947.1C597.52 908.7 637.28 883.1 675.76 858.78C656.88 873.58 640.96 891.74 625.12 909.74C616.8 919.18 608.56 928.54 600.24 937.98C594.88 944.06 589.6 950.14 585.12 956.86C580.64 963.58 577.12 970.86 573.12 977.82C566.72 988.94 558.96 999.5 554.72 1011.66C543.84 1042.22 549.28 1076.7 557.2 1108.22C561.28 1124.38 551.44 1134.38 543.12 1140.94C534.64 1125.18 540.64 1107.98 540.8 1090.46C540.88 1069.82 541.84 1049.26 544.72 1028.86C548.88 1000.14 557.44 971.58 573.04 947.1Z" id="cb9cY0aXr"></path><path d="M550.72 975.18C556.16 967.82 562 960.14 570.24 956.14C582.88 949.98 598.24 953.58 611.52 949.02C607.52 957.58 596.96 960.14 588.16 963.58C562.32 973.58 544.24 997.82 534.08 1023.58C533.84 1021.82 533.6 1020.06 533.44 1018.22C533.37 1017.5 533.02 1013.9 532.4 1007.42C539.71 992.59 545.81 981.85 550.72 975.18Z" id="c81gdM9mIG"></path><path d="M517.52 939.34C520.64 930.86 524.24 922.46 529.44 915.1C532.96 910.22 537.2 905.82 540.64 900.86C546.88 891.9 550.4 881.34 556 871.98C570.08 848.22 595.6 833.9 619.84 820.78C597.36 836.54 579.36 858.7 568.64 883.98C565.2 892.14 562.4 900.7 557.92 908.3C553.92 915.18 548.56 921.1 543.92 927.58C528.96 948.38 521.76 974.62 523.84 1000.14C525.04 1014.3 528.96 1028.22 529.44 1042.38C529.68 1049.82 533.36 1079.5 522 1080.06C510.96 1080.62 506.32 1053.82 504.88 1046.06C498.64 1010.38 504.96 973.34 517.52 939.34Z" id="f55LEy5AF"></path><path d="M495.28 1074.86C487.04 1062.22 485.84 1046.22 487.2 1031.18C488.48 1016.14 492.08 1001.34 492.48 986.3C492.8 973.98 491.04 961.66 492.16 949.42C494.24 927.42 505.52 907.42 518 889.1C507.6 910.94 502.96 935.5 504.64 959.66C505.2 968.22 506.64 976.78 506.64 985.34C506.72 995.9 504.8 1006.3 504.16 1016.78C503.2 1032.62 505.2 1048.86 512.4 1062.94C516.88 1071.66 523.2 1079.26 528.4 1087.58C532.32 1093.74 553.76 1143.26 540.8 1140.7C534 1139.34 527.52 1123.98 524.72 1118.54C520.32 1109.98 516.4 1101.02 510.48 1093.26C505.68 1086.94 499.6 1081.5 495.28 1074.86Z" id="f94GZGmoTL"></path><path d="M520.72 1069.02C518.16 1036.06 518.88 1001.74 532.32 971.5C545.76 941.26 574.32 915.9 607.36 914.62C615.12 914.3 622.96 915.34 630.64 914.46C648.8 912.38 666.72 900.06 684.08 905.98C671.52 909.42 661.44 918.86 649.36 923.82C638 928.54 625.36 929.02 613.2 930.78C593.6 933.66 573.92 940.54 560.08 954.7C548.24 966.78 541.68 983.34 539.68 1000.06C537.68 1016.86 540 1033.9 544.16 1050.3C546.88 1061.18 550.48 1071.9 551.68 1083.1C553.2 1097.74 557.04 1134.22 541.76 1141.34C536.24 1140.14 536.8 1121.66 534.56 1116.46C534.18 1115.47 532.26 1110.54 528.8 1101.66C524 1087.42 521.31 1076.54 520.72 1069.02Z" id="a9C6NaiSP"></path><path d="M506.4 1121.66C501.12 1115.66 497.36 1108.46 492 1102.46C486.88 1096.78 480.4 1092.38 475.36 1086.62C471.68 1082.46 468.8 1077.66 465.92 1072.86C455.68 1055.9 445.52 1038.86 435.28 1021.9C453.36 1027.1 463.36 1046.14 470.16 1063.74C472.08 1068.62 474 1073.74 477.92 1077.18C481.6 1080.38 486.48 1081.74 490.96 1083.66C508.88 1091.58 519.6 1109.82 529.04 1126.86C529.88 1127.83 534.06 1132.65 541.6 1141.34C522.67 1133.45 510.93 1126.89 506.4 1121.66Z" id="a3xR95flD4"></path><path d="M207.84 796.62C206.88 792.14 202.96 789.1 199.76 785.82C196.56 782.54 193.84 777.74 195.76 773.58C197.04 770.86 200 769.34 201.92 767.02C210.56 756.54 193.44 740.62 198.72 728.06C202 720.3 212.64 717.5 215.44 709.58C218.32 701.74 212.16 692.38 215.92 684.94C220 677.02 232.48 676.94 236.96 669.26C242.08 660.46 233.6 647.58 240 639.74C244.24 634.62 252.88 634.7 256.64 629.18C260.72 623.26 256.8 614.22 261.2 608.54C265.68 602.78 274.88 604.86 281.28 601.5C287.84 598.06 293.2 588.78 300 591.82C305.84 594.46 304.16 603.42 300.24 608.54C296.32 613.66 290.8 618.78 291.68 625.18C292.24 629.02 295.2 632.3 295.36 636.22C295.76 647.02 276.24 649.82 276.4 660.62C276.48 663.1 277.68 665.5 277.44 667.9C276.64 676.54 260.32 678.22 261.6 686.78C262 689.58 264.4 691.66 265.52 694.3C270.64 706.14 248.96 715.42 250.96 728.22C251.68 733.02 255.92 737.02 255.92 741.9C255.92 750.62 243.36 754.86 242.56 763.5C241.92 770.22 248.96 775.66 249.04 782.46C249.2 791.66 236.88 797.58 237.28 806.86C237.52 811.58 241.12 815.58 241.92 820.22C245.76 842.14 204.24 833.5 204.32 815.02C204.32 808.7 209.2 802.78 207.84 796.62Z" id="c5BGcJl0Z"></path><path d="M209.76 783.5C209.12 780.54 208.56 777.42 208.88 774.38C209.28 770.78 211.04 767.34 210.4 763.82C209.92 761.18 208.08 758.78 208.08 756.14C208.08 752.54 211.36 749.74 212.64 746.38C215.36 739.26 209.36 730.06 214.08 724.14C215.84 721.9 218.72 720.86 220.56 718.7C225.44 713.02 220.56 703.34 224.64 697.1C226.88 693.74 231.28 692.14 233.12 688.54C235.6 683.58 232.24 676.54 236.16 672.7C238.32 670.54 241.92 670.38 244 668.06C246.24 665.5 245.52 661.58 246.48 658.3C247.52 654.46 250.8 651.66 253.2 648.46C255.6 645.26 256.96 640.46 254.32 637.5C257.68 634.46 261.12 631.42 264.48 628.46C272 621.74 279.52 615.02 287.12 608.3C282.48 617.74 277.92 627.18 273.28 636.62C274.24 638.38 275.92 639.74 277.76 640.46C272.4 648.14 267.04 655.9 261.6 663.58C259.68 666.3 257.76 669.18 256.96 672.38C256 676.7 257.2 681.26 256.16 685.58C254.32 693.74 245.28 698.7 243.28 706.86C242.08 711.9 243.76 717.26 242.24 722.22C241.2 725.82 238.56 728.78 237.04 732.22C236 734.54 235.52 737.1 235.04 739.58C234 745.18 232.88 750.86 232.32 756.54C231.28 766.46 231.68 776.46 233.44 786.22C233.92 788.94 234.56 791.74 234.16 794.54C233.68 798.38 231.28 801.9 231.76 805.74C232.08 807.98 233.36 809.98 234.24 812.06C237.52 819.5 234.88 835.1 223.44 830.46C214.32 826.62 214.16 805.26 212.48 797.02C211.6 792.54 210.64 787.98 209.76 783.5Z" id="bxBOuP3Yo"></path><path d="M249.84 667.42C257.84 652.38 266.88 637.58 278.48 625.1C261.12 649.82 247.2 677.1 237.44 705.74C233.68 716.86 230.48 728.14 228.24 739.66C224.56 758.62 223.44 777.98 224.8 797.26C225.52 807.02 226.88 816.7 228.88 826.22C230.4 833.26 236 844.38 234.64 851.26C222.16 828.86 217.04 800.62 217.52 775.18C218.24 737.34 232.08 700.86 249.84 667.42Z" id="bURFFrikZ"></path><path d="M1012.64 1055.58C1007.36 1045.5 1004.4 1034.38 999.6 1024.06C984.24 991.18 950.72 969.42 915.44 960.94C901.6 957.58 887.04 955.9 874.64 948.78C862 941.5 852.72 928.62 849.84 914.38C857.84 927.58 870.88 938.38 886.16 940.54C900.4 942.62 914.72 937.1 929.04 938.38C947.28 939.98 962.88 952.22 974.64 966.3C986.4 980.3 1002.48 994.14 1014.64 1007.82C1025.36 1019.82 1031.44 1032.06 1045.84 1039.18C1044.96 1056.86 1045.76 1074.62 1048.24 1092.14C1045.68 1096.46 1045.12 1104.7 1048.72 1108.54C1040.24 1088.86 1022.56 1074.54 1012.64 1055.58Z" id="b6iDk0J1yE"></path><path d="M1015.76 1068.06C1012.48 1062.14 1010.08 1055.74 1007.36 1049.58C1003.52 1040.86 999.04 1032.46 994 1024.38C988.88 1016.14 982.96 1008.14 975.04 1002.46C969.04 998.14 962.08 995.26 955.2 992.46C945.12 988.38 935.04 984.3 924.48 981.82C913.36 979.18 900.8 978.54 891.52 985.1C894.4 977.02 899.76 969.42 907.6 966.06C913.2 963.66 919.52 963.58 925.52 964.22C937.44 965.5 949.12 969.42 959.44 975.58C970.08 981.9 979.12 990.54 987.68 999.5C1001.92 1014.38 1014.96 1030.3 1026.72 1047.18C1034.08 1057.74 1041.04 1068.86 1043.84 1081.42C1044.96 1086.38 1051.84 1104.62 1048.72 1108.54C1042.4 1103.26 1034.08 1093.26 1028.88 1086.78C1024.08 1080.86 1019.44 1074.78 1015.76 1068.06Z" id="ctl01xkSO"></path><path d="M968.72 918.62C953.12 895.58 937.52 872.54 921.92 849.5C953.84 884.06 985.84 918.54 1017.76 953.1C1025.76 961.74 1033.84 970.54 1039.84 980.7C1047.36 993.42 1051.2 1008.3 1051.12 1023.1C1051.12 1035.34 1050.08 1061.26 1035.84 1044.46C1016.64 1021.58 1009.68 990.3 996.56 963.9C988.72 947.98 978.72 933.26 968.72 918.62Z" id="e1TxGcL8RY"></path><path d="M1036.56 1013.02C1033.76 1005.5 1028.32 999.42 1023.52 993.02C997.2 958.3 988.4 911.02 1000.4 869.1C991.84 890.3 1000.8 914.62 1013.52 933.66C1026.24 952.7 1042.8 969.34 1052 990.3C1065.28 1020.54 1061.28 1055.1 1057.12 1087.9C1056.24 1095.1 1056.64 1105.66 1052.88 1111.5C1036.96 1103.34 1035.84 1067.02 1036.88 1051.5C1037.76 1038.54 1041.12 1025.1 1036.56 1013.02Z" id="f2l5eSITf3"></path><path d="M711.68 942.3C713.52 936.62 720.16 933.58 721.84 927.82C724.16 919.74 715.2 911.34 718.08 903.42C720.32 897.34 728 895.74 734.48 895.26C740.96 894.78 748.48 893.82 751.52 888.14C753.92 883.58 752.56 877.1 756.48 873.74C760.24 870.46 766.88 872.22 770.32 868.62C773.2 865.5 772.08 860.54 770.64 856.54C769.2 852.54 767.68 847.74 770.24 844.38C772.8 840.94 778.24 840.94 781.12 837.74C783.76 834.86 783.36 830.46 783.52 826.54C783.76 820.54 785.68 814.62 789.12 809.66C790.88 807.1 793.36 804.54 796.48 804.54C799.68 804.54 802.24 807.1 803.92 809.82C808.32 817.1 808.64 826.06 808.16 834.46C808 837.26 807.84 840.14 808.4 842.94C809.36 847.58 812.24 851.5 814.4 855.66C816.56 859.82 817.84 865.1 815.44 869.18C812.08 875.02 802.96 875.58 799.84 881.58C797.6 885.98 799.68 891.5 798.48 896.3C796.96 902.54 790.56 906.14 784.72 908.7C778.88 911.26 772.32 914.06 769.68 919.9C767.6 924.46 768.4 929.98 766.08 934.46C762.32 941.74 752.48 943.02 746.32 948.38C742.8 951.42 740.64 955.74 737.28 959.02C729.92 965.98 720.64 961.02 714.96 954.54C712 951.26 710.32 946.54 711.68 942.3Z" id="a2VLByl5p"></path><path d="M723.68 934.94C722.64 932.14 724.64 929.18 726.96 927.26C729.28 925.34 731.92 923.58 732.88 920.78C734.32 916.7 731.92 910.78 735.6 908.62C738.16 907.1 741.68 909.02 744.32 907.66C747.92 905.9 747.04 900.46 749.44 897.26C752.48 893.26 759.36 894.54 762.88 890.94C766.4 887.34 764.72 880.78 767.84 876.78C770.24 873.66 774.8 872.94 777.36 870.06C781.92 864.94 778.4 856.46 781.36 850.3C782.8 847.34 785.6 845.26 788 843.02C794.56 836.62 798.08 827.82 801.44 819.26C802.48 833.58 802.32 847.98 800.96 862.3C800.8 864.06 800.56 865.9 799.76 867.5C797.52 871.98 791.28 873.66 790 878.46C789.36 880.94 790.24 883.66 789.44 886.14C787.76 891.42 779.92 891.74 776.88 896.38C776 897.74 775.68 899.26 775.12 900.78C773.52 904.94 770.4 908.46 766.48 910.54C763.76 911.98 760.72 912.7 758.24 914.54C755.76 916.3 754 919.74 755.44 922.46C757.12 925.5 753.52 928.86 750.24 930.06C746.96 931.26 742.88 932.54 742.16 935.9C741.68 938.38 743.28 941.1 742.16 943.42C740.64 946.46 734.88 947.1 735.52 950.46C736.48 955.5 731.68 963.58 725.68 962.06C717.68 959.9 720.72 949.5 722.72 944.46C723.92 941.42 724.8 937.98 723.68 934.94Z" id="aOM88J2D0"></path><path d="M771.84 882.78C782.88 868.62 791.68 852.86 800.48 837.26C790.48 862.7 776.16 886.38 758.32 907.1C753.04 913.18 747.44 919.1 742.88 925.82C730.96 943.66 731.52 963.1 725.68 982.62C715.92 968.78 726.16 942.94 733.76 930.3C744.24 912.86 759.44 898.86 771.84 882.78Z" id="a4zMmtVV0Q"></path><path d="M694.64 1023.58C683.52 1008.46 674.4 990.14 676.88 971.5C677.12 981.34 680.72 991.1 686.88 998.78C691.04 1003.98 696.4 1008.22 701.36 1012.7C740.32 1047.5 763.12 1099.74 762.24 1151.98C762.08 1160.62 761.28 1169.5 757.04 1177.02C748.24 1175.34 745.36 1138.3 743.6 1129.02C739.52 1108.3 738.16 1087.9 728.16 1068.86C719.36 1052.22 705.76 1038.7 694.64 1023.58Z" id="aCrnm0ryT"></path><path d="M747.52 1183.82C751.68 1173.18 759.44 1164.06 763.04 1153.18C766.32 1143.26 765.84 1132.54 765.28 1122.14C764.56 1106.7 763.76 1091.18 761.04 1075.98C759.04 1065.02 756.08 1054.22 755.6 1043.18C754.56 1018.86 766.72 994.38 786.64 980.46C778.24 989.26 774.4 1001.58 773.68 1013.74C772.96 1025.9 775.04 1037.98 777.12 1049.9C779.76 1065.1 782.4 1080.38 785.12 1095.58C787.12 1106.86 789.04 1118.14 789.04 1129.58C789.04 1140.3 787.2 1151.02 784.48 1161.42C779.52 1180.3 771.36 1198.62 758.8 1213.5C751.12 1222.62 731.04 1242.86 717.52 1241.5C706.96 1240.46 720.96 1232.38 724.4 1229.1C730.96 1223.02 736.72 1216.06 740.16 1207.82C743.44 1200.06 744.48 1191.58 747.52 1183.82Z" id="g1WVLY7SM"></path><path d="M1007.84 796.62C1006.88 792.14 1002.96 789.1 999.76 785.82C996.56 782.54 993.84 777.74 995.76 773.58C997.04 770.86 1000 769.34 1001.92 767.02C1010.56 756.54 993.44 740.62 998.72 728.06C1002 720.3 1012.64 717.5 1015.44 709.58C1018.32 701.74 1012.16 692.38 1015.92 684.94C1020 677.02 1032.48 676.94 1036.96 669.26C1042.08 660.46 1033.6 647.58 1040 639.74C1044.24 634.62 1052.88 634.7 1056.64 629.18C1060.72 623.26 1056.8 614.22 1061.2 608.54C1065.68 602.78 1074.88 604.86 1081.28 601.5C1087.84 598.06 1093.2 588.78 1100 591.82C1105.84 594.46 1104.16 603.42 1100.24 608.54C1096.32 613.66 1090.8 618.78 1091.68 625.18C1092.24 629.02 1095.2 632.3 1095.36 636.22C1095.76 647.02 1076.24 649.82 1076.4 660.62C1076.48 663.1 1077.68 665.5 1077.44 667.9C1076.64 676.54 1060.32 678.22 1061.6 686.78C1062 689.58 1064.4 691.66 1065.52 694.3C1070.64 706.14 1048.96 715.42 1050.96 728.22C1051.68 733.02 1055.92 737.02 1055.92 741.9C1055.92 750.62 1043.36 754.86 1042.56 763.5C1041.92 770.22 1048.96 775.66 1049.04 782.46C1049.2 791.66 1036.88 797.58 1037.28 806.86C1037.52 811.58 1041.12 815.58 1041.92 820.22C1045.76 842.14 1004.24 833.5 1004.32 815.02C1004.32 808.7 1009.2 802.78 1007.84 796.62Z" id="a38iGDEjqa"></path><path d="M114.32 624.7C138.8 586.3 178.56 560.7 217.04 536.38C198.16 551.18 182.24 569.34 166.4 587.34C158.08 596.78 149.84 606.14 141.52 615.58C136.16 621.66 130.88 627.74 126.4 634.46C121.92 641.18 118.4 648.46 114.4 655.42C108 666.54 100.24 677.1 96 689.26C85.12 719.82 90.56 754.3 98.48 785.82C102.56 801.98 92.72 811.98 84.4 818.54C75.92 802.78 81.92 785.58 82.08 768.06C82.16 747.34 83.04 726.78 86 706.46C90.16 677.74 98.72 649.18 114.32 624.7Z" id="cqasn0Bp"></path><path d="M61.92 746.62C59.36 713.66 60.08 679.34 73.52 649.1C86.96 618.86 115.52 593.5 148.56 592.22C156.32 591.9 164.16 592.94 171.84 592.06C190 589.98 207.92 577.66 225.28 583.58C212.72 587.02 202.64 596.46 190.56 601.42C179.2 606.14 166.56 606.62 154.4 608.38C134.8 611.26 115.12 618.14 101.28 632.3C89.44 644.38 82.88 660.94 80.88 677.66C78.88 694.46 81.2 711.5 85.36 727.9C88.08 738.78 91.68 749.5 92.88 760.7C94.4 775.34 98.24 811.82 82.96 818.94C77.44 817.74 78 799.26 75.76 794.06C75.38 793.07 73.46 788.14 70 779.26C65.2 765.02 62.51 754.14 61.92 746.62Z" id="ePJu27N6B"></path><path d="M836.88 771.66C831.6 761.34 826.32 751.1 821.04 740.78C814.4 727.82 807.6 714.54 805.36 700.06C800.8 671.1 814.56 639.58 802 613.1C799.04 606.86 794.72 601.34 792 594.94C789.44 589.1 788.24 582.78 785.2 577.18C779.12 565.82 765.68 556.78 767.44 544.06C768.72 549.42 773.6 553.18 778.56 555.5C783.52 557.82 788.96 559.34 793.52 562.46C802.48 568.7 806 579.98 809.04 590.46C812.24 601.82 815.52 613.18 816.72 624.94C818.48 641.42 816.24 657.98 816 674.54C815.76 691.1 817.76 708.38 826.96 722.14C830.4 727.34 834.8 731.82 838.8 736.54C852.56 752.78 862.4 771.98 870.72 791.42C872.4 795.34 889.28 814.62 884.24 818.38C879.2 822.22 858.16 804.78 855.2 801.34C847.6 792.54 842.16 782.06 836.88 771.66Z" id="e2z2ZmYpke"></path><path d="M895.68 740.62C898.72 735.26 903.68 731.26 908.48 727.42C914.56 722.62 920.64 717.74 926.72 712.94C921.2 720.7 915.92 728.54 910.72 736.54C907.68 741.26 904.64 746.14 903.28 751.66C902 756.7 902.24 761.98 902.16 767.18C902.08 774.06 894.08 816.06 886.48 814.94C880 814.06 890 764.14 890.96 757.9C891.84 751.98 892.72 745.82 895.68 740.62Z" id="ay0MNFzzG"></path><path d="M934.88 742.78C930.32 740.78 911.2 768.54 908.88 772.22C903.92 779.98 901.12 792.94 895.04 799.02C890.16 781.58 905.12 759.82 916.8 748.94C921.76 744.3 928.72 740.06 934.88 742.78Z" id="a2PEl4JC93"></path><path d="M914.32 624.7C938.8 586.3 978.56 560.7 1017.04 536.38C998.16 551.18 982.24 569.34 966.4 587.34C958.08 596.78 949.84 606.14 941.52 615.58C936.16 621.66 930.88 627.74 926.4 634.46C921.92 641.18 918.4 648.46 914.4 655.42C908 666.54 900.24 677.1 896 689.26C885.12 719.82 890.56 754.3 898.48 785.82C902.56 801.98 892.72 811.98 884.4 818.54C875.92 802.78 881.92 785.58 882.08 768.06C882.16 747.34 883.04 726.78 886 706.46C890.16 677.74 898.72 649.18 914.32 624.7Z" id="a4e7NIDgtr"></path><path d="M892 652.7C897.44 645.34 903.28 637.66 911.52 633.66C924.16 627.5 939.52 631.1 952.8 626.54C948.8 635.1 938.24 637.66 929.44 641.1C903.6 651.1 885.52 675.34 875.36 701.1C875.12 699.34 874.88 697.58 874.72 695.74C874.65 695.02 874.3 691.42 873.68 684.94C880.99 670.11 887.09 659.37 892 652.7Z" id="buNo8mt3f"></path><path d="M858.8 616.86C861.92 608.38 865.52 599.98 870.72 592.62C874.24 587.74 878.48 583.34 881.92 578.38C888.16 569.42 891.68 558.86 897.28 549.5C911.36 525.74 936.88 511.42 961.12 498.3C938.64 514.06 920.64 536.22 909.92 561.5C906.48 569.66 903.68 578.22 899.2 585.82C895.2 592.7 889.84 598.62 885.2 605.1C870.24 625.9 863.04 652.14 865.12 677.66C866.32 691.82 870.24 705.74 870.72 719.9C870.96 727.34 874.64 757.02 863.28 757.58C852.24 758.22 847.52 731.42 846.16 723.58C839.92 687.9 846.24 650.86 858.8 616.86Z" id="f1dQWMaFi7"></path><path d="M836.56 752.46C828.32 739.82 827.12 723.82 828.48 708.78C829.76 693.74 833.36 678.94 833.76 663.9C834.08 651.58 832.32 639.26 833.44 627.02C835.52 605.02 846.8 585.02 859.28 566.7C848.88 588.54 844.24 613.1 845.92 637.26C846.48 645.82 847.92 654.38 847.92 662.94C848 673.5 846.08 683.9 845.44 694.38C844.48 710.22 846.48 726.46 853.68 740.54C858.16 749.26 864.48 756.86 869.68 765.18C873.6 771.34 895.04 820.86 882.08 818.3C875.28 816.94 868.8 801.58 866 796.14C861.52 787.58 857.68 778.62 851.76 770.86C846.96 764.54 840.88 759.1 836.56 752.46Z" id="a7uv4fo4TV"></path><path d="M861.92 746.62C859.36 713.66 860.08 679.34 873.52 649.1C886.96 618.86 915.52 593.5 948.56 592.22C956.32 591.9 964.16 592.94 971.84 592.06C990 589.98 1007.92 577.66 1025.28 583.58C1012.72 587.02 1002.64 596.46 990.56 601.42C979.2 606.14 966.56 606.62 954.4 608.38C934.8 611.26 915.12 618.14 901.28 632.3C889.44 644.38 882.88 660.94 880.88 677.66C878.88 694.46 881.2 711.5 885.36 727.9C888.08 738.78 891.68 749.5 892.88 760.7C894.4 775.34 898.24 811.82 882.96 818.94C877.44 817.74 878 799.26 875.76 794.06C875.38 793.07 873.46 788.14 870 779.26C865.2 765.02 862.51 754.14 861.92 746.62Z" id="acQNVdreE"></path><path d="M847.68 799.26C842.4 793.26 838.64 786.06 833.28 780.06C828.16 774.38 821.68 769.98 816.64 764.22C812.96 760.06 810.08 755.26 807.2 750.46C796.96 733.5 786.8 716.46 776.56 699.5C794.64 704.7 804.64 723.74 811.44 741.34C813.36 746.22 815.28 751.34 819.2 754.78C822.88 757.98 827.76 759.34 832.24 761.26C850.16 769.18 860.88 787.42 870.32 804.46C871.16 805.43 875.34 810.25 882.88 818.94C863.95 811.05 852.21 804.49 847.68 799.26Z" id="aOSsNeihD"></path><path d="M633.44 764.7C628.16 754.62 625.2 743.5 620.4 733.18C605.04 700.3 571.52 678.54 536.24 670.06C522.4 666.7 507.84 665.02 495.44 657.9C482.8 650.62 473.52 637.74 470.64 623.5C478.64 636.7 491.68 647.5 506.96 649.66C521.2 651.74 535.52 646.22 549.84 647.5C568.08 649.1 583.68 661.34 595.44 675.42C607.2 689.42 623.28 703.26 635.44 716.94C646.16 728.94 652.24 741.18 666.64 748.3C665.76 765.98 666.56 783.74 669.04 801.26C666.48 805.58 665.92 813.82 669.52 817.66C661.04 797.98 643.36 783.66 633.44 764.7Z" id="c1g3sUzHzP"></path><path d="M636.56 777.18C633.28 771.26 630.88 764.86 628.16 758.7C624.32 749.98 619.84 741.58 614.8 733.5C609.68 725.26 603.76 717.26 595.84 711.58C589.84 707.26 582.88 704.38 576 701.58C565.92 697.5 555.84 693.42 545.28 690.94C534.16 688.3 521.6 687.66 512.32 694.22C515.2 686.14 520.56 678.54 528.4 675.18C534 672.78 540.32 672.7 546.32 673.34C558.24 674.62 569.92 678.54 580.24 684.7C590.88 691.02 599.92 699.66 608.48 708.62C622.72 723.5 635.76 739.42 647.52 756.3C654.88 766.86 661.84 777.98 664.64 790.54C665.76 795.5 672.64 813.74 669.52 817.66C663.2 812.38 654.88 802.38 649.68 795.9C644.88 789.98 640.24 783.9 636.56 777.18Z" id="b3KQnuuAq"></path><path d="M589.52 627.74C573.92 604.7 558.32 581.66 542.72 558.62C574.64 593.18 606.64 627.66 638.56 662.22C646.56 670.86 654.64 679.66 660.64 689.82C668.16 702.54 672 717.42 671.92 732.22C671.92 744.46 670.88 770.38 656.64 753.58C637.44 730.62 630.48 699.42 617.36 673.02C609.52 657.1 599.52 642.38 589.52 627.74Z" id="c8yrpMSLMT"></path><path d="M656.8 654.86C650.72 631.34 651.44 603.1 669.36 586.62C663.12 605.98 663.28 627.34 669.76 646.54C674.72 661.26 683.2 674.62 687.84 689.5C691.92 702.7 692.8 716.7 693.68 730.54C694.64 745.9 695.6 761.42 693.12 776.54C691.28 788.06 685.36 815.34 673.68 820.46C663.76 793.26 679.6 753.42 676.8 724.86C674.48 700.7 662.88 678.46 656.8 654.86Z" id="bDcVGPKiI"></path><path d="M657.36 722.14C654.56 714.62 649.12 708.54 644.32 702.14C618 667.42 609.2 620.14 621.2 578.22C612.64 599.42 621.6 623.74 634.32 642.78C647.04 661.82 663.6 678.46 672.8 699.42C686.08 729.66 682.08 764.22 677.92 797.02C677.04 804.22 677.44 814.78 673.68 820.62C657.76 812.46 656.64 776.14 657.68 760.62C658.56 747.66 661.92 734.22 657.36 722.14Z" id="lUx0vInz3"></path></defs><g><g><g><use xlink:href="#dO0fQyVOU" opacity="1" fill="#fffddf" fill-opacity="1"></use><g><use xlink:href="#dO0fQyVOU" opacity="1" fill-opacity="0" stroke="#000000" stroke-width="1" stroke-opacity="0"></use></g></g><g><use xlink:href="#aJwRV5EBk" opacity="1" fill="#4e8c7c" fill-opacity="1"></use><g><use xlink:href="#aJwRV5EBk" opacity="1" fill-opacity="0" stroke="#000000" stroke-width="1" stroke-opacity="0"></use></g></g><g><use xlink:href="#b8QoSDoMVb" opacity="1" fill="#1f7a87" fill-opacity="1"></use><g><use xlink:href="#b8QoSDoMVb" opacity="1" fill-opacity="0" stroke="#000000" stroke-width="1" stroke-opacity="0"></use></g></g><g><use xlink:href="#e6ZLls5G9S" opacity="1" fill="#80c49d" fill-opacity="1"></use><g><use xlink:href="#e6ZLls5G9S" opacity="1" fill-opacity="0" stroke="#000000" stroke-width="1" stroke-opacity="0"></use></g></g><g><use xlink:href="#bd6Hd04cX" opacity="1" fill="#4eada1" fill-opacity="1"></use><g><use xlink:href="#bd6Hd04cX" opacity="1" fill-opacity="0" stroke="#000000" stroke-width="1" stroke-opacity="0"></use></g></g><g><use xlink:href="#i1628NmX7r" opacity="1" fill="#a3d3c4" fill-opacity="1"></use><g><use xlink:href="#i1628NmX7r" opacity="1" fill-opacity="0" stroke="#000000" stroke-width="1" stroke-opacity="0"></use></g></g><g><use xlink:href="#eca9mjuRb" opacity="1" fill="#60aaa4" fill-opacity="1"></use><g><use xlink:href="#eca9mjuRb" opacity="1" fill-opacity="0" stroke="#000000" stroke-width="1" stroke-opacity="0"></use></g></g><g><use xlink:href="#aNAoHF8NP" opacity="1" fill="#247f8e" fill-opacity="1"></use><g><use xlink:href="#aNAoHF8NP" opacity="1" fill-opacity="0" stroke="#000000" stroke-width="1" stroke-opacity="0"></use></g></g><g><use xlink:href="#c2XqHi0Zt4" opacity="1" fill="#1e7786" fill-opacity="1"></use><g><use xlink:href="#c2XqHi0Zt4" opacity="1" fill-opacity="0" stroke="#000000" stroke-width="1" stroke-opacity="0"></use></g></g><g><use xlink:href="#f8p1kA5jb" opacity="1" fill="#5b9c89" fill-opacity="1"></use><g><use xlink:href="#f8p1kA5jb" opacity="1" fill-opacity="0" stroke="#000000" stroke-width="1" stroke-opacity="0"></use></g></g><g><use xlink:href="#f2Ll4aCrX" opacity="1" fill="#51a288" fill-opacity="1"></use><g><use xlink:href="#f2Ll4aCrX" opacity="1" fill-opacity="0" stroke="#000000" stroke-width="1" stroke-opacity="0"></use></g></g><g><use xlink:href="#a5WDaJSaJN" opacity="1" fill="#48ada3" fill-opacity="1"></use><g><use xlink:href="#a5WDaJSaJN" opacity="1" fill-opacity="0" stroke="#000000" stroke-width="1" stroke-opacity="0"></use></g></g><g><use xlink:href="#e2Q9r1Im9" opacity="1" fill="#80c49a" fill-opacity="1"></use><g><use xlink:href="#e2Q9r1Im9" opacity="1" fill-opacity="0" stroke="#000000" stroke-width="1" stroke-opacity="0"></use></g></g><g><use xlink:href="#e6ob3fZ19" opacity="1" fill="#a3d3c4" fill-opacity="1"></use><g><use xlink:href="#e6ob3fZ19" opacity="1" fill-opacity="0" stroke="#000000" stroke-width="1" stroke-opacity="0"></use></g></g><g><use xlink:href="#aubQ1qLaC" opacity="1" fill="#60aaa4" fill-opacity="1"></use><g><use xlink:href="#aubQ1qLaC" opacity="1" fill-opacity="0" stroke="#000000" stroke-width="1" stroke-opacity="0"></use></g></g><g><use xlink:href="#c2dbxQ8dYm" opacity="1" fill="#247f8e" fill-opacity="1"></use><g><use xlink:href="#c2dbxQ8dYm" opacity="1" fill-opacity="0" stroke="#000000" stroke-width="1" stroke-opacity="0"></use></g></g><g><use xlink:href="#bciyLvj2t" opacity="1" fill="#8ec599" fill-opacity="1"></use><g><use xlink:href="#bciyLvj2t" opacity="1" fill-opacity="0" stroke="#000000" stroke-width="1" stroke-opacity="0"></use></g></g><g><use xlink:href="#bLIdphRed" opacity="1" fill="#4d9180" fill-opacity="1"></use><g><use xlink:href="#bLIdphRed" opacity="1" fill-opacity="0" stroke="#000000" stroke-width="1" stroke-opacity="0"></use></g></g><g><use xlink:href="#b7nrUwGaV" opacity="1" fill="#176a72" fill-opacity="1"></use><g><use xlink:href="#b7nrUwGaV" opacity="1" fill-opacity="0" stroke="#000000" stroke-width="1" stroke-opacity="0"></use></g></g><g><use xlink:href="#aUujqSCwz" opacity="1" fill="#84c59b" fill-opacity="1"></use><g><use xlink:href="#aUujqSCwz" opacity="1" fill-opacity="0" stroke="#000000" stroke-width="1" stroke-opacity="0"></use></g></g><g><use xlink:href="#aGqTSqt3u" opacity="1" fill="#196d73" fill-opacity="1"></use><g><use xlink:href="#aGqTSqt3u" opacity="1" fill-opacity="0" stroke="#000000" stroke-width="1" stroke-opacity="0"></use></g></g><g><use xlink:href="#f1v0vm4X0m" opacity="1" fill="#53a99e" fill-opacity="1"></use><g><use xlink:href="#f1v0vm4X0m" opacity="1" fill-opacity="0" stroke="#000000" stroke-width="1" stroke-opacity="0"></use></g></g><g><use xlink:href="#dl0vxIVrm" opacity="1" fill="#5ba088" fill-opacity="1"></use><g><use xlink:href="#dl0vxIVrm" opacity="1" fill-opacity="0" stroke="#000000" stroke-width="1" stroke-opacity="0"></use></g></g><g><use xlink:href="#cDseu1ji1" opacity="1" fill="#176a72" fill-opacity="1"></use><g><use xlink:href="#cDseu1ji1" opacity="1" fill-opacity="0" stroke="#000000" stroke-width="1" stroke-opacity="0"></use></g></g><g><use xlink:href="#e2ufmbyx9" opacity="1" fill="#a3d3c4" fill-opacity="1"></use><g><use xlink:href="#e2ufmbyx9" opacity="1" fill-opacity="0" stroke="#000000" stroke-width="1" stroke-opacity="0"></use></g></g><g><use xlink:href="#d2QKZnGg5T" opacity="1" fill="#60aaa4" fill-opacity="1"></use><g><use xlink:href="#d2QKZnGg5T" opacity="1" fill-opacity="0" stroke="#000000" stroke-width="1" stroke-opacity="0"></use></g></g><g><use xlink:href="#d4Mg01a3X4" opacity="1" fill="#247f8e" fill-opacity="1"></use><g><use xlink:href="#d4Mg01a3X4" opacity="1" fill-opacity="0" stroke="#000000" stroke-width="1" stroke-opacity="0"></use></g></g><g><use xlink:href="#b1h8OxD1G1" opacity="1" fill="#a3d3c4" fill-opacity="1"></use><g><use xlink:href="#b1h8OxD1G1" opacity="1" fill-opacity="0" stroke="#000000" stroke-width="1" stroke-opacity="0"></use></g></g><g><use xlink:href="#i52Di1dFJh" opacity="1" fill="#60aaa4" fill-opacity="1"></use><g><use xlink:href="#i52Di1dFJh" opacity="1" fill-opacity="0" stroke="#000000" stroke-width="1" stroke-opacity="0"></use></g></g><g><use xlink:href="#a4GlGPgUG" opacity="1" fill="#247f8e" fill-opacity="1"></use><g><use xlink:href="#a4GlGPgUG" opacity="1" fill-opacity="0" stroke="#000000" stroke-width="1" stroke-opacity="0"></use></g></g><g><use xlink:href="#g1cYdENR3A" opacity="1" fill="#1e7786" fill-opacity="1"></use><g><use xlink:href="#g1cYdENR3A" opacity="1" fill-opacity="0" stroke="#000000" stroke-width="1" stroke-opacity="0"></use></g></g><g><use xlink:href="#bcVmGBLt4" opacity="1" fill="#5b9c89" fill-opacity="1"></use><g><use xlink:href="#bcVmGBLt4" opacity="1" fill-opacity="0" stroke="#000000" stroke-width="1" stroke-opacity="0"></use></g></g><g><use xlink:href="#c2xjoOvmkr" opacity="1" fill="#51a288" fill-opacity="1"></use><g><use xlink:href="#c2xjoOvmkr" opacity="1" fill-opacity="0" stroke="#000000" stroke-width="1" stroke-opacity="0"></use></g></g><g><use xlink:href="#a2fOhpCaAL" opacity="1" fill="#48ada3" fill-opacity="1"></use><g><use xlink:href="#a2fOhpCaAL" opacity="1" fill-opacity="0" stroke="#000000" stroke-width="1" stroke-opacity="0"></use></g></g><g><use xlink:href="#d2SABEaQPw" opacity="1" fill="#80c49a" fill-opacity="1"></use><g><use xlink:href="#d2SABEaQPw" opacity="1" fill-opacity="0" stroke="#000000" stroke-width="1" stroke-opacity="0"></use></g></g><g><use xlink:href="#bvuVkTddZ" opacity="1" fill="#a3d3c4" fill-opacity="1"></use><g><use xlink:href="#bvuVkTddZ" opacity="1" fill-opacity="0" stroke="#000000" stroke-width="1" stroke-opacity="0"></use></g></g><g><use xlink:href="#c5kahfHfm0" opacity="1" fill="#60aaa4" fill-opacity="1"></use><g><use xlink:href="#c5kahfHfm0" opacity="1" fill-opacity="0" stroke="#000000" stroke-width="1" stroke-opacity="0"></use></g></g><g><use xlink:href="#b6KuODHSa4" opacity="1" fill="#4e8c7c" fill-opacity="1"></use><g><use xlink:href="#b6KuODHSa4" opacity="1" fill-opacity="0" stroke="#000000" stroke-width="1" stroke-opacity="0"></use></g></g><g><use xlink:href="#b5nGxhaebn" opacity="1" fill="#1f7a87" fill-opacity="1"></use><g><use xlink:href="#b5nGxhaebn" opacity="1" fill-opacity="0" stroke="#000000" stroke-width="1" stroke-opacity="0"></use></g></g><g><use xlink:href="#a18vR0Bp1s" opacity="1" fill="#24828a" fill-opacity="1"></use><g><use xlink:href="#a18vR0Bp1s" opacity="1" fill-opacity="0" stroke="#000000" stroke-width="1" stroke-opacity="0"></use></g></g><g><use xlink:href="#d5bAbivnm" opacity="1" fill="#80c49d" fill-opacity="1"></use><g><use xlink:href="#d5bAbivnm" opacity="1" fill-opacity="0" stroke="#000000" stroke-width="1" stroke-opacity="0"></use></g></g><g><use xlink:href="#g1FK9Ct3iD" opacity="1" fill="#4eada1" fill-opacity="1"></use><g><use xlink:href="#g1FK9Ct3iD" opacity="1" fill-opacity="0" stroke="#000000" stroke-width="1" stroke-opacity="0"></use></g></g><g><use xlink:href="#a3aGahFBvx" opacity="1" fill="#a3d3c4" fill-opacity="1"></use><g><use xlink:href="#a3aGahFBvx" opacity="1" fill-opacity="0" stroke="#000000" stroke-width="1" stroke-opacity="0"></use></g></g><g><use xlink:href="#cbkOX6oxX" opacity="1" fill="#60aaa4" fill-opacity="1"></use><g><use xlink:href="#cbkOX6oxX" opacity="1" fill-opacity="0" stroke="#000000" stroke-width="1" stroke-opacity="0"></use></g></g><g><use xlink:href="#c3oCwIsUCt" opacity="1" fill="#247f8e" fill-opacity="1"></use><g><use xlink:href="#c3oCwIsUCt" opacity="1" fill-opacity="0" stroke="#000000" stroke-width="1" stroke-opacity="0"></use></g></g><g><use xlink:href="#bnty1ZTM" opacity="1" fill="#a3d3c4" fill-opacity="1"></use><g><use xlink:href="#bnty1ZTM" opacity="1" fill-opacity="0" stroke="#000000" stroke-width="1" stroke-opacity="0"></use></g></g><g><use xlink:href="#bADLZPYlV" opacity="1" fill="#60aaa4" fill-opacity="1"></use><g><use xlink:href="#bADLZPYlV" opacity="1" fill-opacity="0" stroke="#000000" stroke-width="1" stroke-opacity="0"></use></g></g><g><use xlink:href="#a2HUB1vSyC" opacity="1" fill="#247f8e" fill-opacity="1"></use><g><use xlink:href="#a2HUB1vSyC" opacity="1" fill-opacity="0" stroke="#000000" stroke-width="1" stroke-opacity="0"></use></g></g><g><use xlink:href="#kbOUfMRDX" opacity="1" fill="#8ec599" fill-opacity="1"></use><g><use xlink:href="#kbOUfMRDX" opacity="1" fill-opacity="0" stroke="#000000" stroke-width="1" stroke-opacity="0"></use></g></g><g><use xlink:href="#cu1Cz4COX" opacity="1" fill="#4d9180" fill-opacity="1"></use><g><use xlink:href="#cu1Cz4COX" opacity="1" fill-opacity="0" stroke="#000000" stroke-width="1" stroke-opacity="0"></use></g></g><g><use xlink:href="#cb9cY0aXr" opacity="1" fill="#84c59b" fill-opacity="1"></use><g><use xlink:href="#cb9cY0aXr" opacity="1" fill-opacity="0" stroke="#000000" stroke-width="1" stroke-opacity="0"></use></g></g><g><use xlink:href="#c81gdM9mIG" opacity="1" fill="#248084" fill-opacity="1"></use><g><use xlink:href="#c81gdM9mIG" opacity="1" fill-opacity="0" stroke="#000000" stroke-width="1" stroke-opacity="0"></use></g></g><g><use xlink:href="#f55LEy5AF" opacity="1" fill="#196d73" fill-opacity="1"></use><g><use xlink:href="#f55LEy5AF" opacity="1" fill-opacity="0" stroke="#000000" stroke-width="1" stroke-opacity="0"></use></g></g><g><use xlink:href="#f94GZGmoTL" opacity="1" fill="#53a99e" fill-opacity="1"></use><g><use xlink:href="#f94GZGmoTL" opacity="1" fill-opacity="0" stroke="#000000" stroke-width="1" stroke-opacity="0"></use></g></g><g><use xlink:href="#a9C6NaiSP" opacity="1" fill="#5ba088" fill-opacity="1"></use><g><use xlink:href="#a9C6NaiSP" opacity="1" fill-opacity="0" stroke="#000000" stroke-width="1" stroke-opacity="0"></use></g></g><g><use xlink:href="#a3xR95flD4" opacity="1" fill="#176a72" fill-opacity="1"></use><g><use xlink:href="#a3xR95flD4" opacity="1" fill-opacity="0" stroke="#000000" stroke-width="1" stroke-opacity="0"></use></g></g><g><use xlink:href="#c5BGcJl0Z" opacity="1" fill="#a3d3c4" fill-opacity="1"></use><g><use xlink:href="#c5BGcJl0Z" opacity="1" fill-opacity="0" stroke="#000000" stroke-width="1" stroke-opacity="0"></use></g></g><g><use xlink:href="#bxBOuP3Yo" opacity="1" fill="#60aaa4" fill-opacity="1"></use><g><use xlink:href="#bxBOuP3Yo" opacity="1" fill-opacity="0" stroke="#000000" stroke-width="1" stroke-opacity="0"></use></g></g><g><use xlink:href="#bURFFrikZ" opacity="1" fill="#247f8e" fill-opacity="1"></use><g><use xlink:href="#bURFFrikZ" opacity="1" fill-opacity="0" stroke="#000000" stroke-width="1" stroke-opacity="0"></use></g></g><g><use xlink:href="#b6iDk0J1yE" opacity="1" fill="#4e8c7c" fill-opacity="1"></use><g><use xlink:href="#b6iDk0J1yE" opacity="1" fill-opacity="0" stroke="#000000" stroke-width="1" stroke-opacity="0"></use></g></g><g><use xlink:href="#ctl01xkSO" opacity="1" fill="#1f7a87" fill-opacity="1"></use><g><use xlink:href="#ctl01xkSO" opacity="1" fill-opacity="0" stroke="#000000" stroke-width="1" stroke-opacity="0"></use></g></g><g><use xlink:href="#e1TxGcL8RY" opacity="1" fill="#24828a" fill-opacity="1"></use><g><use xlink:href="#e1TxGcL8RY" opacity="1" fill-opacity="0" stroke="#000000" stroke-width="1" stroke-opacity="0"></use></g></g><g><use xlink:href="#f2l5eSITf3" opacity="1" fill="#4eada1" fill-opacity="1"></use><g><use xlink:href="#f2l5eSITf3" opacity="1" fill-opacity="0" stroke="#000000" stroke-width="1" stroke-opacity="0"></use></g></g><g><use xlink:href="#a2VLByl5p" opacity="1" fill="#a3d3c4" fill-opacity="1"></use><g><use xlink:href="#a2VLByl5p" opacity="1" fill-opacity="0" stroke="#000000" stroke-width="1" stroke-opacity="0"></use></g></g><g><use xlink:href="#aOM88J2D0" opacity="1" fill="#60aaa4" fill-opacity="1"></use><g><use xlink:href="#aOM88J2D0" opacity="1" fill-opacity="0" stroke="#000000" stroke-width="1" stroke-opacity="0"></use></g></g><g><use xlink:href="#a4zMmtVV0Q" opacity="1" fill="#247f8e" fill-opacity="1"></use><g><use xlink:href="#a4zMmtVV0Q" opacity="1" fill-opacity="0" stroke="#000000" stroke-width="1" stroke-opacity="0"></use></g></g><g><use xlink:href="#aCrnm0ryT" opacity="1" fill="#51a288" fill-opacity="1"></use><g><use xlink:href="#aCrnm0ryT" opacity="1" fill-opacity="0" stroke="#000000" stroke-width="1" stroke-opacity="0"></use></g></g><g><use xlink:href="#g1WVLY7SM" opacity="1" fill="#80c49a" fill-opacity="1"></use><g><use xlink:href="#g1WVLY7SM" opacity="1" fill-opacity="0" stroke="#000000" stroke-width="1" stroke-opacity="0"></use></g></g><g><use xlink:href="#a38iGDEjqa" opacity="1" fill="#a3d3c4" fill-opacity="1"></use><g><use xlink:href="#a38iGDEjqa" opacity="1" fill-opacity="0" stroke="#000000" stroke-width="1" stroke-opacity="0"></use></g></g><g><use xlink:href="#cqasn0Bp" opacity="1" fill="#84c59b" fill-opacity="1"></use><g><use xlink:href="#cqasn0Bp" opacity="1" fill-opacity="0" stroke="#000000" stroke-width="1" stroke-opacity="0"></use></g></g><g><use xlink:href="#ePJu27N6B" opacity="1" fill="#5ba088" fill-opacity="1"></use><g><use xlink:href="#ePJu27N6B" opacity="1" fill-opacity="0" stroke="#000000" stroke-width="1" stroke-opacity="0"></use></g></g><g><use xlink:href="#e2z2ZmYpke" opacity="1" fill="#8ec599" fill-opacity="1"></use><g><use xlink:href="#e2z2ZmYpke" opacity="1" fill-opacity="0" stroke="#000000" stroke-width="1" stroke-opacity="0"></use></g></g><g><use xlink:href="#ay0MNFzzG" opacity="1" fill="#4d9180" fill-opacity="1"></use><g><use xlink:href="#ay0MNFzzG" opacity="1" fill-opacity="0" stroke="#000000" stroke-width="1" stroke-opacity="0"></use></g></g><g><use xlink:href="#a2PEl4JC93" opacity="1" fill="#176a72" fill-opacity="1"></use><g><use xlink:href="#a2PEl4JC93" opacity="1" fill-opacity="0" stroke="#000000" stroke-width="1" stroke-opacity="0"></use></g></g><g><use xlink:href="#a4e7NIDgtr" opacity="1" fill="#84c59b" fill-opacity="1"></use><g><use xlink:href="#a4e7NIDgtr" opacity="1" fill-opacity="0" stroke="#000000" stroke-width="1" stroke-opacity="0"></use></g></g><g><use xlink:href="#buNo8mt3f" opacity="1" fill="#248084" fill-opacity="1"></use><g><use xlink:href="#buNo8mt3f" opacity="1" fill-opacity="0" stroke="#000000" stroke-width="1" stroke-opacity="0"></use></g></g><g><use xlink:href="#f1dQWMaFi7" opacity="1" fill="#196d73" fill-opacity="1"></use><g><use xlink:href="#f1dQWMaFi7" opacity="1" fill-opacity="0" stroke="#000000" stroke-width="1" stroke-opacity="0"></use></g></g><g><use xlink:href="#a7uv4fo4TV" opacity="1" fill="#53a99e" fill-opacity="1"></use><g><use xlink:href="#a7uv4fo4TV" opacity="1" fill-opacity="0" stroke="#000000" stroke-width="1" stroke-opacity="0"></use></g></g><g><use xlink:href="#acQNVdreE" opacity="1" fill="#5ba088" fill-opacity="1"></use><g><use xlink:href="#acQNVdreE" opacity="1" fill-opacity="0" stroke="#000000" stroke-width="1" stroke-opacity="0"></use></g></g><g><use xlink:href="#aOSsNeihD" opacity="1" fill="#176a72" fill-opacity="1"></use><g><use xlink:href="#aOSsNeihD" opacity="1" fill-opacity="0" stroke="#000000" stroke-width="1" stroke-opacity="0"></use></g></g><g><use xlink:href="#c1g3sUzHzP" opacity="1" fill="#4e8c7c" fill-opacity="1"></use><g><use xlink:href="#c1g3sUzHzP" opacity="1" fill-opacity="0" stroke="#000000" stroke-width="1" stroke-opacity="0"></use></g></g><g><use xlink:href="#b3KQnuuAq" opacity="1" fill="#1f7a87" fill-opacity="1"></use><g><use xlink:href="#b3KQnuuAq" opacity="1" fill-opacity="0" stroke="#000000" stroke-width="1" stroke-opacity="0"></use></g></g><g><use xlink:href="#c8yrpMSLMT" opacity="1" fill="#24828a" fill-opacity="1"></use><g><use xlink:href="#c8yrpMSLMT" opacity="1" fill-opacity="0" stroke="#000000" stroke-width="1" stroke-opacity="0"></use></g></g><g><use xlink:href="#bDcVGPKiI" opacity="1" fill="#80c49d" fill-opacity="1"></use><g><use xlink:href="#bDcVGPKiI" opacity="1" fill-opacity="0" stroke="#000000" stroke-width="1" stroke-opacity="0"></use></g></g><g><use xlink:href="#lUx0vInz3" opacity="1" fill="#4eada1" fill-opacity="1"></use><g><use xlink:href="#lUx0vInz3" opacity="1" fill-opacity="0" stroke="#000000" stroke-width="1" stroke-opacity="0"></use></g></g></g></g></svg>