<?xml version="1.0" encoding="UTF-8" standalone="no"?>
<!-- Created with Inkscape (http://www.inkscape.org/) -->

<svg
   xmlns:dc="http://purl.org/dc/elements/1.1/"
   xmlns:cc="http://creativecommons.org/ns#"
   xmlns:rdf="http://www.w3.org/1999/02/22-rdf-syntax-ns#"
   xmlns:svg="http://www.w3.org/2000/svg"
   xmlns="http://www.w3.org/2000/svg"
   xmlns:sodipodi="http://sodipodi.sourceforge.net/DTD/sodipodi-0.dtd"
   xmlns:inkscape="http://www.inkscape.org/namespaces/inkscape"
   id="svg2"
   sodipodi:docname="klapperstei-Fleur-de-lis.svg.2015_08_13_11_49_22.0.svg"
   viewBox="0 0 2373.9531 919.21"
   sodipodi:version="0.32"
   version="1.0"
   inkscape:output_extension="org.inkscape.output.svg.inkscape"
   inkscape:version="0.91 r13725"
   width="2373.9531"
   height="3106.4648">
  <defs
     id="defs18" />
  <sodipodi:namedview
     id="base"
     bordercolor="#666666"
     inkscape:pageshadow="2"
     guidetolerance="10.0"
     pagecolor="#ffffff"
     gridtolerance="10.0"
     inkscape:showpageshadow="false"
     inkscape:zoom="0.10186877"
     objecttolerance="10.0"
     borderopacity="1.0"
     inkscape:current-layer="svg2"
     inkscape:cx="1756.0225"
     inkscape:cy="1113.7335"
     showguides="false"
     inkscape:window-y="-4"
     inkscape:window-x="-4"
     inkscape:window-height="712"
     showborder="false"
     inkscape:pageopacity="0.0"
     inkscape:window-width="1280"
     showgrid="false"
     fit-margin-top="0"
     fit-margin-left="0"
     fit-margin-right="0"
     fit-margin-bottom="0"
     inkscape:window-maximized="0">
    <inkscape:grid
       id="GridFromPre046Settings"
       color="#ff0000"
       originy="23.632241"
       originx="2015.4494"
       empspacing="10"
       spacingy="100px"
       spacingx="100px"
       empopacity="1"
       type="xygrid"
       empcolor="#0000ff" />
  </sodipodi:namedview>
  <path
     inkscape:connector-curvature="0"
     d="m 1065.6194,1589.665 c -0.35,160 3.33,260.1 106.19,400.9 l 14.86,11.8 15.36,-11.8 c 106.94,-145.8 107.12,-228.3 107.91,-400.9"
     style="fill:#ff9900;fill-rule:evenodd;stroke:#cc6600;stroke-width:16.50699997"
     sodipodi:nodetypes="ccccs"
     id="path9104" />
  <path
     inkscape:connector-curvature="0"
     d="m 1484.2594,1205.565 1.21,-589.66997 c 0.05,-24.19 -1.68,-118.2 29.58,-211.18 59,-154.79 114,-205.71 165.5,-261.25 58.3,-62.933001 198.2,-128.320001 310.3,-129.240001 101.1,-0.84 228.7,25.525 298.7,96.437001 33.7,34.148 43.9,62.699 61.4,117.22 19,59.03 9.4,159.33 3.4,197.91 -9.2,59.08 -24.5,95.89 -57.6,146.57 -25.5,38.91 -90.3,123.44 -211.8,140.35 5.2,-17.56 16.7,-62.96 20.5,-117.57 1.7,-24.52 -3.5,-77.17 -25.9,-103.93 -65.4,-78.41 -124.5,-85.13 -238.4,-75.27 -20.1,1.74 -44.1,10.32 -85.9,46.82 -41.7,36.5 -67.6,96.18 -67.9,148.63 l -2.7,595.26997"
     style="fill:#ff9900;fill-rule:evenodd;stroke:#cc6600;stroke-width:22.9810009"
     sodipodi:nodetypes="cscsssssscssszsc"
     id="path9098" />
  <path
     inkscape:connector-curvature="0"
     d="m 889.70945,1215.965 -1.21,-589.69997 c -0.05,-24.2 1.67,-118.2 -29.62,-211.18 -58.95,-154.79 -114,-205.71 -165.46,-261.25 -58.31,-62.934001 -198.19,-128.320001 -310.29,-129.240001 -101.13,-0.841 -228.67,25.524 -298.710004,96.436001 -33.73,34.148 -43.9,62.699 -61.43,117.21 -18.9900003,59.04 -9.38,159.33 -3.36,197.92 9.21,59.08 24.49,95.89 57.63,146.56 25.440004,38.92 90.220004,123.45 211.780004,140.36 -5.27,-17.56 -16.77,-62.96 -20.57,-117.57 -1.7,-24.52 3.6,-77.17 25.92,-103.93 65.42,-78.41 124.5,-85.13 238.4,-75.27 20.115,1.74 44.143,10.32 85.89,46.82 41.75,36.5 67.65,96.18 67.89,148.63 l 2.75,595.29997"
     style="fill:#ff9900;fill-rule:evenodd;stroke:#cc6600;stroke-width:22.9810009"
     sodipodi:nodetypes="cscsssssscssszsc"
     id="path9088" />
  <path
     inkscape:connector-curvature="0"
     d="m 1167.2094,-1054.735 c -153.46,159.58003 -260.01995,293.49003 -317.10995,441.62003 -28.55,74.07 -48.2,141.27 -51.68,227.43 -3.49,86.16 2.24,173.92 34.86,278.69 36.24,116.3999991 163.64,261.34 220.35995,402.16 28.36,70.41 33.49,145.49 33.34,217.87 l -1.49,694.02997 201.4,3.5 -2.8,-698.10997 c -0.29,-72.44 5.45,-150.92 34.41,-221.23 57.91,-140.62 177.25,-286.2600009 217.15,-401.69 37.4,-108.26 39.1,-189.78 37.6,-275.6 -1.5,-85.7 -20,-151.16 -50.7,-223.57 -61.34,-144.8 -171.48,-275.75 -319.51,-443.70003 l -18.1,-22.3 -17.73,20.9 z"
     style="fill:#ff9900;stroke:#cc6600;stroke-width:22.9810009"
     sodipodi:nodetypes="csssssccsssssccc"
     id="path9092" />
  <rect
     x="580.08643"
     y="1207.165"
     width="1210.7"
     height="110.42"
     style="fill:#ff9900;stroke:#cc6600;stroke-width:17.14500046"
     id="rect9094" />
  <path
     inkscape:connector-curvature="0"
     d="m 1186.5394,1213.065 0,-2282.9"
     style="fill:none;stroke:#cc6600;stroke-width:10"
     id="path9102" />
  <path
     inkscape:connector-curvature="0"
     d="m 1186.1794,1324.865 2.78,213.3 c 0.06,278.2 236.39,278.2 389.29,278.3 -231.83,-72.8 -290,-279.8 -291.16,-491.6"
     style="fill:#ff9900;fill-opacity:1;fill-rule:evenodd;stroke:#cc6600;stroke-width:16.50699997"
     sodipodi:nodetypes="cccc"
     id="path9106" />
  <path
     inkscape:connector-curvature="0"
     d="m 1188.6694,1325.765 -2.8,213.3 c -0.05,278.2 -237.43995,278.2 -391.05995,278.3 232.89995,-72.8 291.41995,-283.2 292.58995,-495"
     style="fill:#ff9900;fill-rule:evenodd;stroke:#cc6600;stroke-width:16.54299927"
     sodipodi:nodetypes="cccc"
     id="path9108" />
  <path
     inkscape:connector-curvature="0"
     d="m 1593.3494,1207.865 2.5,-599.98997 c -4.5,-104.84 40.3,-214.57 91,-268.59 40.2,-42.95 76.8,-117.16 313.4,-118.6 207.6,-0.28 246.7,132.34 251.7,229.06 -4.7,61.1 -28.6,161.53 -158.6,258.13"
     style="fill:none;stroke:#cc6600;stroke-width:10"
     sodipodi:nodetypes="ccsccc"
     id="path16950" />
  <path
     inkscape:connector-curvature="0"
     d="m 787.34945,1207.065 -2.45,-599.98997 c 4.46,-104.85 -40.4,-214.58 -91.03,-268.6 -40.25,-42.94 -76.85,-117.16 -313.46,-118.6 -207.58,-0.28 -246.71,132.34 -251.62,229.07 4.63,61.09 28.54,161.53 158.56,258.13"
     style="fill:none;stroke:#cc6600;stroke-width:10"
     sodipodi:nodetypes="ccsccc"
     id="path16952" />
  <metadata
     id="metadata16">
    <rdf:RDF>
      <cc:Work>
        <dc:format>image/svg+xml</dc:format>
        <dc:type
           rdf:resource="http://purl.org/dc/dcmitype/StillImage" />
        <cc:license
           rdf:resource="http://creativecommons.org/publicdomain/zero/1.0/" />
        <dc:publisher>
          <cc:Agent
             rdf:about="http://openclipart.org/">
            <dc:title>Openclipart</dc:title>
          </cc:Agent>
        </dc:publisher>
        <dc:title>Fleur-de-lis</dc:title>
        <dc:date>2009-11-18T12:17:15</dc:date>
        <dc:description />
        <dc:source>https://openclipart.org/detail/28407/fleur-de-lis-by-klapperstei</dc:source>
        <dc:creator>
          <cc:Agent>
            <dc:title>klapperstei</dc:title>
          </cc:Agent>
        </dc:creator>
        <dc:subject>
          <rdf:Bag>
            <rdf:li>charge</rdf:li>
            <rdf:li>fleur</rdf:li>
            <rdf:li>flower</rdf:li>
            <rdf:li>heraldry</rdf:li>
            <rdf:li>lis</rdf:li>
            <rdf:li>unchecked</rdf:li>
          </rdf:Bag>
        </dc:subject>
      </cc:Work>
      <cc:License
         rdf:about="http://creativecommons.org/publicdomain/zero/1.0/">
        <cc:permits
           rdf:resource="http://creativecommons.org/ns#Reproduction" />
        <cc:permits
           rdf:resource="http://creativecommons.org/ns#Distribution" />
        <cc:permits
           rdf:resource="http://creativecommons.org/ns#DerivativeWorks" />
      </cc:License>
    </rdf:RDF>
  </metadata>
</svg>
